<svg width="12" height="11" viewBox="0 0 12 11" fill="none" xmlns="http://www.w3.org/2000/svg">
<path d="M5.54032 0.957322C4.93247 0.346599 4.10697 0.00226136 3.24531 1.10984e-05C2.38364 -0.00223916 1.55636 0.337783 0.945322 0.945322C0.337783 1.55636 -0.00223916 2.38364 1.10984e-05 3.24531C0.00226136 4.10697 0.346599 4.93247 0.957322 5.54032L5.66432 10.2483C5.75809 10.3421 5.88524 10.3947 6.01782 10.3947C6.1504 10.3947 6.27756 10.3421 6.37132 10.2483L11.0543 5.56832C11.6616 4.95733 12.0014 4.13026 11.9991 3.26884C11.9969 2.40742 11.6527 1.58213 11.0423 0.974322C10.7411 0.67126 10.3831 0.430533 9.9888 0.2659C9.59449 0.101266 9.1716 0.0159537 8.74431 0.0148393C8.31701 0.0137249 7.89369 0.09683 7.49853 0.259405C7.10337 0.421979 6.74412 0.660836 6.44132 0.962322L5.99432 1.41032L5.54032 0.957322Z" fill="#FF5292"/>
<path opacity="0.5" d="M1 3.49975C1.16667 2.49975 1.5 0.5 4 0.999752C2.5 1.5 2 2 1 3.49975Z" fill="#FCF8FF"/>
</svg>
