<?xml version="1.0" encoding="utf-8"?>
<!-- Generator: Adobe Illustrator 26.0.1, SVG Export Plug-In . SVG Version: 6.00 Build 0)  -->
<svg version="1.1" id="Capa_1" xmlns="http://www.w3.org/2000/svg" xmlns:xlink="http://www.w3.org/1999/xlink" x="0px" y="0px"
	 viewBox="0 0 1417.32 1417.32" style="enable-background:new 0 0 1417.32 1417.32;" xml:space="preserve">
<style type="text/css">
	.st0{fill:#4B63AC;}
	.st1{fill:#93AEBE;}
	.st2{fill:#151329;}
	.st3{fill:#4C4386;}
	.st4{fill:#1F1E40;}
	.st5{fill:#0D0B1F;}
	.st6{fill:#EB5591;}
	.st7{fill:#FFFBF4;}
	.st8{fill:#F190B4;}
	.st9{fill:#EE79A6;}
	.st10{fill:#496FB5;}
	.st11{fill:#FFFFFF;}
	.st12{fill:#EC6197;}
	.st13{fill:#2E2D52;}
	.st14{fill:#00B1C3;}
	.st15{fill:#A7ADD8;}
	.st16{fill:#D9DAEF;}
	.st17{fill:#596DB2;}
	.st18{fill:#E6E6E6;}
	.st19{fill:#F7B5AB;}
	.st20{fill:#E6817A;}
	.st21{fill:#21263D;}
	.st22{fill:#B7793E;}
	.st23{fill:#F9C7BF;}
	.st24{fill:#C8935C;}
	.st25{fill:#3D435A;}
	.st26{fill:#F4ABC6;}
	.st27{fill:#272521;}
	.st28{fill:#FCF8FC;}
	.st29{fill:#4E6D96;}
	.st30{fill:#7683C0;}
	.st31{fill:#6475B7;}
	.st32{clip-path:url(#SVGID_00000127757522865159174250000005325469162816745095_);fill:#B7793E;}
	.st33{clip-path:url(#SVGID_00000049911408534120134890000001600248541850392477_);fill:#B7793E;}
</style>
<path class="st0" d="M1052.39,854.8l-29.93-9.74c0.16-0.59,0.06-1.23-0.37-1.72c-0.68-0.75-1.84-0.81-2.59-0.13l-0.72,0.65
	l-35.48-11.55v-30.68h164.22c18.58,0,33.65-15.04,33.65-33.61V212.22l121.15,24.84l-16.53,737.3l-51.88-7.22
	C1173.07,867.49,1052.39,854.8,1052.39,854.8z"/>
<path class="st1" d="M870.24,801.64v30.68l-45.51,15.94l-0.09-0.19c-0.44-0.91-1.54-1.29-2.45-0.86c-0.85,0.41-1.21,1.38-0.91,2.25
	l-6.85,2.4v-12.87v-37.35H870.24z"/>
<path class="st0" d="M160.77,801.64h380.53v37.35v31.69L17.34,797.7l109.78-430.83v401.16
	C127.12,786.59,142.18,801.64,160.77,801.64z"/>
<polygon class="st0" points="216.91,14.51 642.11,101.69 194.69,101.69 "/>
<path class="st2" d="M1147.52,801.64H983.3V763.6c0.83,0.72,1.67,1.38,2.49,1.98c1.93-2.15,3.87-4.51,5.81-7h0.01h145.92V144.75
	H778.49H170.75v613.83h681.1h0.12c4.93,4.27,10.67,7.59,17.49,9.4c0.26,0.07,0.52,0.12,0.78,0.18v20.8v12.68h-55.81v0H541.29v0
	H160.77c-18.59,0-33.65-15.04-33.65-33.61V366.87V135.3c0-18.56,15.06-33.61,33.65-33.61h33.93h447.42h505.41
	c18.58,0,33.65,15.04,33.65,33.61v76.92v555.81C1181.17,786.59,1166.1,801.64,1147.52,801.64z"/>
<path class="st3" d="M994.97,754.05c-0.31,0.43-0.62,0.87-0.93,1.29C994.35,754.92,994.66,754.48,994.97,754.05z"/>
<path class="st3" d="M1000.36,746.1c-0.31,0.48-0.62,0.95-0.93,1.43C999.74,747.06,1000.05,746.58,1000.36,746.1z"/>
<path class="st3" d="M997.69,750.16c-0.32,0.47-0.64,0.93-0.95,1.39C997.05,751.08,997.37,750.62,997.69,750.16z"/>
<polygon class="st4" points="214.24,180.29 214.24,611.63 214.24,714.65 170.75,758.58 170.75,144.75 778.49,144.75 743.3,180.29 
	"/>
<path class="st3" d="M991.61,758.58h-0.01c0.21-0.26,0.41-0.53,0.61-0.8C992,758.04,991.81,758.32,991.61,758.58z"/>
<path class="st3" d="M831.22,723.04c0.21,0.7,0.42,1.4,0.64,2.09c-0.22-0.7-0.47-1.39-0.68-2.09H831.22z"/>
<path class="st3" d="M846.9,753.53c0.69,0.79,1.39,1.57,2.12,2.31C848.29,755.1,847.59,754.33,846.9,753.53z"/>
<path class="st3" d="M1013.01,723.52c0.08-0.16,0.15-0.32,0.23-0.48h0.01C1013.17,723.2,1013.09,723.36,1013.01,723.52z"/>
<path class="st3" d="M836.28,736.66c-0.6-1.32-1.18-2.63-1.72-3.98C835.1,734.03,835.68,735.35,836.28,736.66z"/>
<path class="st3" d="M1003,741.88c-0.29,0.47-0.58,0.94-0.87,1.41C1002.42,742.82,1002.71,742.35,1003,741.88z"/>
<path class="st3" d="M839.33,742.74c-0.89-1.6-1.74-3.23-2.53-4.9C837.59,739.51,838.43,741.14,839.33,742.74z"/>
<path class="st3" d="M833.79,730.66c-0.41-1.09-0.82-2.17-1.19-3.27C832.97,728.49,833.38,729.57,833.79,730.66z"/>
<path class="st3" d="M842.21,747.42c-0.69-1.03-1.34-2.11-1.98-3.19C840.87,745.31,841.51,746.39,842.21,747.42z"/>
<path class="st3" d="M851.98,758.58h-0.12c-0.41-0.35-0.77-0.76-1.16-1.13C851.1,757.84,851.55,758.21,851.98,758.58z"/>
<path class="st3" d="M1005.6,737.49c-0.24,0.43-0.5,0.84-0.74,1.26C1005.1,738.32,1005.35,737.91,1005.6,737.49z"/>
<path class="st3" d="M845.43,751.81c-0.69-0.86-1.34-1.75-1.98-2.65C844.09,750.06,844.74,750.95,845.43,751.81z"/>
<path class="st3" d="M1011.36,726.8c-0.25,0.5-0.5,1-0.76,1.5C1010.86,727.8,1011.11,727.3,1011.36,726.8z"/>
<path class="st3" d="M961.94,726.56c-0.06,0.06-0.12,0.12-0.18,0.18c0.06-0.06,0.13-0.13,0.19-0.2c0.01,0.06,0.01,0.12,0.02,0.18
	C961.96,726.67,961.95,726.62,961.94,726.56z"/>
<path class="st2" d="M541.29,838.98h273.14v12.87l-71.97,25.21c0,0-51.46,18.36-86.26,88.18l-31.01,49.04H420.3
	c9.58-50.26,74.27-47.86,74.27-47.86h46.72v-95.74V838.98z"/>
<polygon class="st5" points="541.29,801.63 814.43,801.63 814.43,801.64 814.43,838.98 541.29,838.98 541.29,801.64 "/>
<path class="st6" d="M994.04,755.34c0.31-0.42,0.62-0.86,0.93-1.29c0.59-0.83,1.18-1.66,1.77-2.51c0.32-0.46,0.63-0.92,0.95-1.39
	c0.58-0.86,1.16-1.74,1.74-2.62c0.31-0.48,0.62-0.95,0.93-1.43c0.59-0.92,1.18-1.86,1.76-2.81c0.29-0.47,0.58-0.94,0.87-1.41
	c0.62-1.03,1.24-2.08,1.86-3.13c0.24-0.42,0.5-0.83,0.74-1.26c1.71-2.97,3.38-6.03,5.01-9.19c0.26-0.49,0.51-1,0.76-1.5
	c0.55-1.09,1.1-2.18,1.65-3.28c0.08-0.16,0.16-0.32,0.24-0.48h80.79V611.63V180.29H743.3l35.19-35.54h359.04v613.83H991.61
	c0.2-0.26,0.4-0.53,0.6-0.8C992.81,756.98,993.43,756.17,994.04,755.34z"/>
<path class="st6" d="M961.97,726.72c0.08,0.55,0.21,1.11,0.32,1.66h-2.16c0.54-0.55,1.09-1.1,1.63-1.64
	c0.06-0.06,0.12-0.12,0.18-0.18C961.95,726.62,961.96,726.67,961.97,726.72z"/>
<path class="st6" d="M214.24,723.04h616.95c0.21,0.7,0.45,1.39,0.68,2.09c0.24,0.76,0.47,1.51,0.73,2.26
	c0.37,1.1,0.78,2.18,1.19,3.27c0.26,0.67,0.49,1.35,0.77,2.03c0.54,1.35,1.13,2.66,1.72,3.98c0.18,0.39,0.33,0.79,0.51,1.17
	c0.79,1.67,1.64,3.31,2.53,4.9c0.28,0.51,0.61,0.99,0.9,1.49c0.64,1.08,1.29,2.16,1.98,3.19c0.4,0.6,0.83,1.16,1.24,1.74
	c0.64,0.9,1.29,1.79,1.98,2.65c0.47,0.59,0.98,1.15,1.47,1.72c0.69,0.79,1.39,1.57,2.12,2.31c0.54,0.55,1.1,1.08,1.66,1.6
	c0.39,0.37,0.76,0.77,1.16,1.13h-681.1l43.49-43.92V723.04z"/>
<polygon class="st7" points="369.91,320.57 369.91,320.57 353.2,341.46 "/>
<path class="st7" d="M1036.67,260.16c0-23.69-19.41-43.07-43.13-43.07H763.75c-23.72,0-43.13,19.38-43.13,43.07v287.48
	c0,23.69,19.41,43.08,43.13,43.08h68.15c-2.71,6.28-4.7,13.3-6.1,20.92H214.24V180.29H743.3h350.74v431.34h-57.93
	c-1.75-12.34-5.57-23.96-11.38-34.38c7.37-7.73,11.94-18.16,11.94-29.61V260.16z M261.86,203.62c-7.44,0-13.48,6.03-13.48,13.46
	c0,7.44,6.04,13.46,13.48,13.46c7.44,0,13.48-6.03,13.48-13.46C275.34,209.65,269.31,203.62,261.86,203.62z M301.4,203.62
	c-7.44,0-13.48,6.03-13.48,13.46c0,7.44,6.03,13.46,13.48,13.46c7.44,0,13.48-6.03,13.48-13.46
	C314.87,209.65,308.84,203.62,301.4,203.62z M340.93,203.62c-7.44,0-13.48,6.03-13.48,13.46c0,7.44,6.03,13.46,13.48,13.46
	c7.45,0,13.48-6.03,13.48-13.46C354.41,209.65,348.37,203.62,340.93,203.62z M646.99,539.72L646.99,539.72l-0.21-0.38l0,0
	l-30.49-56.46l-229.68-183.2L367.2,284.2l-0.05,0.06l-19.65-15.67c-1.29-1.03-2.63-1.93-4-2.77c-0.41-0.26-0.83-0.48-1.26-0.72
	c-1-0.57-2.02-1.1-3.06-1.57c-0.44-0.21-0.89-0.41-1.34-0.6c-1.27-0.53-2.56-0.99-3.87-1.38c-0.17-0.06-0.35-0.13-0.53-0.18
	c-1.49-0.42-2.99-0.73-4.5-0.98c-0.43-0.07-0.86-0.11-1.29-0.17c-1.13-0.14-2.25-0.24-3.38-0.29c-0.47-0.02-0.95-0.04-1.42-0.05
	c-1.27-0.01-2.53,0.04-3.8,0.15c-0.26,0.02-0.53,0.02-0.79,0.05c-1.52,0.16-3.02,0.42-4.51,0.75c-0.38,0.08-0.75,0.2-1.12,0.29
	c-1.13,0.28-2.24,0.62-3.35,0.99c-0.23,0.08-0.48,0.13-0.72,0.22l0.04,0.04c-6.63,2.43-12.71,6.61-17.44,12.53
	c-9.93,12.43-11.22,28.92-4.75,42.36l-0.08-0.07c0.12,0.25,0.28,0.49,0.41,0.74c0.39,0.76,0.8,1.51,1.24,2.25
	c0.28,0.47,0.56,0.95,0.86,1.41c0.48,0.74,0.99,1.46,1.52,2.17c0.32,0.43,0.63,0.86,0.97,1.28c0.61,0.76,1.27,1.48,1.94,2.19
	c0.32,0.33,0.61,0.68,0.93,1.01c1.03,1.02,2.11,2,3.27,2.93l19.65,15.67l25.01-31.28l-25.05,31.34l19.41,15.48l229.68,183.19
	l62.29,17.33l0,0l36.51,10.16L646.99,539.72z"/>
<polygon class="st7" points="353.2,341.46 336.5,362.35 353.2,341.46 "/>
<path class="st8" d="M214.24,723.04v-8.38V611.63H825.8c-0.16,0.89-0.33,1.78-0.48,2.68c-16.37,3.2-29.33,16.88-30.86,34.3
	c-0.1,1.13-0.15,2.26-0.15,3.38c0,18.3,13.04,34.04,30.94,37.58c0.13,1.41,0.26,2.82,0.4,4.23c0.87,8.89,2.57,19.17,5.57,29.23
	h-0.03H214.24z M560.05,630.5c-20.34,0-36.83,16.47-36.83,36.79c0,20.31,16.49,36.78,36.83,36.78c20.34,0,36.83-16.47,36.83-36.78
	C596.88,646.97,580.39,630.5,560.05,630.5z M653.58,630.5c-20.34,0-36.83,16.47-36.83,36.79c0,20.31,16.49,36.78,36.83,36.78
	c20.34,0,36.83-16.47,36.83-36.78C690.41,646.97,673.92,630.5,653.58,630.5z M748.23,630.5c-20.34,0-36.83,16.47-36.83,36.79
	c0,20.31,16.49,36.78,36.83,36.78c20.34,0,36.84-16.47,36.84-36.78C785.07,646.97,768.57,630.5,748.23,630.5z"/>
<path class="st8" d="M1094.04,723.04h-80.79h-0.01c15.43-31.66,26.41-70.99,23.61-104.95c-0.18-2.17-0.43-4.32-0.74-6.45h57.93
	V723.04z"/>
<path class="st9" d="M340.93,230.55c-7.44,0-13.48-6.03-13.48-13.46c0-7.43,6.03-13.46,13.48-13.46c7.45,0,13.48,6.03,13.48,13.46
	C354.41,224.52,348.37,230.55,340.93,230.55z"/>
<path class="st9" d="M301.4,230.55c-7.44,0-13.48-6.03-13.48-13.46c0-7.43,6.03-13.46,13.48-13.46c7.44,0,13.48,6.03,13.48,13.46
	C314.87,224.52,308.84,230.55,301.4,230.55z"/>
<path class="st9" d="M261.86,230.55c-7.44,0-13.48-6.03-13.48-13.46c0-7.43,6.04-13.46,13.48-13.46c7.44,0,13.48,6.03,13.48,13.46
	C275.34,224.52,269.31,230.55,261.86,230.55z"/>
<g>
	<path class="st10" d="M748.23,704.07c20.34,0,36.83-16.47,36.83-36.78c0-20.32-16.49-36.79-36.83-36.79
		c-20.34,0-36.84,16.47-36.84,36.79C711.4,687.6,727.89,704.07,748.23,704.07z M725.15,659.69c0-3.5,2.84-6.35,6.36-6.35h22.03
		c3.51,0,6.36,2.85,6.36,6.35v2.52l7.98-7.39c0.17-0.45,0.66-0.78,1.26-0.78h0.83c0.74,0,1.34,0.49,1.34,1.11v24.27
		c0,0.62-0.6,1.12-1.34,1.12h-0.83c-0.56,0-1.04-0.28-1.24-0.68l-8.01-6.17v1.21c0,3.5-2.85,6.35-6.36,6.35h-22.03
		c-3.52,0-6.36-2.85-6.36-6.35V659.69z"/>
	<path class="st11" d="M731.51,681.24h22.03c3.51,0,6.36-2.85,6.36-6.35v-1.21l8.01,6.17c0.2,0.4,0.68,0.68,1.24,0.68h0.83
		c0.74,0,1.34-0.5,1.34-1.12v-24.27c0-0.62-0.6-1.11-1.34-1.11h-0.83c-0.61,0-1.09,0.33-1.26,0.78l-7.98,7.39v-2.52
		c0-3.5-2.85-6.35-6.36-6.35h-22.03c-3.52,0-6.36,2.85-6.36,6.35v15.2C725.15,678.39,727.99,681.24,731.51,681.24z"/>
</g>
<path class="st4" d="M653.58,704.07c-20.34,0-36.83-16.47-36.83-36.78c0-20.32,16.49-36.79,36.83-36.79
	c20.34,0,36.83,16.47,36.83,36.79C690.41,687.6,673.92,704.07,653.58,704.07z M659.83,648.59c0-3.44-2.8-6.24-6.25-6.24
	c-3.45,0-6.24,2.8-6.24,6.24v18.15c0,3.45,2.8,6.24,6.24,6.24c3.45,0,6.25-2.79,6.25-6.24V648.59z M664.98,657.67h-3.41v9.59
	c0,4.4-3.58,7.98-7.99,7.98c-4.41,0-7.99-3.58-7.99-7.98v-9.59h-3.4v9.59c0,5.69,4.22,10.39,9.69,11.22v9.85h-3.91
	c0,0-3.44,0.23-3.89,3.89h19.02c-0.46-3.66-3.9-3.89-3.9-3.89h-3.91v-9.85c5.47-0.83,9.7-5.52,9.7-11.22V657.67z"/>
<path class="st11" d="M653.58,672.98c-3.45,0-6.24-2.79-6.24-6.24v-18.15c0-3.44,2.8-6.24,6.24-6.24c3.45,0,6.25,2.8,6.25,6.24
	v18.15C659.83,670.19,657.03,672.98,653.58,672.98z"/>
<path class="st11" d="M655.28,678.48v9.85h3.91c0,0,3.44,0.23,3.9,3.89h-19.02c0.45-3.66,3.89-3.89,3.89-3.89h3.91v-9.85
	c-5.48-0.83-9.69-5.53-9.69-11.22v-9.59h3.4v9.59c0,4.4,3.58,7.98,7.99,7.98c4.41,0,7.99-3.58,7.99-7.98v-9.59h3.41v9.59
	C664.98,672.96,660.75,677.64,655.28,678.48z"/>
<path class="st12" d="M560.05,704.07c-20.34,0-36.83-16.47-36.83-36.78c0-20.32,16.49-36.79,36.83-36.79
	c20.34,0,36.83,16.47,36.83,36.79C596.88,687.6,580.39,704.07,560.05,704.07z M587.97,667.11c0,0-6.55-9.83-29.03-9.68
	c0,0-20.99-0.23-26.81,9.68c-2.18,3.47,1.49,8.6,1.49,8.6c2.08,3.27,6.73,0.59,6.73,0.59l5.54-2.37c6.23-2.57,2.37-9.68,2.37-9.68
	c6.38-1.72,11.73-1.58,11.73-1.58c8.4,0.2,11.87,1.58,11.87,1.58s-3.86,7.12,2.37,9.68l5.54,2.37c0,0,4.65,2.68,6.72-0.59
	C586.48,675.71,590.14,670.58,587.97,667.11z"/>
<path class="st11" d="M579.76,676.3l-5.54-2.37c-6.23-2.57-2.37-9.68-2.37-9.68s-3.46-1.38-11.87-1.58c0,0-5.34-0.14-11.73,1.58
	c0,0,3.86,7.12-2.37,9.68l-5.54,2.37c0,0-4.65,2.68-6.73-0.59c0,0-3.66-5.13-1.49-8.6c5.81-9.9,26.81-9.68,26.81-9.68
	c22.48-0.15,29.03,9.68,29.03,9.68c2.18,3.47-1.49,8.6-1.49,8.6C584.4,678.97,579.76,676.3,579.76,676.3z"/>
<polygon class="st13" points="628.47,562.87 629.88,561.11 646.99,539.72 646.99,539.72 664.98,573.03 628.47,562.88 "/>
<path class="st14" d="M288.86,321.57c0.48,0.74,0.99,1.46,1.52,2.17C289.85,323.03,289.33,322.31,288.86,321.57z"/>
<path class="st14" d="M286.76,317.91c0.39,0.76,0.8,1.51,1.24,2.25C287.56,319.42,287.15,318.68,286.76,317.91z"/>
<path class="st14" d="M318.28,260.07c-1.52,0.16-3.02,0.42-4.51,0.75C315.26,260.49,316.77,260.23,318.28,260.07z"/>
<path class="st14" d="M312.65,261.11c-1.13,0.28-2.24,0.62-3.35,0.99C310.41,261.73,311.52,261.4,312.65,261.11z"/>
<path class="st14" d="M347.51,268.59c-1.29-1.03-2.63-1.93-4-2.77C344.89,266.66,346.22,267.56,347.51,268.59z"/>
<path class="st14" d="M322.87,259.87c-1.27-0.01-2.53,0.04-3.8,0.15C320.34,259.91,321.6,259.86,322.87,259.87z"/>
<path class="st14" d="M333.46,261.36c-1.49-0.42-2.99-0.73-4.5-0.98C330.47,260.63,331.97,260.94,333.46,261.36z"/>
<path class="st14" d="M342.26,265.1c-1-0.57-2.02-1.1-3.06-1.57C340.24,264,341.26,264.52,342.26,265.1z"/>
<path class="st14" d="M337.86,262.92c-1.27-0.53-2.56-0.99-3.87-1.38C335.3,261.93,336.59,262.39,337.86,262.92z"/>
<path class="st14" d="M327.67,260.21c-1.12-0.14-2.25-0.24-3.38-0.29C325.42,259.97,326.54,260.07,327.67,260.21z"/>
<path class="st14" d="M291.35,325.02c0.61,0.76,1.27,1.48,1.94,2.19C292.62,326.49,291.96,325.78,291.35,325.02z"/>
<path class="st14" d="M294.23,328.22c1.03,1.02,2.11,2,3.27,2.93C296.33,330.22,295.25,329.24,294.23,328.22z"/>
<g>
	<polygon class="st0" points="582.88,524.66 566.18,545.55 336.5,362.35 353.2,341.46 	"/>
	<g>
		<polygon class="st15" points="353.2,341.46 369.91,320.57 599.58,503.77 583.39,524.02 583.39,524.02 582.88,524.66 		"/>
		<polygon class="st16" points="583.39,524.02 629.88,561.11 628.47,562.87 566.18,545.55 582.88,524.66 		"/>
		<polygon class="st0" points="583.39,524.02 583.39,524.02 599.58,503.77 369.91,320.57 369.91,320.57 353.2,341.46 353.2,341.46 
			336.5,362.35 317.09,346.87 342.15,315.54 367.16,284.26 367.16,284.26 367.2,284.2 386.61,299.68 616.29,482.88 600.6,502.5 
			646.78,539.33 646.99,539.72 629.88,561.11 		"/>
		<polygon class="st16" points="616.29,482.88 646.78,539.34 646.78,539.33 600.6,502.5 		"/>
		<path class="st15" d="M305.25,332.25l-18.81-15.01c-6.47-13.43-5.19-29.93,4.75-42.36c4.73-5.92,10.81-10.09,17.44-12.53
			l32.06,25.57L305.25,332.25z"/>
		<path class="st17" d="M367.16,284.26l-25.01,31.28l-25.01,31.28l-19.65-15.67c-1.16-0.92-2.24-1.91-3.27-2.93
			c-0.33-0.33-0.62-0.68-0.93-1.01c-0.67-0.72-1.33-1.43-1.94-2.19c-0.34-0.41-0.64-0.85-0.97-1.28c-0.53-0.71-1.05-1.43-1.52-2.17
			c-0.3-0.46-0.58-0.94-0.86-1.41c-0.43-0.74-0.85-1.49-1.24-2.25c-0.13-0.25-0.28-0.49-0.41-0.74l0.08,0.07l18.81,15.01
			l35.43-44.32l-32.06-25.57l-0.04-0.04c0.24-0.09,0.49-0.13,0.72-0.22c1.1-0.38,2.22-0.71,3.35-0.99c0.37-0.1,0.74-0.21,1.12-0.29
			c1.49-0.33,3-0.59,4.51-0.75c0.26-0.03,0.53-0.03,0.79-0.05c1.26-0.11,2.53-0.16,3.8-0.15c0.47,0.01,0.95,0.03,1.42,0.05
			c1.13,0.05,2.26,0.15,3.38,0.29c0.43,0.06,0.86,0.1,1.29,0.17c1.51,0.24,3.01,0.56,4.5,0.98c0.18,0.05,0.35,0.12,0.53,0.18
			c1.31,0.39,2.6,0.85,3.87,1.38c0.45,0.19,0.89,0.4,1.34,0.6c1.04,0.48,2.06,1,3.06,1.57c0.42,0.24,0.84,0.46,1.26,0.72
			c1.37,0.84,2.71,1.75,4,2.77L367.16,284.26L367.16,284.26z"/>
	</g>
</g>
<path class="st18" d="M818.35,351.36c7.45-0.84,14.63,2.59,17.18,9.2c1.35,3.5,1.71,7.26,0.89,10.32c-0.89,3.34-2.06,5.63-5.22,7.21
	c-7.8,3.91-17.47-1.48-23.27-6.92c-3.02-2.83-5.58-6.11-7.74-9.65C804.72,356.01,811.6,352.11,818.35,351.36z"/>
<path class="st18" d="M763.75,590.71c-23.72,0-43.13-19.39-43.13-43.08V260.16c0-23.69,19.41-43.07,43.13-43.07h229.79
	c23.72,0,43.13,19.38,43.13,43.07v287.48c0,11.46-4.56,21.88-11.94,29.61c-8.05-14.45-19.93-26.57-35.56-34.87
	c-24.51-13.01-51.12-12.49-77.76-17.18c-9.55-1.68-17.73-5.16-26.89-7.95c-14.51-4.41-36.59-8.38-51.42-4.51
	c-22.85,5.94-31.76,31.56-22.35,52.11c4.51,9.85,13.13,16.53,23.47,20.96c-0.83,1.57-1.6,3.22-2.33,4.9H763.75z M904.61,473.8
	c0,11.35,9.29,20.63,20.66,20.63h67.75c11.36,0,20.66-9.28,20.66-20.63v-67.67c0-11.35-9.3-20.63-20.66-20.63h-67.75
	c-11.36,0-20.66,9.28-20.66,20.63V473.8z M902.61,348.14c0,11.35,9.3,20.63,20.66,20.63h67.75c11.36,0,20.66-9.29,20.66-20.63
	v-67.67c0-11.35-9.29-20.63-20.66-20.63h-67.75c-11.36,0-20.66,9.29-20.66,20.63V348.14z M841.07,467.17
	c4.56,1.74,9.86-1.94,11.05-6.27c1.38-5-1.75-9.31-6.28-11.04c-23.34-8.92-43.83-29.19-50.44-53.58c-1.25-4.59-1.94-9.48-1.89-14.32
	c4.98,5.16,10.84,9.43,17.6,12.24c13.59,5.65,30.01,3.38,38.66-9.44c7.12-10.56,6.39-25.81-0.38-36.35
	c-7.78-12.11-21.94-16.66-35.74-14.38c-7.45,1.23-14.62,4.68-20.62,9.52c-0.19-0.8-0.39-1.59-0.54-2.39
	c-4.18-21.43,5.2-44.53,22.8-57.39c3.93-2.87,5.89-7.73,3.22-12.28c-2.27-3.88-8.37-6.08-12.29-3.22
	c-29.22,21.35-40.23,59.07-26.33,92.52c-5.72,13.28-5.35,28.72-1.19,42.4C787.76,433.01,812.39,456.21,841.07,467.17z"/>
<polygon class="st19" points="1018.72,843.91 983.3,832.32 1018.78,843.86 "/>
<path class="st19" d="M1022.47,845.06l29.93,9.74c-0.03,0.03-0.06,0.08-0.1,0.11l-29.85-9.78
	C1022.46,845.11,1022.46,845.09,1022.47,845.06z"/>
<path class="st19" d="M870.24,788.96c15.63,0,46.33-11.01,71.71-36.66l2.84-9.32c-20.78,18.32-45.07,32.61-74.55,25.18
	c-0.26-0.06-0.52-0.11-0.78-0.18c-6.82-1.81-12.56-5.13-17.49-9.4c-0.43-0.37-0.87-0.74-1.29-1.13c-0.57-0.52-1.12-1.05-1.66-1.6
	c-0.73-0.74-1.44-1.52-2.12-2.31c-0.5-0.57-1-1.13-1.47-1.72c-0.69-0.86-1.34-1.75-1.98-2.65c-0.42-0.58-0.85-1.15-1.24-1.74
	c-0.69-1.03-1.34-2.11-1.98-3.19c-0.3-0.5-0.62-0.98-0.9-1.49c-0.89-1.6-1.74-3.23-2.53-4.9c-0.18-0.39-0.34-0.78-0.51-1.17
	c-0.6-1.32-1.18-2.63-1.72-3.98c-0.27-0.67-0.51-1.35-0.77-2.03c-0.41-1.09-0.82-2.17-1.19-3.27c-0.26-0.75-0.49-1.5-0.73-2.26
	c-0.22-0.69-0.43-1.39-0.64-2.09c-3-10.07-4.7-20.34-5.57-29.23c-0.14-1.42-0.26-2.82-0.4-4.23c1.36,0.27,2.73,0.48,4.14,0.6
	c1.13,0.1,2.27,0.15,3.39,0.15c8.17,0,15.81-2.62,22.11-7.07c0.06,1.23,0.52,2.33,1.21,3.34c0.73,1.06,1.71,2.03,2.86,2.95
	c2.3,1.83,5.31,3.41,8.57,4.45c0.97,0.31,2-0.22,2.31-1.19c0.31-0.97-0.22-2-1.19-2.3c-4.27-1.33-8.17-3.96-9.52-5.99
	c-0.46-0.66-0.61-1.19-0.6-1.46l0.12-0.44c0.1-0.16,0.3-0.37,0.7-0.63c0.93-0.58,2.91-1.28,4.98-2.01c2.08-0.76,4.29-1.58,6.04-2.89
	c1.15-0.86,2.21-2.07,2.47-3.72c0.16-1.07,0.26-2.36,0.26-3.81c0-3.38-0.6-7.75-2.18-12.41l8.16,0.71
	c-0.02,0.52-0.07,1.04-0.07,1.55c0,19.69,15.07,36.42,35.06,38.17c1.13,0.1,2.27,0.15,3.39,0.15c14.14,0,26.73-7.77,33.38-19.53
	c0.12,0.43,0.2,0.81,0.25,1.14c0-0.55,0.02-1.1,0.04-1.65c2.45-4.5,4.07-9.55,4.54-14.98l0,0c0.07-0.74,0.08-1.47,0.1-2.2
	c0.03-0.06,0.06-0.11,0.09-0.17l2.59,0.45c1,0.17,1.95-0.49,2.13-1.5c0.17-1-0.5-1.95-1.5-2.12l-1.11-0.2
	c4.66-6.57,11.4-11.21,19.41-12.48c17.44-2.77,34.19,11.38,37.41,31.6c3.22,20.22-8.32,38.86-25.76,41.63
	c-9.13,1.45-18.05-1.77-24.95-8.03c-0.33,0.99-0.65,1.97-1.04,3.02c-1.56,4.24-1.79,8.96-1.08,13.82c-0.06,0.07-0.13,0.13-0.19,0.2
	c-0.54,0.55-1.09,1.1-1.63,1.64h2.16c2.58,13.36,11.92,27.45,21.01,35.22v38.04v30.68l-86.17,115.73l-26.89-115.73v-30.68V788.96z
	 M886.9,708.89c-0.62-0.8-1.78-0.95-2.58-0.33c-2.52,1.97-6.18,2.96-10,2.95c-4.64,0.01-9.47-1.47-12.56-3.87
	c-0.8-0.62-1.96-0.47-2.57,0.33c-0.62,0.81-0.47,1.96,0.33,2.58c3.95,3.01,9.42,4.61,14.8,4.63c4.43-0.01,8.85-1.1,12.25-3.72
	C887.37,710.85,887.52,709.69,886.9,708.89z M951.11,680.31C951.11,680.3,951.11,680.3,951.11,680.31c0-0.03,0-0.05,0-0.06
	C951.11,680.26,951.12,680.29,951.11,680.31z M994.57,699.21c0.66,0.77,1.81,0.87,2.59,0.22c6.27-5.26,8.99-12.33,8.98-19.08
	c-0.01-5.97-2.08-11.73-5.66-16.08c-3.57-4.34-8.75-7.27-14.78-7.27c-4.11-0.01-8.53,1.36-13,4.35c-0.84,0.56-1.07,1.71-0.51,2.55
	c0.56,0.84,1.71,1.07,2.55,0.5c3.98-2.66,7.67-3.73,10.96-3.73c4.8,0.01,8.92,2.29,11.94,5.93c3.01,3.64,4.82,8.63,4.82,13.74
	c-0.01,5.8-2.27,11.7-7.68,16.27C994.01,697.27,993.91,698.43,994.57,699.21z M987.41,690.04c0.5,0,1-0.03,1.5-0.11
	c1-0.15,1.69-1.1,1.53-2.09c-0.15-1-1.09-1.69-2.1-1.53c-0.3,0.04-0.61,0.07-0.93,0.07c-1.98,0.04-4.5-0.96-6.35-2.08
	c0-0.01,0.01-0.03,0.02-0.04c0.55-1.94,1.79-4.08,3.35-5.63c1.57-1.57,3.37-2.49,5.02-2.48l0.73,0.06c1,0.16,1.94-0.52,2.11-1.52
	c0.16-1-0.52-1.94-1.53-2.1c-0.44-0.07-0.88-0.11-1.32-0.11c-2.99,0.01-5.6,1.54-7.62,3.56c-1.61,1.62-2.87,3.59-3.71,5.63
	c-0.5-0.68-0.98-1.48-1.38-2.34c-0.72-1.52-1.17-3.2-1.16-4.42l0.07-0.81c0.19-0.99-0.47-1.96-1.46-2.14
	c-1-0.19-1.96,0.47-2.15,1.46c-0.09,0.49-0.13,0.99-0.13,1.49c0.01,2.02,0.62,4.09,1.51,5.98c0.9,1.9,2.06,3.61,3.41,4.84
	C979.14,687.75,983.2,689.98,987.41,690.04z"/>
<path class="st20" d="M944.79,742.98l-2.84,9.32c-25.38,25.65-56.07,36.66-71.71,36.66v-20.8
	C899.72,775.59,924.02,761.3,944.79,742.98z"/>
<path class="st19" d="M869.21,672.8c-0.05,0.26-0.18,0.55-0.58,0.95c-0.39,0.39-1.04,0.82-1.83,1.22c-1.39,0.72-3.22,1.36-4.99,2
	c3.12-3.61,5.57-7.82,7.18-12.46c0.29,1.85,0.44,3.58,0.44,5.04C869.43,670.84,869.34,671.95,869.21,672.8z"/>
<path class="st19" d="M917.38,620.99c-9.84,0-18.95,3.75-25.82,10c-1.23,0.23-2.41,0.52-3.49,0.94c-4.69,1.84-4.87,4.59-2.93,6.66
	c-2.96,4.59-4.96,9.87-5.73,15.6l-8.33-0.73c0.02-0.51,0.07-1.04,0.07-1.55c0-5.31-1.13-10.39-3.13-15.04
	c0.17-0.09,0.35-0.16,0.52-0.26c2.08-1.3-1.82-6.62-2.81-7.45c-0.94-0.78-2.11-1.21-3.32-1.52c-6.33-7.7-15.6-12.97-26.31-13.91
	c-1.14-0.1-2.27-0.15-3.4-0.15c-2.51,0-4.97,0.25-7.36,0.72c0.15-0.9,0.31-1.79,0.48-2.68c1.4-7.62,3.39-14.64,6.1-20.92
	c0.73-1.68,1.49-3.33,2.33-4.9c18.32,7.86,42.11,8.61,58.44,7.05c22.87-2.2,30.69-1.22,38.46,21.05c1.28,3.66,2.29,7.32,3.18,11
	c-4.13-2.02-8.68-3.34-13.54-3.77C919.63,621.03,918.5,620.99,917.38,620.99z"/>
<path class="st21" d="M861.81,676.97c1.76-0.64,3.59-1.27,4.99-2c0.8-0.4,1.44-0.83,1.83-1.22c0.4-0.4,0.53-0.69,0.58-0.95
	c0.13-0.85,0.22-1.96,0.22-3.25c0-1.47-0.15-3.2-0.44-5.04c0.82-2.36,1.41-4.83,1.76-7.39l0.17,0.02c1.58,4.66,2.18,9.03,2.18,12.41
	c0,1.45-0.1,2.74-0.26,3.81c-0.26,1.66-1.32,2.86-2.47,3.72c-1.76,1.3-3.96,2.12-6.04,2.89c-2.07,0.73-4.04,1.42-4.98,2.01
	c-0.4,0.25-0.6,0.47-0.7,0.63l-0.12,0.44c-0.01,0.27,0.14,0.8,0.6,1.46c1.35,2.03,5.25,4.66,9.52,5.99c0.97,0.31,1.5,1.34,1.19,2.3
	c-0.31,0.97-1.35,1.5-2.31,1.19c-3.26-1.04-6.27-2.63-8.57-4.45c-1.15-0.91-2.12-1.89-2.86-2.95c-0.68-1-1.15-2.11-1.21-3.34
	C857.44,681.44,859.77,679.34,861.81,676.97z"/>
<path class="st22" d="M962.29,728.39c-0.11-0.55-0.24-1.11-0.32-1.66c-0.01-0.06-0.01-0.12-0.02-0.18
	c-0.71-4.86-0.48-9.59,1.08-13.82c0.39-1.05,0.71-2.03,1.04-3.02c6.91,6.26,15.83,9.47,24.95,8.03
	c17.44-2.77,28.98-21.41,25.76-41.63c-3.22-20.23-19.97-34.38-37.41-31.6c-8.01,1.27-14.75,5.9-19.41,12.48l-2.27-0.4
	c-0.98-13.76-9.31-25.75-21.38-31.66c-0.89-3.68-1.9-7.34-3.18-11c-7.77-22.27-15.59-23.24-38.46-21.05
	c-16.34,1.57-40.12,0.81-58.44-7.05c-10.34-4.44-18.95-11.11-23.47-20.96c-9.42-20.55-0.5-46.17,22.35-52.11
	c14.83-3.86,36.91,0.1,51.42,4.51c9.17,2.79,17.34,6.28,26.89,7.95c26.63,4.69,53.25,4.17,77.76,17.18
	c15.63,8.3,27.5,20.41,35.56,34.87c5.81,10.42,9.63,22.05,11.38,34.38c0.3,2.13,0.56,4.28,0.74,6.45
	c2.81,33.96-8.18,73.3-23.61,104.95c-0.08,0.16-0.15,0.32-0.23,0.48c-0.54,1.1-1.09,2.2-1.65,3.28c-0.25,0.5-0.5,1-0.76,1.5
	c-1.63,3.16-3.3,6.22-5.01,9.19c-0.24,0.43-0.5,0.84-0.74,1.26c-0.62,1.05-1.23,2.1-1.86,3.13c-0.29,0.47-0.58,0.94-0.87,1.41
	c-0.59,0.95-1.17,1.89-1.76,2.81c-0.31,0.48-0.62,0.95-0.93,1.43c-0.58,0.88-1.16,1.76-1.74,2.62c-0.32,0.47-0.64,0.93-0.95,1.39
	c-0.59,0.85-1.18,1.68-1.77,2.51c-0.31,0.43-0.62,0.87-0.93,1.29c-0.61,0.83-1.22,1.64-1.83,2.44c-0.21,0.26-0.41,0.53-0.61,0.8
	c-1.93,2.5-3.87,4.85-5.81,7c-0.82-0.6-1.65-1.26-2.49-1.98C974.21,755.83,964.87,741.75,962.29,728.39z"/>
<path class="st22" d="M951.11,680.31c0.01-0.01,0-0.05,0-0.06c0,0.01,0,0.03,0,0.05C951.11,680.29,951.11,680.3,951.11,680.31z"/>
<path class="st22" d="M955.86,660.33c-0.03,0.06-0.06,0.11-0.09,0.17c0-0.06,0.01-0.12,0.01-0.18L955.86,660.33z"/>
<path class="st22" d="M951.09,679.32c-0.05-0.33-0.13-0.7-0.25-1.14c0.1-0.17,0.19-0.35,0.29-0.51
	C951.11,678.22,951.09,678.77,951.09,679.32z"/>
<path class="st21" d="M1002.46,680.35c0.01-5.11-1.81-10.1-4.82-13.74c-3.02-3.65-7.14-5.92-11.94-5.93
	c-3.29,0-6.98,1.07-10.96,3.73c-0.84,0.56-1.99,0.34-2.55-0.5c-0.57-0.84-0.34-1.98,0.51-2.55c4.47-2.99,8.89-4.35,13-4.35
	c6.02-0.01,11.21,2.93,14.78,7.27c3.58,4.35,5.65,10.11,5.66,16.08c0.01,6.75-2.72,13.81-8.98,19.08c-0.78,0.65-1.94,0.55-2.59-0.22
	c-0.65-0.78-0.55-1.93,0.22-2.59C1000.2,692.05,1002.45,686.15,1002.46,680.35z"/>
<path class="st21" d="M973.4,680.88c-0.88-1.89-1.5-3.96-1.51-5.98c0-0.5,0.04-1,0.13-1.49c0.19-0.99,1.15-1.65,2.15-1.46
	c1,0.19,1.65,1.15,1.46,2.14l-0.07,0.81c-0.01,1.23,0.44,2.9,1.16,4.42c0.4,0.86,0.88,1.66,1.38,2.34c0.84-2.04,2.1-4.01,3.71-5.63
	c2.02-2.01,4.63-3.54,7.62-3.56c0.44,0,0.88,0.04,1.32,0.11c1,0.16,1.69,1.1,1.53,2.1c-0.16,1-1.11,1.68-2.11,1.52l-0.73-0.06
	c-1.65-0.01-3.45,0.91-5.02,2.48c-1.56,1.55-2.8,3.69-3.35,5.63c-0.01,0.01-0.01,0.02-0.02,0.04c1.85,1.12,4.36,2.12,6.35,2.08
	c0.32,0,0.64-0.03,0.93-0.07c1-0.16,1.94,0.53,2.1,1.53c0.16,1-0.53,1.94-1.53,2.09c-0.5,0.08-1,0.11-1.5,0.11
	c-4.21-0.06-8.27-2.28-10.59-4.32C975.47,684.48,974.3,682.77,973.4,680.88z"/>
<path class="st22" d="M888.08,631.93c1.07-0.42,2.26-0.71,3.49-0.94c-2.46,2.23-4.61,4.79-6.42,7.6
	C883.21,636.52,883.39,633.78,888.08,631.93z"/>
<path class="st22" d="M868.53,636.62c-0.17,0.1-0.35,0.17-0.52,0.26c-1.44-3.34-3.33-6.44-5.62-9.23c1.21,0.32,2.38,0.75,3.32,1.52
	C866.71,630,870.61,635.32,868.53,636.62z"/>
<path class="st21" d="M874.32,715.18c-5.39-0.01-10.86-1.62-14.8-4.63c-0.8-0.62-0.95-1.77-0.33-2.58c0.62-0.8,1.77-0.95,2.57-0.33
	c3.09,2.4,7.92,3.88,12.56,3.87c3.82,0.01,7.48-0.98,10-2.95c0.8-0.62,1.96-0.47,2.58,0.33c0.62,0.8,0.48,1.96-0.33,2.58
	C883.17,714.09,878.75,715.18,874.32,715.18z"/>
<path class="st23" d="M882.69,659.4c0-1.01,0.05-2.03,0.13-3.06c0.51-5.82,2.45-11.16,5.41-15.74c0.88,0.36,1.81,0.65,2.82,0.79
	c5.84,0.78,11.54,0.98,17.49,2.19c3.51,0.71,7.55,1.6,11.49,1.6c2.4,0,4.76-0.33,6.95-1.23c2.49-1.02-0.88-6.81-1.82-7.75
	c-2.38-2.36-6.61-2.88-9.72-3.47c-4.89-0.92-11.29-2.11-17.26-2.21c5.54-3.7,12.16-5.85,19.21-5.85c1.02,0,2.03,0.04,3.06,0.13
	c5.48,0.48,10.55,2.22,14.96,4.9c1.5,6.93,2.72,13.93,4.41,21.06c0.72,3.06,6.29,14.81,9.35,22.61
	c-5.44,12.31-17.74,20.69-31.7,20.69c-1.01,0-2.04-0.04-3.07-0.13C896.32,692.34,882.69,677.19,882.69,659.4z M917.98,659.49
	c0.41,0,0.82-0.14,1.17-0.42c0.79-0.64,0.89-1.8,0.25-2.58c-3.57-4.28-9.25-6.09-14.42-6.1c-3.28,0.01-6.41,0.73-8.84,2.29v0
	c-0.85,0.55-1.09,1.69-0.54,2.54c0.35,0.54,0.94,0.83,1.54,0.83c0.34,0,0.69-0.1,1-0.3c1.57-1.03,4.05-1.69,6.74-1.7
	c-2.3,1.19-3.59,4.69-2.98,8.53c0.66,4.15,3.33,7.23,6.11,7.23c0.19,0,0.39-0.01,0.58-0.04c3-0.48,4.85-4.47,4.14-8.91
	c-0.44-2.77-1.77-5.07-3.44-6.29c2.88,0.71,5.55,2.14,7.26,4.25C916.92,659.26,917.45,659.49,917.98,659.49z"/>
<path class="st24" d="M939.81,650.75c-1.69-7.13-2.91-14.13-4.41-21.06c10.12,6.14,16.75,17.23,16.75,29.62
	c0,1.01-0.04,2.03-0.14,3.07c-0.34,3.9-1.35,7.59-2.85,10.98C946.11,665.56,940.53,653.8,939.81,650.75z"/>
<path class="st25" d="M909.3,654.57c1.67,1.22,3,3.52,3.44,6.29c0.71,4.44-1.15,8.43-4.14,8.91c-0.19,0.03-0.39,0.04-0.58,0.04
	c-2.79,0-5.45-3.08-6.11-7.23c-0.61-3.84,0.68-7.34,2.98-8.53c-2.69,0.01-5.17,0.66-6.74,1.7c-0.31,0.2-0.66,0.3-1,0.3
	c-0.6,0-1.19-0.3-1.54-0.83c-0.55-0.85-0.31-1.99,0.54-2.54v0c2.43-1.56,5.56-2.28,8.84-2.29c5.17,0.01,10.85,1.82,14.42,6.1
	c0.65,0.78,0.54,1.94-0.25,2.58c-0.34,0.28-0.75,0.42-1.17,0.42c-0.53,0-1.06-0.23-1.42-0.67
	C914.85,656.71,912.18,655.29,909.3,654.57z"/>
<path class="st24" d="M915.43,632.72c3.11,0.59,7.34,1.11,9.72,3.47c0.95,0.94,4.31,6.73,1.82,7.75c-2.19,0.89-4.55,1.23-6.95,1.23
	c-3.94,0-7.97-0.89-11.49-1.6c-5.95-1.21-11.65-1.41-17.49-2.19c-1.01-0.14-1.94-0.43-2.82-0.79c2.59-4.02,6-7.44,9.95-10.08
	C904.14,630.61,910.55,631.8,915.43,632.72z"/>
<path class="st26" d="M797.99,651.99c0-1.01,0.04-2.03,0.13-3.06c1.34-15.3,12.45-27.38,26.64-30.72c-2.7,19.85-1.98,43.1,0.15,67.5
	C809.28,682.13,797.99,668.17,797.99,651.99z"/>
<path class="st23" d="M824.77,618.22c2.56-0.6,5.2-0.95,7.92-0.95c1.02,0,2.04,0.04,3.07,0.13c8.19,0.72,15.44,4.23,20.95,9.49
	c-0.08-0.01-0.16-0.01-0.24-0.02c-2.92-0.22-6.42-0.49-9.99-0.49c-5.38,0-10.89,0.61-14.69,2.9c-6.52,3.92-1.55,8.87,4.1,8.97
	c0.55,0.01,1.11,0.02,1.66,0.02c1.42,0,2.83-0.03,4.23-0.06c1.42-0.03,2.84-0.05,4.28-0.05c1.92,0,3.87,0.05,5.86,0.23
	c2.2,0.2,4.62,0.45,7.05,0.45c1.91,0,3.82-0.15,5.62-0.6c1.83,4.22,2.86,8.85,2.86,13.68c0,0.76-0.05,1.53-0.1,2.3
	c-0.64,0.49-0.92,1.34-0.61,2.12c0.12,0.28,0.17,0.54,0.28,0.82c-2.57,16.95-17.18,29.48-34.25,29.48c-1.02,0-2.04-0.04-3.07-0.13
	c-1.64-0.14-3.23-0.43-4.79-0.79C822.79,661.32,822.07,638.07,824.77,618.22z M843.33,659.64c0.66,4.15,3.33,7.24,6.11,7.24
	c0.2,0,0.4-0.02,0.59-0.05c2.98-0.47,4.84-4.45,4.13-8.9c-0.66-4.15-3.32-7.24-6.11-7.24c-0.2,0-0.39,0.01-0.59,0.04
	C844.48,651.21,842.62,655.2,843.33,659.64z M843.3,649.78c0.34,0.6,0.96,0.93,1.6,0.93c0.31,0,0.62-0.08,0.91-0.24
	c0.36-0.22,1.56-0.57,2.94-0.57c0.03,0,0.05,0,0.08,0c0.01,0,0.01,0,0.02,0c1.47,0,3.15,0.33,4.67,1.18
	c1.53,0.87,2.93,2.23,3.93,4.52c0.3,0.69,0.97,1.11,1.69,1.11c0.24,0,0.49-0.05,0.73-0.15c0.93-0.4,1.36-1.49,0.95-2.41
	c-1.29-2.99-3.32-5.04-5.5-6.25c-2.19-1.22-4.5-1.66-6.49-1.66c-1.96,0.02-3.59,0.37-4.84,1.06
	C843.1,647.78,842.8,648.9,843.3,649.78z"/>
<path class="st25" d="M847.47,650.74c0.2-0.03,0.39-0.04,0.59-0.04c2.78,0,5.45,3.09,6.11,7.24c0.71,4.45-1.15,8.43-4.13,8.9
	c-0.2,0.03-0.4,0.05-0.59,0.05c-2.79,0-5.45-3.09-6.11-7.24C842.62,655.2,844.48,651.21,847.47,650.74z"/>
<path class="st25" d="M867.36,654.22c-0.02,0.25-0.01,0.5-0.03,0.76c-0.06,0.74-0.19,1.46-0.3,2.19c-0.1-0.28-0.16-0.54-0.28-0.82
	C866.44,655.56,866.72,654.72,867.36,654.22z"/>
<path class="st25" d="M843.99,647.28c1.25-0.69,2.88-1.04,4.84-1.06c2,0,4.31,0.44,6.49,1.66c2.18,1.22,4.21,3.26,5.5,6.25
	c0.41,0.92-0.02,2.01-0.95,2.41c-0.24,0.11-0.49,0.15-0.73,0.15c-0.71,0-1.39-0.41-1.69-1.11c-1-2.28-2.41-3.65-3.93-4.52
	c-1.52-0.85-3.21-1.18-4.67-1.18c-0.01,0-0.02,0-0.02,0c-0.03,0-0.05,0-0.08,0c-1.38,0-2.57,0.35-2.94,0.57
	c-0.29,0.17-0.6,0.24-0.91,0.24c-0.64,0-1.26-0.33-1.6-0.93C842.8,648.9,843.1,647.78,843.99,647.28z"/>
<path class="st24" d="M858.98,638.84c-2.43,0-4.85-0.25-7.05-0.45c-1.99-0.18-3.94-0.23-5.86-0.23c-1.44,0-2.86,0.03-4.28,0.05
	c-1.41,0.03-2.81,0.06-4.23,0.06c-0.55,0-1.11-0.01-1.66-0.02c-5.65-0.1-10.62-5.05-4.1-8.97c3.8-2.29,9.31-2.9,14.69-2.9
	c3.56,0,7.07,0.27,9.99,0.49c0.08,0,0.16,0.01,0.24,0.02c3.35,3.2,6.04,7.06,7.89,11.34C862.79,638.69,860.88,638.84,858.98,638.84z
	"/>
<path class="st27" d="M794.32,651.99c0-1.12,0.05-2.25,0.15-3.38c1.53-17.42,14.49-31.1,30.86-34.3c2.39-0.46,4.85-0.72,7.36-0.72
	c1.12,0,2.26,0.04,3.4,0.15c10.72,0.94,19.99,6.21,26.31,13.91c2.29,2.79,4.19,5.89,5.62,9.23c2,4.65,3.13,9.73,3.13,15.04
	c0,0.51-0.05,1.03-0.07,1.55l8.33,0.73c0.78-5.73,2.77-11.01,5.73-15.6c1.81-2.81,3.97-5.37,6.42-7.6c6.87-6.25,15.98-10,25.82-10
	c1.12,0,2.25,0.04,3.39,0.15c4.86,0.43,9.41,1.75,13.54,3.77c12.07,5.91,20.4,17.9,21.38,31.66l2.27,0.4l1.11,0.2
	c1,0.17,1.67,1.12,1.5,2.12c-0.18,1-1.13,1.67-2.13,1.5l-2.59-0.45l-0.08-0.01c0,0.06-0.01,0.12-0.01,0.18
	c-0.02,0.73-0.03,1.46-0.1,2.2l0,0c-0.48,5.43-2.09,10.47-4.54,14.98c-0.09,0.17-0.19,0.34-0.29,0.51
	c-6.65,11.75-19.24,19.53-33.38,19.53c-1.12,0-2.25-0.05-3.39-0.15c-19.99-1.75-35.06-18.49-35.06-38.17c0-0.51,0.04-1.03,0.07-1.55
	l-8.16-0.71l-0.17-0.02c-0.35,2.56-0.94,5.03-1.76,7.39c-1.61,4.64-4.06,8.85-7.18,12.46c-2.05,2.37-4.37,4.47-6.92,6.28
	c-6.29,4.45-13.94,7.07-22.11,7.07c-1.12,0-2.25-0.05-3.39-0.15c-1.41-0.12-2.78-0.33-4.14-0.6
	C807.35,686.04,794.32,670.3,794.32,651.99z M824.92,685.72c1.56,0.36,3.15,0.65,4.79,0.79c1.03,0.09,2.06,0.13,3.07,0.13
	c17.07,0,31.69-12.53,34.25-29.48c0.11-0.73,0.23-1.45,0.3-2.19c0.02-0.26,0.01-0.51,0.03-0.76c0.05-0.77,0.1-1.54,0.1-2.3
	c0-4.83-1.04-9.46-2.86-13.68c-1.85-4.28-4.54-8.14-7.89-11.34c-5.51-5.27-12.76-8.78-20.95-9.49c-1.03-0.09-2.05-0.13-3.07-0.13
	c-2.72,0-5.36,0.35-7.92,0.95c-14.19,3.34-25.3,15.42-26.64,30.72c-0.09,1.02-0.13,2.04-0.13,3.06
	C797.99,668.17,809.28,682.13,824.92,685.72z M949.16,673.36c1.5-3.39,2.51-7.07,2.85-10.98c0.09-1.04,0.14-2.06,0.14-3.07
	c0-12.39-6.62-23.48-16.75-29.62c-4.41-2.67-9.47-4.42-14.96-4.9c-1.02-0.09-2.04-0.13-3.06-0.13c-7.05,0-13.67,2.16-19.21,5.85
	c-3.95,2.64-7.35,6.05-9.95,10.08c-2.96,4.59-4.9,9.93-5.41,15.74c-0.09,1.03-0.13,2.05-0.13,3.06c0,17.79,13.63,32.94,31.7,34.51
	c1.03,0.09,2.06,0.13,3.07,0.13C931.42,694.05,943.72,685.67,949.16,673.36z"/>
<path class="st8" d="M869.83,1184.11c-0.15,0-0.28,0.05-0.42,0.08l0.28-230.77c0.32-0.1,0.63-0.26,0.86-0.54
	c0.65-0.78,0.54-1.93-0.24-2.59l-0.62-0.52l0.14-117.32l-45.09,15.79l0,0l45.51-15.94l26.89,115.73l86.17-115.73l35.42,11.6l0,0
	l-31.28-10.24L950.1,949.09l-1.77,1.03c-0.88,0.51-1.17,1.63-0.66,2.51c0.34,0.58,0.96,0.88,1.59,0.88v61.13l-20.92-2.62
	l-14.84,118.04c-0.36,0.32-0.73,0.64-1.1,0.95c0,0-50.19,20.88-9.3,37.33c-30.99,2.18-22.69,27.99-6.12,32.39
	c-30.33,11.68-16.46,32.89-3.35,39.07c-19.07,7.8-12.74,21.26,2.23,30.62l-9.74,77.55l63.15,7.92v59.6h-77.59v-229.54
	C871.66,1184.93,870.84,1184.11,869.83,1184.11z"/>
<polygon class="st11" points="821.28,849.46 742.46,877.06 814.43,851.86 821.28,849.46 "/>
<rect x="1037.37" y="834.32" class="st11" width="0" height="31.41"/>
<path class="st6" d="M971.9,887.15c0.08,0.6,0.46,1.12,1,1.39l43.95,21.68l-66.76,38.88l37.34-115.42l31.28,10.24l-46.22,41.62
	C972.04,885.94,971.82,886.55,971.9,887.15z"/>
<path class="st6" d="M810.41,900.45L839,881.33c0.76-0.51,1.03-1.5,0.63-2.32l-14.89-30.75l45.09-15.79l-0.14,117.32L810.41,900.45z
	"/>
<path class="st19" d="M688.26,1242.69c-0.13,0.38-0.26,0.74-0.38,1.12l0.32,0.21l-1.42,3.03c-34.06,97.02-103.06,61.26-103.06,61.26
	l-279.29-177.14c-5.28,0.46-25.96-13.94-31.87-16.69c-32.32-15.05-54.3-33.94-77.86-60.74c-18.02-20.49-36.13-42.61-45.98-68.38
	c-1.86-4.87-3.61-10.9-4.86-17.18c3.5,8.42,8.35,16.26,12.31,21.85c10.42,14.66,24.14,33.71,38.76,44.66
	c0.82,0.61,1.97,0.44,2.57-0.37c0.61-0.81,0.44-1.96-0.37-2.57c-13.91-10.38-27.6-29.22-37.97-43.84
	c-5.97-8.38-14.05-22.23-15.84-34.41c-0.11-0.73-0.63-1.28-1.29-1.48c-0.22-18.57,7.56-32.66,34.96-17.48
	c14.8,15.79,47.18,40.11,63.06,55c15.88,14.89,20.72,15.58,23.14,8.08c0.05,20.83,6.69,41.03,20.77,59.52
	c0.62,0.81,1.77,0.96,2.58,0.35c0.81-0.61,0.97-1.77,0.35-2.57c-13.69-18-20.03-37.41-20.04-57.55c0-12.73,2.54-25.77,7.43-38.9v0
	c0.34-0.91-0.11-1.92-0.99-2.31c7.15-10.21,17.03,0.75,23.78,20.59c5.74,16.89,15.48,36.07,25.11,51.13
	c6.96,10.87,19.66,34.82,21.41,48c0.05,0.39,0.08,0.8,0.1,1.21l218.1,80.45l19.66,7.25L688.26,1242.69z M215.95,1012.97
	c-13.91-10.38-27.6-29.22-37.97-43.84c-6.14-8.63-12.35-22.17-14.98-30.8c-0.88-2.86-1.35-5.23-1.34-6.41v-0.08
	c0.01-1.01-0.8-1.85-1.81-1.86c-1.02-0.01-1.85,0.8-1.86,1.81v0.13c0.01,1.94,0.57,4.43,1.5,7.48c0.93,3.04,2.25,6.57,3.83,10.27
	c3.16,7.41,7.36,15.49,11.67,21.58c10.42,14.66,24.15,33.72,38.76,44.66c0.81,0.61,1.97,0.44,2.57-0.37
	C216.93,1014.73,216.76,1013.58,215.95,1012.97z"/>
<g>
	<polygon class="st28" points="1138.59,1379.63 1147.34,1310.02 1165.09,1318.04 1165.09,1415.48 1118.95,1415.48 949.25,1415.48 
		949.25,1355.89 	"/>
	<path class="st28" d="M656.2,965.25c34.8-69.82,86.26-88.18,86.26-88.18l78.82-27.6c0.02,0.07,0.02,0.14,0.05,0.21l14.29,29.5
		l-29.3,19.6c-0.48,0.32-0.78,0.85-0.81,1.42c-0.03,0.58,0.21,1.14,0.66,1.51l61.79,51.42c0.5,0.41,1.15,0.49,1.73,0.3l-0.28,230.77
		c-0.8,0.2-1.42,0.89-1.42,1.75v229.54H752.26h-18.43l-0.67-198.02l40.06-71.65c0.5-0.88,0.18-2-0.71-2.5
		c-0.89-0.49-2.01-0.18-2.5,0.71l-63.08,112.82l-18.74-12.82l-0.32-0.21c0.13-0.38,0.26-0.74,0.38-1.12l-106.82-77.9l-19.66-7.25
		l-18.98-12.98l82.38-130.27L656.2,965.25z"/>
	<path class="st28" d="M1160.61,1204.5l20.22-160.81l-29.43-3.69l-202.14-25.35v-61.13c0.32,0,0.63-0.05,0.93-0.22l71.48-41.63
		c0.58-0.34,0.93-0.98,0.91-1.65c-0.03-0.67-0.42-1.28-1.02-1.59l-44.58-21.99l45-40.51c0.25-0.22,0.39-0.51,0.49-0.8l29.85,9.78
		l0,0c0.04-0.04,0.06-0.08,0.1-0.11c0,0,120.67,12.69,181.52,112.34c0.53,0.87,1.1,1.71,1.63,2.6l117.61,186.35l-20.4,12.02
		l-90.05,53.06C1221.52,1216.23,1191.06,1210.14,1160.61,1204.5z"/>
</g>
<path class="st21" d="M770.01,1144.02c0.5-0.89,1.62-1.2,2.5-0.71c0.89,0.49,1.2,1.61,0.71,2.5l-40.06,71.65l-23.1,41.31
	c-0.5,0.89-1.62,1.2-2.5,0.71c-0.89-0.49-1.2-1.61-0.71-2.5l0.08-0.15L770.01,1144.02z"/>
<path class="st21" d="M1019.5,843.21c0.75-0.68,1.92-0.62,2.59,0.13c0.44,0.48,0.53,1.13,0.37,1.72c-0.01,0.03-0.01,0.05-0.02,0.07
	l0,0c-0.09,0.3-0.24,0.58-0.49,0.8l-45,40.51l44.58,21.99c0.61,0.3,1,0.91,1.02,1.59c0.02,0.67-0.33,1.31-0.91,1.65l-71.48,41.63
	c-0.29,0.17-0.61,0.22-0.93,0.22c-0.63,0-1.25-0.3-1.59-0.88c-0.51-0.88-0.22-2,0.66-2.51l1.77-1.03l66.76-38.88l-43.95-21.68
	c-0.54-0.27-0.92-0.79-1-1.39c-0.08-0.6,0.14-1.21,0.59-1.62l46.22-41.62l0,0l0.06-0.05L1019.5,843.21z"/>
<path class="st4" d="M822.19,847.21c0.91-0.44,2.01-0.06,2.45,0.86l0.09,0.19l0,0L839.63,879c0.4,0.82,0.13,1.82-0.63,2.32
	l-28.59,19.12l59.28,49.33l0.62,0.52c0.78,0.65,0.89,1.81,0.24,2.59c-0.23,0.28-0.54,0.44-0.86,0.54c-0.58,0.19-1.23,0.11-1.73-0.3
	l-61.79-51.42c-0.44-0.37-0.69-0.93-0.66-1.51c0.03-0.57,0.33-1.11,0.81-1.42l29.3-19.6l-14.29-29.5c-0.03-0.07-0.03-0.14-0.05-0.21
	l0,0C820.98,848.59,821.34,847.62,822.19,847.21z"/>
<path class="st21" d="M869.41,1184.19c0.14-0.03,0.27-0.08,0.42-0.08c1.01,0,1.84,0.82,1.84,1.84v229.54c0,1.01-0.82,1.84-1.84,1.84
	c-1.02,0-1.84-0.82-1.84-1.84v-229.54C867.99,1185.08,868.6,1184.39,869.41,1184.19z"/>
<path class="st29" d="M1028.6,1256.37l66.72,30.14l-10.85,86.33l54.13,6.79l-189.34-23.74l-63.15-7.92l9.74-77.55
	c9.74,6.09,23.14,10.44,35.6,10.35C962.93,1280.53,999.09,1267.76,1028.6,1256.37z"/>
<g>
	<polygon class="st30" points="1101.66,1092.8 1097.58,1125.31 951.33,1105.88 955.28,1074.45 	"/>
	<path class="st31" d="M1151.39,1039.99l-24.7-3.09l-19.97,158.93l-69.5-14.2l-25.31-21.32c-34.43-33.21-33.28-31.4-49.79-42.83
		c-26.21-18.15-32.47-1.57-48.62,12.57l14.84-118.04l20.92,2.62L1151.39,1039.99z M951.33,1105.88l146.25,19.43l4.09-32.51
		l-146.38-18.36L951.33,1105.88z"/>
	<polygon class="st0" points="1084.47,1372.84 1095.32,1286.51 1147.34,1310.02 1138.59,1379.63 	"/>
	<path class="st0" d="M1126.69,1036.9l24.7,3.09l29.43,3.69l-20.22,160.81c-5.82-1.08-11.64-2.14-17.4-3.18l0,0.01
		c-1-0.18-1.95,0.48-2.13,1.48c0,0.01,0,0.03,0,0.04l-34.36-7.02L1126.69,1036.9z"/>
</g>
<path class="st19" d="M1095.32,1286.51l-66.72-30.14c-29.51,11.39-65.67,24.16-97.15,24.4c-12.47,0.1-25.86-4.26-35.6-10.35
	c-14.97-9.35-21.29-22.82-2.23-30.62c-13.11-6.18-26.97-27.39,3.35-39.07c-16.57-4.4-24.87-30.21,6.12-32.39
	c-40.89-16.45,9.3-37.33,9.3-37.33c0.37-0.31,0.74-0.63,1.1-0.95c16.15-14.14,22.41-30.73,48.62-12.57
	c16.51,11.43,15.36,9.61,49.79,42.83l25.31,21.32l69.5,14.2l34.36,7.02c-0.15,0.98,0.5,1.92,1.48,2.09
	c42.8,7.7,89.51,16.97,112.47,23.06c29.53,7.82,74.21,15.18,112.36,31.58c0.93,0.4,2.01-0.03,2.41-0.96
	c0.4-0.93-0.03-2.01-0.96-2.41c-38.71-16.63-83.63-23.99-112.88-31.75c-3.81-1.01-8.31-2.11-13.27-3.27l90.05-53.06l63.78,110.6
	c12.64,15,21.15,35.62,17.27,63.64c-25.73,67.3-108.98,38.81-108.98,38.81l-139.73-63.13l-17.75-8.02L1095.32,1286.51z"/>
<path class="st21" d="M1143.21,1201.33L1143.21,1201.33c5.75,1.03,11.57,2.09,17.4,3.17c30.45,5.64,60.92,11.73,82.1,16.68
	c4.96,1.16,9.46,2.26,13.27,3.27c29.24,7.76,74.16,15.13,112.88,31.75c0.93,0.4,1.36,1.48,0.96,2.41c-0.4,0.93-1.48,1.36-2.41,0.96
	c-38.15-16.4-82.83-23.76-112.36-31.58c-22.96-6.09-69.67-15.36-112.47-23.06c-0.98-0.17-1.64-1.11-1.48-2.09c0-0.01,0-0.03,0-0.04
	C1141.26,1201.8,1142.21,1201.15,1143.21,1201.33z"/>
<path class="st21" d="M274.28,958.46L274.28,958.46c-4.89,13.13-7.43,26.16-7.43,38.89c0.01,20.15,6.35,39.56,20.04,57.55
	c0.62,0.81,0.46,1.96-0.35,2.57c-0.81,0.62-1.96,0.46-2.58-0.35c-14.08-18.5-20.73-38.7-20.77-59.52c0-0.08-0.01-0.17-0.01-0.25
	c0-13.22,2.64-26.69,7.66-40.17c0.35-0.95,1.42-1.44,2.37-1.08c0.03,0.01,0.06,0.04,0.09,0.05
	C274.17,956.54,274.62,957.54,274.28,958.46z"/>
<path class="st21" d="M213.74,1015.91c-14.62-10.94-28.34-30-38.76-44.66c-4.32-6.08-8.52-14.17-11.67-21.58
	c-1.58-3.7-2.9-7.23-3.83-10.27c-0.93-3.06-1.49-5.55-1.5-7.48v-0.13c0.01-1.01,0.84-1.83,1.86-1.81c1.01,0.01,1.82,0.85,1.81,1.86
	v0.08c-0.01,1.18,0.46,3.55,1.34,6.41c2.64,8.63,8.85,22.17,14.98,30.8c10.36,14.62,24.06,33.47,37.97,43.84
	c0.81,0.61,0.98,1.76,0.37,2.57C215.71,1016.35,214.56,1016.52,213.74,1015.91z"/>
<path class="st21" d="M143.32,953.48c1.79,12.18,9.87,26.04,15.84,34.41c10.36,14.62,24.06,33.47,37.97,43.84
	c0.81,0.61,0.98,1.76,0.37,2.57c-0.61,0.81-1.76,0.98-2.57,0.37c-14.61-10.95-28.34-30-38.76-44.66
	c-3.96-5.59-8.81-13.43-12.31-21.85c-1.92-4.63-3.46-9.43-4.17-14.14c-0.15-1,0.54-1.94,1.55-2.09c0.28-0.04,0.54-0.01,0.8,0.07
	C142.69,952.21,143.21,952.76,143.32,953.48z"/>
<path class="st4" d="M923.27,259.84h67.75c11.36,0,20.66,9.29,20.66,20.63v67.67c0,11.35-9.29,20.63-20.66,20.63h-67.75
	c-11.36,0-20.66-9.29-20.66-20.63v-67.67C902.61,269.13,911.91,259.84,923.27,259.84z"/>
<path class="st10" d="M925.26,385.51h67.75c11.36,0,20.66,9.28,20.66,20.63v67.67c0,11.35-9.3,20.63-20.66,20.63h-67.75
	c-11.36,0-20.66-9.28-20.66-20.63v-67.67C904.61,394.79,913.9,385.51,925.26,385.51z"/>
<path class="st10" d="M778.69,403.19c-4.16-13.68-4.52-29.12,1.19-42.4c-13.9-33.44-2.9-71.16,26.33-92.52
	c3.92-2.86,10.02-0.66,12.29,3.22c2.66,4.55,0.7,9.41-3.22,12.28c-17.6,12.86-26.97,35.96-22.8,57.39c0.16,0.8,0.36,1.6,0.54,2.39
	c6-4.84,13.17-8.3,20.62-9.52c13.8-2.27,27.96,2.28,35.74,14.38c6.77,10.54,7.5,25.79,0.38,36.35c-8.64,12.83-25.07,15.1-38.66,9.44
	c-6.75-2.81-12.62-7.08-17.6-12.24c-0.05,4.84,0.65,9.72,1.89,14.32c6.61,24.39,27.1,44.66,50.44,53.58
	c4.53,1.73,7.65,6.04,6.28,11.04c-1.19,4.33-6.49,8.01-11.05,6.27C812.39,456.21,787.76,433.01,778.69,403.19z M831.21,378.09
	c3.16-1.58,4.33-3.86,5.22-7.21c0.82-3.06,0.46-6.82-0.89-10.32c-2.56-6.61-9.73-10.04-17.18-9.2c-6.75,0.76-13.64,4.65-18.16,10.16
	c2.16,3.54,4.72,6.81,7.74,9.65C813.73,376.6,823.4,382,831.21,378.09z"/>
<g>
	<defs>
		<rect id="SVGID_1_" x="827.7" y="729.02" width="153.4" height="75.29"/>
	</defs>
	<clipPath id="SVGID_00000049925862480444145820000016986616085832347834_">
		<use xlink:href="#SVGID_1_"  style="overflow:visible;"/>
	</clipPath>
	<path style="clip-path:url(#SVGID_00000049925862480444145820000016986616085832347834_);fill:#B7793E;" d="M837.21,710.1
		c-0.57,8.27-2.76,19.45,4.66,29.5c7.42,10.04,19.87,13.93,24.58,12.74c4.71-1.19,7.03-9.29,7.33-10.57c0.3-1.27,3.32,0.36,6.72,0.6
		c3.41,0.23,6.22-0.01,7.45,0.47c1.23,0.49,0.73,8.26,4.36,12.39c3.63,4.14,16.59,10.31,29.83-0.01
		c13.24-10.32,18.74-14.23,30.7-36.75c5.91-11.12,6.99-13.53,8.28-11.68c1.29,1.85,3.25,1.82,3.05,4.28
		c-0.2,2.45-13.15,44.89-24.99,63.05c-11.83,18.16-28.48,28.65-60.12,24.95c-31.64-3.69-44.31-26.33-46.92-48.51
		c-2.6-22.18,5.62-50.04,5.62-50.04S837.44,706.69,837.21,710.1z"/>
</g>
<g>
	<defs>
		<rect id="SVGID_00000022560342273798824290000016962017358616330647_" x="917.52" y="670.86" width="63.47" height="57.99"/>
	</defs>
	<clipPath id="SVGID_00000064328355165840120200000011996527646435600270_">
		<use xlink:href="#SVGID_00000022560342273798824290000016962017358616330647_"  style="overflow:visible;"/>
	</clipPath>
	<path style="clip-path:url(#SVGID_00000064328355165840120200000011996527646435600270_);fill:#B7793E;" d="M837.09,709.93
		c-0.57,8.27-2.76,19.45,4.66,29.5c7.42,10.04,19.87,13.93,24.58,12.74c4.71-1.19,7.03-9.29,7.33-10.57c0.3-1.27,3.32,0.36,6.72,0.6
		c3.41,0.23,6.22-0.01,7.45,0.47c1.23,0.49,0.73,8.26,4.36,12.39c3.63,4.14,16.59,10.31,29.83-0.01
		c13.24-10.32,18.74-14.23,30.71-36.75c5.91-11.12,6.99-13.53,8.28-11.68c1.29,1.85,3.25,1.82,3.05,4.28
		c-0.2,2.45-13.15,44.89-24.99,63.05c-11.83,18.16-28.48,28.65-60.12,24.95c-31.64-3.69-44.31-26.33-46.92-48.51
		c-2.6-22.18,5.62-50.04,5.62-50.04S837.33,706.52,837.09,709.93z"/>
</g>
</svg>
