<svg width="780" height="646" viewBox="0 0 780 646" fill="none" xmlns="http://www.w3.org/2000/svg">
<path d="M19.6489 287.159C21.2101 288.377 22.9857 287.738 27.3977 286.198C35.2895 283.44 43.1883 280.686 51.1694 278.206C52.4269 277.817 54.5668 278.449 55.5743 279.385C61.569 284.955 67.2279 290.892 73.2762 296.401C75.1517 298.109 75.8412 299.281 75.0624 301.835C71.9436 312.049 69.1106 322.352 66.2061 332.512C74.0871 338.228 96.4619 347.06 104.864 347.67C109.373 338.546 114.121 329.293 118.501 319.869C119.862 316.936 121.17 316.143 124.574 316.297C132.455 316.686 140.397 316.357 148.285 315.868C151.479 315.671 153.497 315.936 155.166 319.119C159.485 327.371 164.304 335.363 168.763 343.544C169.96 345.745 171.314 346.599 173.632 345.581C184.528 340.8 195.422 336.015 206.314 331.223C208.993 330.047 207.814 328.029 207.264 326.328C204.481 317.718 201.748 309.091 198.69 300.585C197.54 297.391 198.093 295.529 200.623 293.197C207.325 287.016 213.623 280.4 220.575 273.465L253.442 282.725C260.563 270.779 265.268 258.043 268.115 244.142L238.184 229.205C237.691 218.331 237.47 208.249 236.641 198.214C236.401 195.309 237.17 194.134 239.499 192.855C247.569 188.475 255.504 183.841 263.546 179.404C265.282 178.447 266.404 177.568 265.775 175.314C262.56 163.917 258.423 152.946 251.921 142.936C250.474 140.707 249.063 140.539 246.848 141.282C237.877 144.272 228.853 147.091 219.893 150.12C217.724 150.853 216.463 150.753 214.627 148.923C208.25 142.579 201.591 136.498 194.789 130.604C193.052 129.096 193.02 127.956 193.538 126.109C196.439 115.824 199.254 105.521 202.187 94.9568C190.18 88.169 177.823 82.9067 164.169 80.0558L148.603 111.248L114.428 111.962C110.391 104.846 105.804 96.6002 101.078 88.462C97.155 81.7885 98.634 81.8313 90.7744 84.4036C90.0242 84.6501 89.1847 84.6215 88.388 84.7215L68.8677 93.4671C67.5423 94.3781 66.3205 95.5213 64.8736 96.1465C61.1081 97.7684 60.0257 99.8798 61.5869 104.063C64.845 112.78 67.5566 121.708 70.2752 130.614C70.6325 131.782 70.1681 133.722 69.3428 134.64C63.9626 140.635 58.0501 146.18 53.0056 152.428C50.5406 155.486 48.6186 155.754 45.1997 154.722C35.511 151.799 25.7008 149.277 14.9582 146.326C9.90663 159.187 4.98011 171.763 0 184.467C2.29356 185.663 3.60111 186.374 4.93366 187.039C13.1505 191.136 21.328 195.313 29.6163 199.26C31.967 200.382 32.4421 201.743 32.4743 204.283C32.5993 213.008 33.2817 221.721 33.4639 230.445C33.4925 231.799 32.3564 233.75 31.1775 234.461C24.7219 238.34 18.0556 241.866 11.5286 245.618C6.24478 248.658 4.29418 249.805 4.14056 252.52L19.6489 287.159ZM59.6613 251.434C50.9161 233.998 48.4874 214.069 52.7889 195.042C57.0904 176.016 67.856 159.07 83.2513 147.092C98.6466 135.114 117.719 128.844 137.219 129.351C156.718 129.859 175.439 137.112 190.19 149.875C204.942 162.638 214.811 180.121 218.117 199.345C221.423 218.569 217.961 238.345 208.321 255.303C198.68 272.26 183.458 285.351 165.248 292.343C147.038 299.336 126.967 299.798 108.455 293.65C97.9333 290.189 88.2024 284.675 79.8253 277.429C71.4481 270.183 64.591 261.347 59.6505 251.434H59.6613Z" fill="#E8ECFF"/>
<path d="M96.2427 56.2163L99.458 50.3287L96.4393 44.3412C96.3619 44.188 96.3289 44.0162 96.3439 43.8452C96.3589 43.6742 96.4214 43.5109 96.5242 43.3735C96.6271 43.2361 96.7663 43.1301 96.9261 43.0676C97.0859 43.005 97.26 42.9883 97.4288 43.0193L104.006 44.259L108.75 39.529C108.872 39.4072 109.025 39.3219 109.193 39.2831C109.36 39.2442 109.535 39.2532 109.698 39.309C109.861 39.3649 110.005 39.4654 110.113 39.599C110.222 39.7327 110.29 39.8941 110.311 40.0649L111.169 46.7276L117.117 49.7929C117.27 49.8712 117.399 49.9909 117.488 50.1385C117.576 50.286 117.622 50.4555 117.62 50.6277C117.617 50.7999 117.566 50.9679 117.473 51.1127C117.38 51.2575 117.248 51.3733 117.092 51.447L111.047 54.305L109.976 60.9284C109.949 61.0981 109.875 61.2567 109.762 61.3865C109.65 61.5162 109.503 61.6118 109.339 61.6624C109.175 61.713 109 61.7166 108.834 61.6728C108.668 61.6289 108.518 61.5394 108.4 61.4143L103.806 56.5342L97.1966 57.5631C97.0272 57.5895 96.8537 57.5681 96.6958 57.5013C96.5379 57.4346 96.4017 57.325 96.3026 57.1851C96.2035 57.0452 96.1454 56.8804 96.1348 56.7092C96.1242 56.5381 96.1616 56.3673 96.2427 56.2163V56.2163Z" fill="#D92065"/>
<path d="M501.801 38.2369L504.541 33.789L502.34 32.8959C502.11 32.8023 501.926 32.6212 501.828 32.3921C501.731 32.1631 501.729 31.9048 501.822 31.6741V31.6741C501.868 31.5595 501.937 31.4552 502.024 31.3672C502.11 31.2791 502.213 31.209 502.327 31.1609C502.441 31.1128 502.563 31.0876 502.687 31.0867C502.81 31.0859 502.933 31.1095 503.047 31.1561L505.584 32.1814L508.031 28.1873L505.684 27.237C505.569 27.1907 505.465 27.1222 505.377 27.0355C505.289 26.9488 505.219 26.8456 505.171 26.7318C505.123 26.618 505.097 26.4958 505.097 26.3722C505.096 26.2486 505.119 26.1261 505.166 26.0117V26.0117C505.212 25.8971 505.281 25.7928 505.367 25.7047C505.454 25.6166 505.557 25.5465 505.671 25.4984C505.785 25.4503 505.907 25.4251 506.031 25.4243C506.154 25.4235 506.277 25.447 506.391 25.4936L509.078 26.5832L511.936 22.0068C512.053 21.8188 512.232 21.6781 512.443 21.6095C512.653 21.5408 512.881 21.5487 513.086 21.6317L513.497 21.7996C513.623 21.8511 513.737 21.9293 513.83 22.029C513.923 22.1287 513.993 22.2474 514.035 22.3769C514.078 22.5064 514.092 22.6435 514.076 22.7789C514.06 22.9143 514.015 23.0446 513.944 23.1608L511.3 27.48L515.194 29.059L518.052 24.4826C518.169 24.2946 518.348 24.1539 518.559 24.0852C518.769 24.0166 518.997 24.0245 519.202 24.1075L519.653 24.2897C519.779 24.3411 519.892 24.4194 519.985 24.519C520.078 24.6187 520.148 24.7374 520.191 24.8669C520.233 24.9964 520.247 25.1336 520.231 25.269C520.215 25.4043 520.17 25.5346 520.099 25.6508L517.455 29.97L519.656 30.8596C519.886 30.9546 520.07 31.1366 520.167 31.3659C520.264 31.5953 520.266 31.8536 520.174 32.085V32.085C520.128 32.1995 520.059 32.3038 519.973 32.3919C519.886 32.48 519.783 32.5501 519.669 32.5982C519.555 32.6463 519.433 32.6715 519.309 32.6723C519.186 32.6731 519.063 32.6496 518.949 32.603L516.412 31.5741L513.976 35.586L516.327 36.5363C516.557 36.6314 516.74 36.8133 516.837 37.0427C516.934 37.272 516.937 37.5304 516.845 37.7617V37.7617C516.798 37.8763 516.73 37.9806 516.643 38.0686C516.556 38.1567 516.453 38.2268 516.339 38.2749C516.226 38.3231 516.103 38.3482 515.98 38.3491C515.856 38.3499 515.734 38.3263 515.619 38.2797L512.933 37.1901L510.025 41.9273C509.908 42.1162 509.728 42.2578 509.517 42.3271C509.306 42.3963 509.077 42.3889 508.871 42.306L508.392 42.1095C508.265 42.058 508.151 41.9796 508.058 41.8798C507.965 41.7799 507.894 41.661 507.851 41.5312C507.809 41.4014 507.795 41.2638 507.81 41.128C507.826 40.9922 507.871 40.8615 507.942 40.7448L510.682 36.297L506.788 34.7179L503.883 39.4265C503.764 39.6122 503.583 39.7498 503.372 39.8151C503.16 39.8805 502.933 39.8694 502.73 39.7838L502.251 39.5908C502.126 39.5391 502.013 39.4611 501.921 39.362C501.829 39.263 501.759 39.1452 501.716 39.0168C501.673 38.8883 501.659 38.7522 501.673 38.6176C501.688 38.483 501.731 38.3532 501.801 38.2369V38.2369ZM511.725 34.6643L514.172 30.6667L510.278 29.0876L507.831 33.0817L511.725 34.6643Z" fill="#FCF8FF"/>
<path d="M355.384 7.64879L367.052 9.05637L362.075 0L355.384 7.64879Z" fill="#E8ECFF"/>
<path d="M455.333 111.838C454.976 115.768 458.359 119.383 462.121 120.055C466.015 120.734 469.484 118.197 470.824 114.61C473.468 107.533 465.722 101.949 461.535 106.233C457.605 110.231 458.856 116.168 463.086 116.172C464.683 116.172 467.251 114.832 466.233 112.899C466.176 112.803 466.095 112.723 465.998 112.668C465.901 112.612 465.791 112.583 465.679 112.583C465.568 112.583 465.458 112.612 465.361 112.668C465.263 112.723 465.183 112.803 465.126 112.899C464.611 113.771 464.654 113.803 464.411 114C464.008 114.286 463.519 114.428 463.025 114.4C458.713 114.325 461.596 104.464 466.658 106.854C469.448 108.166 470.27 111.338 469.302 114.107C468.373 116.772 465.872 118.837 462.979 118.651C459.524 118.429 456.627 115.253 456.405 111.863C456.405 111.721 456.349 111.585 456.248 111.484C456.148 111.384 456.011 111.327 455.869 111.327C455.727 111.327 455.591 111.384 455.49 111.484C455.39 111.585 455.333 111.721 455.333 111.863V111.838Z" fill="#FF5292"/>
<g filter="url(#filter0_dd_123_186)">
<path d="M112.03 212.315C112.03 202.336 120.12 194.246 130.1 194.246H721.872C731.852 194.246 739.942 202.336 739.942 212.315V224.061H112.03V212.315Z" fill="#0A26A5"/>
</g>
<path d="M682.12 208.907C682.119 208.149 682.343 207.408 682.764 206.777C683.185 206.147 683.783 205.655 684.483 205.365C685.183 205.074 685.954 204.998 686.697 205.145C687.441 205.293 688.124 205.658 688.66 206.193C689.196 206.729 689.561 207.412 689.709 208.155C689.857 208.899 689.782 209.669 689.492 210.37C689.202 211.07 688.711 211.668 688.08 212.09C687.45 212.511 686.709 212.736 685.951 212.736C684.936 212.736 683.961 212.332 683.243 211.614C682.524 210.896 682.12 209.923 682.12 208.907V208.907Z" fill="#E8ECFF"/>
<path d="M698.198 208.907C698.198 208.149 698.422 207.407 698.843 206.777C699.264 206.146 699.862 205.655 700.563 205.364C701.263 205.074 702.033 204.998 702.777 205.146C703.521 205.293 704.204 205.658 704.74 206.194C705.276 206.73 705.641 207.414 705.788 208.157C705.936 208.901 705.86 209.671 705.57 210.372C705.279 211.072 704.788 211.67 704.157 212.091C703.527 212.512 702.785 212.736 702.027 212.736C701.012 212.735 700.039 212.331 699.321 211.613C698.603 210.895 698.199 209.922 698.198 208.907V208.907Z" fill="#E8ECFF"/>
<path d="M714.273 208.907C714.273 208.149 714.497 207.407 714.918 206.777C715.339 206.146 715.937 205.655 716.637 205.364C717.338 205.074 718.108 204.998 718.852 205.146C719.595 205.293 720.278 205.658 720.815 206.194C721.351 206.73 721.716 207.414 721.863 208.157C722.011 208.901 721.935 209.671 721.645 210.372C721.354 211.072 720.863 211.67 720.232 212.091C719.602 212.512 718.86 212.736 718.102 212.736C717.087 212.735 716.114 212.331 715.396 211.613C714.678 210.895 714.274 209.922 714.273 208.907V208.907Z" fill="#E8ECFF"/>
<path d="M722.778 567.836C732.34 567.836 740.091 560.085 740.091 550.524V239.764C740.091 231.164 733.534 224.191 725.443 224.191H126.314C118.224 224.191 111.663 231.164 111.663 239.764V550.524C111.663 560.085 119.414 567.836 128.975 567.836H722.778Z" fill="#E8ECFF"/>
<g filter="url(#filter1_dd_123_186)">
<path d="M112.03 224.061H739.942V569.04C739.942 578.601 732.191 586.352 722.63 586.352H129.342C119.781 586.352 112.03 578.601 112.03 569.04V224.061Z" fill="#E8ECFF"/>
</g>
<g filter="url(#filter2_dd_123_186)">
<path d="M394.216 252.972H51.5919C46.8113 252.972 42.9359 256.847 42.9359 261.628V495.472C42.9359 500.252 46.8114 504.128 51.5919 504.128H394.216C398.997 504.128 402.872 500.252 402.872 495.472V261.628C402.872 256.847 398.997 252.972 394.216 252.972Z" fill="#FCF8FF"/>
<path d="M394.216 252.972H51.5919C46.8113 252.972 42.9359 256.847 42.9359 261.628V282.377H402.872V261.628C402.872 256.847 398.997 252.972 394.216 252.972Z" fill="#0A26A5"/>
<path opacity="0.3" d="M378.922 294.488H64.0133C59.2327 294.488 55.3573 298.363 55.3573 303.144V328.474C55.3573 333.254 59.2327 337.13 64.0133 337.13H378.922C383.702 337.13 387.578 333.254 387.578 328.474V303.144C387.578 298.363 383.702 294.488 378.922 294.488Z" fill="#93A4FC"/>
<path opacity="0.6" d="M382.113 349.237H179.211C176.193 349.237 173.747 351.683 173.747 354.701C173.747 357.719 176.193 360.165 179.211 360.165H382.113C385.131 360.165 387.577 357.719 387.577 354.701C387.577 351.683 385.131 349.237 382.113 349.237Z" fill="#E8ECFF"/>
<g opacity="0.6" filter="url(#filter3_dd_123_186)">
<path d="M151.894 349.237H64.0133C59.2327 349.237 55.3573 353.112 55.3573 357.893V466.706C55.3573 471.486 59.2327 475.362 64.0133 475.362H151.894C156.675 475.362 160.55 471.486 160.55 466.706V357.893C160.55 353.112 156.675 349.237 151.894 349.237Z" fill="#4D6CFA"/>
</g>
<path opacity="0.6" d="M382.113 372.276H179.211C176.193 372.276 173.747 374.723 173.747 377.74C173.747 380.758 176.193 383.205 179.211 383.205H382.113C385.131 383.205 387.577 380.758 387.577 377.74C387.577 374.723 385.131 372.276 382.113 372.276Z" fill="#E8ECFF"/>
<path opacity="0.6" d="M382.113 441.394H179.211C176.193 441.394 173.747 443.84 173.747 446.858C173.747 449.876 176.193 452.322 179.211 452.322H382.113C385.131 452.322 387.577 449.876 387.577 446.858C387.577 443.84 385.131 441.394 382.113 441.394Z" fill="#E8ECFF"/>
<path opacity="0.6" d="M382.113 464.433H179.211C176.193 464.433 173.747 466.88 173.747 469.897C173.747 472.915 176.193 475.362 179.211 475.362H382.113C385.131 475.362 387.577 472.915 387.577 469.897C387.577 466.88 385.131 464.433 382.113 464.433Z" fill="#E8ECFF"/>
</g>
<path d="M74.3108 366.023C73.9678 366.023 73.63 366.107 73.3272 366.268C73.0245 366.43 72.766 366.663 72.5746 366.948C72.766 366.663 73.0245 366.43 73.3272 366.268C73.63 366.107 73.9678 366.023 74.3108 366.023V366.023Z" fill="#9BC1F9"/>
<path d="M72.314 367.498C72.3537 367.367 72.4063 367.24 72.4711 367.119C72.4063 367.24 72.3537 367.367 72.314 367.498V367.498Z" fill="#9BC1F9"/>
<path d="M388.362 67.9878L385.727 78.2624C385.349 79.7382 386.924 80.948 388.252 80.2018L395.864 75.926L429.146 63.6543L404.617 62.9755C404.617 62.9755 391.899 64.4974 391.159 65.0226C390.42 65.5478 388.362 67.9878 388.362 67.9878Z" fill="#0A26A5"/>
<path d="M380.34 59.7276C379.775 59.1448 380.251 58.174 381.058 58.2645L429.146 63.6579L388.362 67.9914L380.34 59.7276Z" fill="#4D6CFA"/>
<path d="M403.452 83.9605C403.105 84.2348 402.607 84.2032 402.297 83.8871L391.979 73.3562C391.504 72.8718 391.746 72.0544 392.408 71.9059L429.146 63.6579L403.452 83.9605Z" fill="#4D6CFA"/>
<path d="M311.857 111.44C312.425 109.231 313.224 107.088 314.24 105.046L315.311 105.574C314.836 106.532 314.411 107.514 314.04 108.493C313.64 109.555 313.298 110.638 313.014 111.737C312.932 112.058 312.857 112.38 312.782 112.702L311.617 112.441C311.7 112.101 311.771 111.766 311.857 111.44ZM318.445 98.4364C320.063 96.3928 321.856 94.4935 323.803 92.7597L324.6 93.6528C322.701 95.3415 320.951 97.1905 319.37 99.1795L318.445 98.4364ZM356.396 100.58L356.206 100.423L356.981 99.5118L357.139 99.6439C357.175 99.6648 357.213 99.6816 357.253 99.694C357.878 99.9297 359.582 100.133 360.604 99.694C361.506 99.2714 362.264 98.5931 362.783 97.7434L363.791 98.3935C363.141 99.4359 362.203 100.267 361.09 100.787C359.661 101.416 357.617 101.127 356.831 100.83C356.673 100.769 356.526 100.682 356.396 100.573V100.58ZM329.995 87.9939C332.164 86.5575 334.422 85.2581 336.754 84.1034L337.282 85.1752C334.998 86.3091 332.786 87.5834 330.659 88.9907L329.995 87.9939ZM352.759 90.7305C352.9 89.5543 353.185 88.3999 353.609 87.2937C353.847 86.6646 354.123 86.0503 354.434 85.4539L355.506 86.004C355.217 86.5593 354.961 87.1306 354.738 87.7153C354.35 88.731 354.089 89.7904 353.959 90.8698C353.873 91.6159 353.863 92.3687 353.927 93.1169L352.734 93.2205C352.658 92.3942 352.667 91.5623 352.759 90.7376V90.7305ZM359.189 85.3717L359.046 85.2824L359.679 84.2642L359.836 84.3642C362.099 85.788 363.823 87.9249 364.737 90.4375L363.605 90.8198C362.778 88.5642 361.225 86.6476 359.189 85.3717V85.3717ZM344.324 81.9599C345.689 81.717 348.172 81.3169 349.443 81.4097C350.429 81.4776 351.33 81.5776 352.194 81.7063L352.016 82.8888C351.183 82.7637 350.312 82.6708 349.358 82.603C348.525 82.5422 346.768 82.7387 344.535 83.1388L344.324 81.9599ZM359.293 79.2448C361.233 77.4569 363.426 75.9654 365.802 74.8184L366.324 75.8902C364.052 76.9897 361.956 78.42 360.104 80.1343L359.293 79.2448Z" fill="#E8ECFF"/>
<path d="M375.116 73.6681C376.385 73.4751 377.669 73.3891 378.953 73.4109L378.974 72.2141C377.623 72.1918 376.273 72.2826 374.937 72.4856L375.116 73.6681Z" fill="#9BC1F9"/>
<path d="M280.826 93.785C281.54 93.8171 283.519 94.4781 286.406 99.9297C290.093 106.896 295.48 127.938 295.48 127.938L279.404 133.93L277.339 129.535L273.934 95.7213C273.934 95.7213 280.629 93.7778 280.826 93.785Z" fill="#5D63E1"/>
<path d="M259.57 90.7519C264.167 90.7519 275.546 92.1023 280.826 93.7885C280.826 93.7885 284.706 127.131 277.336 152.467C275.685 158.137 278.7 175.975 278.7 175.975L231.05 175.339C231.05 175.339 236.695 132.215 234.569 125.248C232.443 118.282 232.393 94.0065 232.393 94.0065L243.111 92.1595C248.553 91.2721 254.056 90.8015 259.57 90.7519V90.7519Z" fill="#474FEA"/>
<path d="M254.018 237.858C254.018 237.858 255.09 250.005 257.012 253.391C258.934 256.778 256.908 262.491 256.808 263.277C256.708 264.063 252.728 265.184 246.401 264.509C240.074 263.834 240.181 262.366 240.685 260.018C241.189 257.671 244.561 254.628 244.765 252.38C244.969 250.133 242.829 242.049 242.829 242.049L254.018 237.858Z" fill="#E9A99B"/>
<path d="M273.324 165.936C273.324 165.936 306.216 164.107 313.561 168.555C320.906 173.002 308.342 194.834 308.342 194.834C308.342 194.834 285.456 193.762 240.625 196.367C230.011 196.981 229.096 168.687 231.079 166.357C233.061 164.028 273.324 165.936 273.324 165.936Z" fill="#4A2777"/>
<path d="M245.615 265.459C239.102 264.766 239.899 261.565 240.431 259.136C240.76 257.618 242.629 255.824 243.743 254.134C244.325 254.599 245.272 255.417 248.098 256.253C251.035 257.121 255.061 255.403 257.626 254.327C258.293 257.076 258.587 259.903 258.498 262.73C258.394 263.53 252.124 266.152 245.615 265.459Z" fill="#BDD1F9"/>
<path d="M249.209 189.465C250.523 199.41 257.029 248.911 257.029 248.911L241.942 250.783C241.942 250.783 223.365 186.171 224.33 176.289C225.294 166.407 232.232 165.571 232.232 165.571C232.232 165.571 245.729 163.142 249.209 189.465Z" fill="#653D99"/>
<path d="M231.875 97.7183C236.33 96.0464 238.509 136.187 239.109 152.71C246.998 153.468 260.748 152.71 264.174 152.457C265.782 152.339 269.497 150.978 271.098 150.767C272.698 150.556 274.227 150.442 275.028 150.581C275.324 150.631 283.545 153.996 284.248 154.732C285.12 155.647 287.464 157.948 287.081 158.952C286.699 159.955 282.544 156.172 282.544 156.172L280.526 155.04C283.027 157.497 287.846 160.756 287.156 161.917C286.467 163.078 282.155 159.773 279.061 157.54C281.708 159.93 284.999 164.21 284.241 164.878C283.559 165.479 279.818 160.523 275.821 159.094C274.338 158.566 272.859 160.03 271.695 160.209C270.837 160.338 269.515 160.613 268.676 160.377L264.346 159.148C262.87 159.28 262.835 160.155 261.345 160.47C259.616 160.827 256.779 161.227 254.557 161.763C241.878 164.864 237.648 166.3 233.765 166.3C222.026 166.293 221.347 101.67 231.875 97.7183Z" fill="#E9A99B"/>
<path d="M223.419 135.405C222.586 118.478 222.704 97.6219 232.193 94.0601C235.937 92.6561 242.535 101.102 241.349 135.748C236.283 136.166 228.849 136.502 223.419 135.405Z" fill="#5D63E1"/>
<path d="M299.743 249.647C299.743 249.647 297.563 253.499 299.278 256.728C300.993 259.958 309.996 264.706 310.932 266.456C311.868 268.207 311.503 269.443 311.503 269.443L284.774 262.901L286.821 254.845L289.322 249.276L299.743 249.647Z" fill="#E9A99B"/>
<path d="M300.657 258.461C300.657 258.461 293.155 259.761 290.164 257.389C287.174 255.017 287.381 254.577 286.285 254.985C285.57 255.246 284.498 258.457 283.823 260.701C283.738 260.986 283.712 261.286 283.746 261.581C283.781 261.877 283.875 262.163 284.023 262.421C284.171 262.679 284.369 262.905 284.607 263.084C284.845 263.263 285.117 263.391 285.406 263.462L313.236 270.339C315.351 270.747 316.751 269.428 315.326 267.732C314.351 266.567 313.129 265.667 312.468 265.059C310.381 263.202 300.657 258.461 300.657 258.461Z" fill="#BDD1F9"/>
<path d="M297.124 173.731C299.267 169.255 304.083 163.431 312.593 166.943C320.706 170.291 322.885 178.515 320.324 186.949C317.762 195.384 300.911 244.878 300.318 251.687L286.86 251.777C286.86 251.777 289.307 212.575 289.907 203.097C290.486 193.962 293.444 181.473 297.124 173.731Z" fill="#653D99"/>
<path d="M318.97 128.131H273.985C273.402 128.131 272.832 128.305 272.349 128.63C271.865 128.955 271.489 129.417 271.27 129.957L257.419 163.857H232.615C232.45 163.857 232.286 163.89 232.134 163.954C231.981 164.017 231.843 164.11 231.727 164.227C231.61 164.345 231.518 164.483 231.455 164.636C231.392 164.789 231.36 164.953 231.361 165.118V165.118C231.361 165.451 231.493 165.77 231.728 166.006C231.963 166.241 232.282 166.374 232.615 166.375H303.204C304.155 166.374 305.086 166.098 305.883 165.58C306.681 165.062 307.311 164.325 307.699 163.456L321.632 132.279C321.833 131.833 321.919 131.343 321.883 130.855C321.847 130.367 321.69 129.896 321.425 129.484C321.161 129.072 320.798 128.732 320.369 128.496C319.94 128.26 319.459 128.134 318.97 128.131V128.131Z" fill="#FF5292"/>
<path d="M294.748 147.873C294.444 149.395 293.123 150.413 291.794 150.145C290.465 149.877 289.65 148.427 289.936 146.905C290.222 145.383 291.565 144.365 292.894 144.633C294.223 144.901 295.052 146.348 294.748 147.873Z" fill="#FCF8FF"/>
<path d="M270.262 50.0286C268.903 49.5821 267.574 49.0499 266.282 48.4353C264.825 47.7208 262.938 46.9098 261.745 46.7276C259.244 46.3382 254.921 46.599 252.539 49.1819C249.57 52.3972 244.3 49.7643 245.361 66.623C246.562 85.7039 257.172 83.6104 257.429 83.2889C257.687 82.9674 266.893 71.078 266.893 71.078C266.893 71.078 270.108 78.1194 270.108 77.8658C270.108 77.6121 286.549 55.516 270.262 50.0286Z" fill="#604735"/>
<path d="M262.206 84.6965L263.124 91.5165C263.124 91.5165 265.175 101.341 262.535 103.234C259.895 105.128 251.31 91.2343 251.31 91.2343L252.217 73.9575L262.206 84.6965Z" fill="#E9A99B"/>
<path d="M251.924 79.5557C254.104 85.4503 259.298 89.0729 262.999 90.4769L262.22 84.6965L252.217 73.9575L251.924 79.5557Z" fill="#EEB5A9"/>
<path d="M261.663 55.1552C262.976 54.9534 264.317 55.0417 265.592 55.414C266.868 55.7863 268.046 56.4335 269.044 57.3101C270.042 58.1867 270.836 59.2713 271.37 60.4877C271.904 61.7042 272.165 63.0228 272.134 64.3509C272.066 67.2794 271.81 70.2005 271.37 73.0964C270.155 80.956 264.782 87.8974 261.231 87.2794C257.68 86.6613 248.748 79.87 250.32 68.6701C251.292 61.7537 255.793 56.1019 261.663 55.1552Z" fill="#E9A99B"/>
<path d="M252.785 70.0062C252.485 71.7389 251.099 72.9428 249.688 72.6963C248.277 72.4498 247.376 70.8457 247.676 69.1238C247.976 67.4018 249.363 66.1872 250.77 66.4337C252.178 66.6802 253.082 68.2771 252.785 70.0062Z" fill="#F7A491"/>
<path d="M250.77 66.4265C250.77 66.4265 255.057 67.4983 256.658 64.7331C258.258 61.968 263.949 56.0161 271.191 58.4848C278.432 60.9534 264.807 52.4758 264.239 52.4758C263.671 52.4758 256.708 52.4258 256.708 52.4258C256.708 52.4258 251.349 56.8343 251.156 57.3201C250.963 57.806 249.416 63.0862 249.416 63.0862L250.77 66.4265Z" fill="#604735"/>
<path opacity="0.6" d="M507.282 247.562H455.455V299.389H507.282V247.562Z" fill="#4D6CFA"/>
<path opacity="0.6" d="M507.282 327.056H455.455V378.883H507.282V327.056Z" fill="#4D6CFA"/>
<path opacity="0.6" d="M507.282 406.55H455.455V458.376H507.282V406.55Z" fill="#4D6CFA"/>
<path opacity="0.6" d="M507.282 486.043H455.455V537.87H507.282V486.043Z" fill="#4D6CFA"/>
<path opacity="0.3" d="M614.03 254.487H519.969C518.025 254.487 516.448 256.064 516.448 258.008C516.448 259.952 518.025 261.529 519.969 261.529H614.03C615.975 261.529 617.551 259.952 617.551 258.008C617.551 256.064 615.975 254.487 614.03 254.487Z" fill="#4D6CFA"/>
<path opacity="0.3" d="M581.155 269.413H519.969C518.024 269.413 516.448 270.99 516.448 272.934C516.448 274.879 518.024 276.455 519.969 276.455H581.155C583.1 276.455 584.676 274.879 584.676 272.934C584.676 270.99 583.1 269.413 581.155 269.413Z" fill="#4D6CFA"/>
<path opacity="0.3" d="M603.741 284.343H519.969C518.024 284.343 516.448 285.919 516.448 287.864C516.448 289.808 518.024 291.384 519.969 291.384H603.741C605.685 291.384 607.262 289.808 607.262 287.864C607.262 285.919 605.685 284.343 603.741 284.343Z" fill="#4D6CFA"/>
<path opacity="0.3" d="M614.03 333.981H519.969C518.025 333.981 516.448 335.557 516.448 337.502C516.448 339.446 518.025 341.022 519.969 341.022H614.03C615.975 341.022 617.551 339.446 617.551 337.502C617.551 335.557 615.975 333.981 614.03 333.981Z" fill="#FF5292"/>
<path opacity="0.3" d="M581.155 348.907H519.969C518.024 348.907 516.448 350.483 516.448 352.428C516.448 354.372 518.024 355.948 519.969 355.948H581.155C583.1 355.948 584.676 354.372 584.676 352.428C584.676 350.483 583.1 348.907 581.155 348.907Z" fill="#4D6CFA"/>
<path opacity="0.3" d="M603.741 363.837H519.969C518.024 363.837 516.448 365.413 516.448 367.357C516.448 369.302 518.024 370.878 519.969 370.878H603.741C605.685 370.878 607.262 369.302 607.262 367.357C607.262 365.413 605.685 363.837 603.741 363.837Z" fill="#4D6CFA"/>
<path opacity="0.3" d="M614.03 413.475H519.969C518.025 413.475 516.448 415.051 516.448 416.995C516.448 418.94 518.025 420.516 519.969 420.516H614.03C615.975 420.516 617.551 418.94 617.551 416.995C617.551 415.051 615.975 413.475 614.03 413.475Z" fill="#FF5292"/>
<path opacity="0.3" d="M581.155 428.401H519.969C518.024 428.401 516.448 429.977 516.448 431.921C516.448 433.866 518.024 435.442 519.969 435.442H581.155C583.1 435.442 584.676 433.866 584.676 431.921C584.676 429.977 583.1 428.401 581.155 428.401Z" fill="#4D6CFA"/>
<path opacity="0.3" d="M603.741 443.33H519.969C518.024 443.33 516.448 444.906 516.448 446.851C516.448 448.795 518.024 450.372 519.969 450.372H603.741C605.685 450.372 607.262 448.795 607.262 446.851C607.262 444.906 605.685 443.33 603.741 443.33Z" fill="#4D6CFA"/>
<path opacity="0.3" d="M614.03 492.968H519.969C518.025 492.968 516.448 494.544 516.448 496.489C516.448 498.433 518.025 500.01 519.969 500.01H614.03C615.975 500.01 617.551 498.433 617.551 496.489C617.551 494.544 615.975 492.968 614.03 492.968Z" fill="#4D6CFA"/>
<path opacity="0.3" d="M581.155 507.894H519.969C518.024 507.894 516.448 509.47 516.448 511.415C516.448 513.359 518.024 514.936 519.969 514.936H581.155C583.1 514.936 584.676 513.359 584.676 511.415C584.676 509.47 583.1 507.894 581.155 507.894Z" fill="#4D6CFA"/>
<path opacity="0.3" d="M603.741 522.824H519.969C518.024 522.824 516.448 524.4 516.448 526.344C516.448 528.289 518.024 529.865 519.969 529.865H603.741C605.685 529.865 607.262 528.289 607.262 526.344C607.262 524.4 605.685 522.824 603.741 522.824Z" fill="#4D6CFA"/>
<g filter="url(#filter4_dd_123_186)">
<path d="M491.151 161.818L487.446 181.524C487.753 182.524 488.718 182.781 491.097 183.446C495.352 184.628 499.61 185.811 503.819 187.143C504.483 187.354 505.223 188.272 505.377 188.983C506.298 193.206 506.963 197.489 507.927 201.701C508.227 203.009 508.174 203.724 507.063 204.599C502.629 208.093 498.296 211.708 493.973 215.238C495.666 220.1 502.715 230.675 506.177 233.458C510.885 230.857 515.733 228.274 520.467 225.505C521.942 224.644 522.75 224.694 524.172 225.791C527.515 228.303 530.993 230.629 534.593 232.757C536.04 233.633 536.836 234.358 536.6 236.241C535.986 241.124 535.668 246.044 535.136 250.938C534.993 252.253 535.325 253.032 536.636 253.289L555.145 256.915C556.66 257.211 556.76 255.979 557.032 255.075C558.422 250.502 559.836 245.933 561.069 241.317C561.533 239.585 562.333 238.945 564.134 238.695C568.907 238.034 573.633 237.062 578.742 236.148L590.203 250.081C596.861 247.026 602.949 242.858 608.205 237.755L599.724 222.251C602.785 217.385 605.725 212.941 608.394 208.339C609.169 207.007 609.855 206.728 611.252 206.882C616.075 207.414 620.898 207.796 625.742 208.311C626.785 208.418 627.529 208.375 627.939 207.207C629.979 201.291 631.512 195.285 631.694 188.987C631.737 187.583 631.18 187.09 629.99 186.74C625.196 185.336 620.43 183.835 615.632 182.453C614.467 182.117 613.949 181.695 613.703 180.345C612.853 175.668 611.795 171.024 610.62 166.412C610.32 165.237 610.652 164.729 611.434 164.086C615.793 160.514 620.123 156.877 624.578 153.176C621.416 146.609 617.64 140.6 612.574 135.249L596.415 144.091L581.371 134.088C581.764 129.801 582.254 124.828 582.661 119.865C582.997 115.793 583.626 116.257 579.446 115.003C579.051 114.844 578.672 114.649 578.313 114.421L567.206 112.331C566.36 112.331 565.484 112.456 564.666 112.288C562.544 111.856 561.451 112.449 560.854 114.732C559.64 119.498 558.125 124.188 556.621 128.872C556.472 129.219 556.25 129.53 555.97 129.783C555.69 130.036 555.359 130.226 554.999 130.34C550.858 131.319 546.621 131.941 542.549 133.13C540.555 133.716 539.644 133.252 538.472 131.773C535.146 127.586 531.653 123.531 527.88 119.012L509.892 131.051C510.525 132.262 510.878 132.966 511.257 133.655C513.586 137.91 515.876 142.187 518.281 146.399C518.963 147.595 518.759 148.331 518.009 149.442C515.433 153.265 513.1 157.252 510.55 161.093C510.283 161.419 509.947 161.683 509.567 161.864C509.186 162.046 508.771 162.141 508.349 162.143C504.38 161.882 500.421 161.403 496.456 161.071C493.23 160.775 492.037 160.685 491.151 161.818ZM527.787 178.405C529.379 169.947 534.266 162.468 541.372 157.612C548.479 152.757 557.223 150.923 565.681 152.515V152.515C569.869 153.303 573.861 154.908 577.429 157.239C580.997 159.569 584.072 162.58 586.476 166.099C588.88 169.618 590.568 173.576 591.443 177.747C592.318 181.918 592.363 186.22 591.575 190.409V190.409C590.786 194.597 589.181 198.589 586.85 202.157C584.518 205.725 581.507 208.799 577.988 211.203C574.469 213.607 570.511 215.294 566.34 216.169C562.168 217.043 557.866 217.087 553.677 216.299V216.299C549.489 215.511 545.497 213.906 541.929 211.575C538.361 209.244 535.287 206.233 532.883 202.715C530.479 199.196 528.792 195.238 527.917 191.067C527.043 186.896 526.999 182.593 527.787 178.405Z" fill="#FF5292"/>
</g>
<g filter="url(#filter5_dd_123_186)">
<path d="M677.078 526.723H426.963C422.182 526.723 418.307 530.598 418.307 535.379V602.09C418.307 606.87 422.182 610.746 426.963 610.746H677.078C681.858 610.746 685.734 606.87 685.734 602.09V535.379C685.734 530.598 681.858 526.723 677.078 526.723Z" fill="#FCF8FF"/>
<g opacity="0.3">
<path d="M611.51 554.459H491.252C490.851 554.459 490.454 554.381 490.084 554.228C489.714 554.075 489.377 553.85 489.094 553.567C488.811 553.284 488.586 552.948 488.432 552.578C488.279 552.208 488.2 551.811 488.2 551.411C488.2 551.01 488.279 550.614 488.432 550.244C488.586 549.874 488.811 549.537 489.094 549.254C489.377 548.971 489.714 548.747 490.084 548.594C490.454 548.441 490.851 548.363 491.252 548.363H611.506C611.907 548.363 612.303 548.442 612.673 548.595C613.043 548.748 613.379 548.973 613.662 549.256C613.945 549.539 614.169 549.875 614.322 550.245C614.476 550.614 614.554 551.011 614.554 551.411C614.554 552.219 614.234 552.993 613.663 553.565C613.092 554.136 612.318 554.458 611.51 554.459V554.459Z" fill="#FF5292"/>
<path d="M657.229 554.459H625.483C624.674 554.459 623.899 554.138 623.328 553.566C622.756 552.994 622.435 552.219 622.435 551.411V551.411C622.435 550.602 622.756 549.827 623.328 549.256C623.899 548.684 624.674 548.363 625.483 548.363H657.229C658.037 548.363 658.812 548.684 659.384 549.256C659.956 549.827 660.277 550.602 660.277 551.411V551.411C660.277 552.219 659.956 552.994 659.384 553.566C658.812 554.138 658.037 554.459 657.229 554.459Z" fill="#FF5292"/>
<path d="M536.614 573.368H491.252C490.851 573.369 490.454 573.29 490.084 573.138C489.714 572.985 489.377 572.76 489.094 572.477C488.811 572.194 488.586 571.858 488.432 571.488C488.279 571.118 488.2 570.721 488.2 570.321V570.321C488.198 569.919 488.276 569.521 488.429 569.15C488.582 568.779 488.806 568.441 489.09 568.157C489.374 567.872 489.711 567.647 490.081 567.493C490.452 567.34 490.85 567.261 491.252 567.261H536.614C537.014 567.261 537.41 567.34 537.78 567.493C538.15 567.647 538.486 567.871 538.769 568.154C539.052 568.437 539.277 568.773 539.43 569.143C539.583 569.513 539.662 569.909 539.662 570.309C539.663 570.711 539.585 571.108 539.433 571.479C539.28 571.85 539.056 572.188 538.773 572.472C538.49 572.756 538.153 572.981 537.783 573.135C537.412 573.289 537.015 573.368 536.614 573.368V573.368Z" fill="#BDD1F9"/>
<path d="M610.124 573.368H547.947C547.139 573.368 546.364 573.047 545.792 572.476C545.221 571.904 544.899 571.129 544.899 570.321V570.321C544.899 569.512 545.221 568.737 545.792 568.165C546.364 567.594 547.139 567.273 547.947 567.273H610.124C610.932 567.273 611.707 567.594 612.279 568.165C612.85 568.737 613.171 569.512 613.171 570.321V570.321C613.171 571.129 612.85 571.904 612.279 572.476C611.707 573.047 610.932 573.368 610.124 573.368Z" fill="#BDD1F9"/>
<path d="M657.229 573.368H625.483C624.674 573.368 623.899 573.047 623.328 572.476C622.756 571.904 622.435 571.129 622.435 570.321V570.321C622.435 569.512 622.756 568.737 623.328 568.165C623.899 567.594 624.674 567.273 625.483 567.273H657.229C658.037 567.273 658.812 567.594 659.384 568.165C659.956 568.737 660.277 569.512 660.277 570.321V570.321C660.277 571.129 659.956 571.904 659.384 572.476C658.812 573.047 658.037 573.368 657.229 573.368Z" fill="#BDD1F9"/>
<path d="M552.82 589.718H491.252C490.851 589.718 490.454 589.64 490.084 589.487C489.714 589.334 489.377 589.109 489.094 588.826C488.811 588.543 488.586 588.207 488.432 587.837C488.279 587.467 488.2 587.07 488.2 586.67C488.2 586.269 488.279 585.872 488.432 585.502C488.586 585.132 488.811 584.796 489.094 584.513C489.377 584.23 489.714 584.006 490.084 583.853C490.454 583.7 490.851 583.621 491.252 583.622H552.817C553.217 583.621 553.614 583.7 553.984 583.853C554.354 584.006 554.691 584.23 554.974 584.513C555.258 584.796 555.483 585.132 555.636 585.502C555.789 585.872 555.868 586.269 555.868 586.67V586.67C555.868 587.478 555.547 588.253 554.976 588.825C554.404 589.396 553.629 589.718 552.82 589.718V589.718Z" fill="#BDD1F9"/>
<path d="M670.391 589.718H569.695C568.886 589.718 568.111 589.396 567.539 588.825C566.968 588.253 566.647 587.478 566.647 586.67V586.67C566.647 585.861 566.968 585.086 567.539 584.515C568.111 583.943 568.886 583.622 569.695 583.622H670.391C670.791 583.622 671.188 583.701 671.558 583.854C671.927 584.007 672.263 584.231 672.546 584.515C672.829 584.798 673.054 585.134 673.207 585.503C673.36 585.873 673.439 586.269 673.439 586.67V586.67C673.439 587.478 673.118 588.253 672.546 588.825C671.975 589.396 671.2 589.718 670.391 589.718V589.718Z" fill="#BDD1F9"/>
</g>
<path opacity="0.5" d="M478.679 543.169H426.742V595.106H478.679V543.169Z" fill="#93A4FC"/>
<path d="M464.133 567.293C465.933 568.278 465.933 570.862 464.133 571.848L446.817 581.333C445.086 582.281 442.973 581.028 442.973 579.055L442.973 560.085C442.973 558.112 445.086 556.86 446.817 557.808L464.133 567.293Z" fill="#8B9FFC"/>
</g>
<path d="M762.982 615.832C762.982 615.832 764.411 625.806 766.872 629.025C767.698 630.097 769.205 631.472 770.195 633.423C771.738 636.463 770.884 640.986 769.748 643.48C769.166 644.759 769.791 644.755 768.462 645.166C764.532 646.388 760.342 644.334 758.666 640.543C757.503 637.854 756.851 634.972 756.744 632.044C756.323 622.988 753.529 618.383 753.529 618.383L762.982 615.832Z" fill="#EEB6A9"/>
<path d="M719.951 620.383C719.951 620.383 719.068 631.629 719.783 635.284C720.169 637.242 722.305 641.272 721.322 643.112C720.34 644.951 719.222 645.416 719.222 645.416L693.821 645.827C692.439 645.848 693.353 644.955 694.468 644.13C696.293 642.779 697.769 641.886 703.599 639.046C703.981 638.864 705.385 637.974 705.864 637.671C707.218 636.771 708.442 635.689 709.501 634.455C711.323 632.415 711.484 622.509 711.484 622.509L719.951 620.383Z" fill="#EEB6A9"/>
<path d="M700.094 470.891C700.094 470.891 696.879 489.15 698.998 501.121C701.116 513.093 711.176 624.049 711.176 624.049L722.38 624.685C722.38 624.685 724.731 578.331 724.309 571.886C723.887 565.441 720.565 554.652 720.565 554.652L721.68 517.23L707.543 468.065L700.094 470.891Z" fill="#F12F77"/>
<path d="M733.005 467.05C733.005 467.05 741.829 480.401 743.926 491.451C746.023 502.5 742.386 536.464 746.427 550.944C748.613 558.782 756.901 570.889 758.163 581.017C759.424 591.146 764.365 617.679 764.365 617.679L753.168 619.912L727.146 553.648L706.732 493.751L701.502 462.906L733.005 467.05Z" fill="#FF5292"/>
<path d="M757.902 638.539C764.007 639.657 768.066 636.067 770.181 633.38C771.731 636.424 772.488 640.968 771.345 643.469C770.341 645.673 767.416 645.612 765.093 645.695C762.65 645.787 760.756 644.419 759.545 642.279C758.874 641.09 758.323 639.837 757.902 638.539Z" fill="#BDD1F9"/>
<path d="M705.853 637.667C712.573 639.4 717.539 638.224 720.318 637.095C721.033 639.139 721.983 641.7 721.48 643.169C720.861 644.98 719.983 645.387 719.207 645.409C713.073 645.57 696.733 645.791 692.056 645.852C691.909 645.853 691.765 645.812 691.64 645.734C691.516 645.655 691.416 645.543 691.354 645.41C691.291 645.277 691.268 645.128 691.288 644.982C691.307 644.837 691.368 644.699 691.463 644.587C692.635 643.201 705.367 637.981 705.853 637.667Z" fill="#BDD1F9"/>
<path d="M659.889 439.349C659.421 438.352 664.355 436.998 664.534 435.926C664.712 434.854 658.074 435.458 657.746 434.565C657.135 432.922 664.948 433.458 664.716 432.682C664.483 431.907 656.449 430.957 657.156 429.514C657.864 428.07 665.373 431.368 665.502 430.425C665.63 429.481 658.235 427.984 658.153 425.955C658.11 424.884 670.457 430.114 671.75 429.388C673.043 428.663 669.707 423.883 670.707 423.019C671.707 422.154 676.037 432.146 676.819 432.439C677.602 432.732 694.539 437.852 700.298 438.699C700.784 436.748 705.117 426.016 705.532 424.176C708.915 426.091 713.224 423.787 716.685 425.494C714.942 431.639 711.03 451.878 709.469 452.789C704.707 455.561 679.663 442.332 675.53 439.992C671.396 437.652 669.271 438.766 666.57 438.17C663.869 437.573 660.357 440.342 659.889 439.349Z" fill="#E49C8C"/>
<path d="M704.453 379.73C703.196 374.014 701.952 368.241 705.282 361.95C707.969 356.859 712.616 353.93 717.993 353.29C733.23 351.482 729.972 365.708 751.268 368.784C757.884 369.742 764.032 370.663 769.555 373.954C779.534 379.895 783.299 389.426 776.701 404.956C760.499 442.982 721.737 409.958 715.825 403.213C709.941 396.539 705.264 383.417 704.453 379.73Z" fill="#624129"/>
<path d="M728.435 397.807C728.435 397.807 736.127 398.679 740.728 403.684C745.33 408.689 733.29 448.927 732.454 455.3C731.619 461.673 740.457 479.304 740.457 479.304C740.457 479.304 710.412 485.274 702.588 480.118C702.588 480.118 701.902 430.875 702.742 426.323C703.581 421.772 710.551 403.266 712.223 401.448C713.895 399.629 728.435 397.807 728.435 397.807Z" fill="#BDD1F9"/>
<path d="M724.563 382.295C724.563 382.295 724.624 382.653 724.731 383.217C725.249 386.011 727.232 395.267 728.596 397.815C730.225 400.89 723.012 410.701 716.071 409.504C714.006 409.147 717.818 400.487 717.636 399.572C717.279 397.815 716.811 395.421 716.321 392.967C716.046 391.58 715.771 390.176 715.507 388.855C714.767 385.103 714.16 382.035 714.16 382.035L724.563 382.295Z" fill="#EEB6A9"/>
<path opacity="0.5" d="M724.731 383.217C724.624 382.638 724.563 382.295 724.563 382.295L714.16 382.035C714.16 382.035 714.767 385.103 715.507 388.855C715.767 390.169 716.046 391.566 716.317 392.942C717.925 392.706 719.601 391.927 721.283 390.459C723.003 388.957 724.299 387.032 725.045 384.875C724.917 384.217 724.809 383.653 724.731 383.217Z" fill="#E49C8C"/>
<path d="M718.304 357.574C721.214 358.156 723.813 359.775 725.62 362.128C728.693 366.094 732.008 378.362 724.374 385.032C716.739 391.702 709.194 384.153 708.076 376.147C706.957 368.141 707.183 357.284 718.304 357.574Z" fill="#EEB6A9"/>
<path d="M705.854 374.172C706.336 376.101 707.601 377.387 708.676 377.083C709.751 376.779 710.241 374.94 709.748 373.007C709.255 371.074 708.001 369.792 706.922 370.095C705.843 370.399 705.368 372.242 705.854 374.172Z" fill="#EEB6A9"/>
<path d="M713.592 357.606C713.592 357.606 723.563 369.038 728.239 369.591C732.916 370.145 733.541 376.329 733.541 376.329C733.541 376.329 731.865 362.039 727.225 359.292C722.584 356.545 713.592 357.606 713.592 357.606Z" fill="#624129"/>
<path d="M726.717 372.371C726.335 374.443 727.103 376.344 728.428 376.615C729.754 376.887 731.14 375.429 731.519 373.357C731.897 371.285 731.136 369.384 729.807 369.113C728.478 368.841 727.096 370.299 726.717 372.371Z" fill="#EEB6A9"/>
<path d="M726.86 430.46L694.643 435.173C694.179 435.244 693.762 435.495 693.482 435.871C693.202 436.248 693.081 436.719 693.146 437.184L699.434 480.161C699.505 480.625 699.756 481.042 700.133 481.322C700.509 481.602 700.98 481.723 701.445 481.658L733.658 476.946C734.122 476.875 734.539 476.623 734.819 476.247C735.099 475.871 735.22 475.399 735.155 474.935L728.868 431.957C728.796 431.494 728.546 431.078 728.17 430.798C727.795 430.518 727.324 430.397 726.86 430.46Z" fill="#1C0E82"/>
<path d="M702.831 432.561C702.824 432.514 702.826 432.467 702.838 432.421C702.849 432.375 702.87 432.332 702.898 432.294C702.926 432.256 702.962 432.224 703.002 432.2C703.043 432.176 703.088 432.16 703.135 432.154L716.571 430.189C716.618 430.182 716.665 430.184 716.711 430.195C716.757 430.207 716.8 430.227 716.838 430.256C716.876 430.284 716.908 430.319 716.932 430.36C716.956 430.401 716.972 430.446 716.978 430.492L717.182 431.889L703.035 433.958L702.831 432.561Z" fill="#0A26A5"/>
<path d="M709.605 429.464C710.024 429.402 710.453 429.467 710.835 429.649C711.218 429.831 711.539 430.123 711.756 430.487C711.973 430.851 712.077 431.271 712.055 431.695C712.033 432.118 711.886 432.526 711.633 432.866C711.38 433.206 711.031 433.463 710.631 433.605C710.232 433.746 709.799 433.767 709.388 433.662C708.977 433.558 708.606 433.335 708.322 433.02C708.038 432.705 707.854 432.312 707.793 431.893C707.712 431.331 707.857 430.759 708.196 430.303C708.536 429.848 709.042 429.546 709.605 429.464V429.464ZM710.112 432.943C710.381 432.904 710.633 432.786 710.835 432.604C711.038 432.422 711.181 432.184 711.248 431.92C711.315 431.656 711.302 431.379 711.211 431.122C711.12 430.866 710.955 430.642 710.737 430.479C710.519 430.316 710.257 430.222 709.985 430.208C709.714 430.194 709.444 430.261 709.21 430.401C708.976 430.54 708.789 430.746 708.673 430.992C708.556 431.238 708.515 431.513 708.554 431.782C708.608 432.142 708.802 432.466 709.094 432.684C709.386 432.901 709.752 432.994 710.112 432.943Z" fill="#0A26A5"/>
<path d="M702.995 432.204C702.935 432.24 702.887 432.293 702.858 432.357C702.828 432.421 702.817 432.491 702.827 432.561L703.031 433.958L717.178 431.889C717.242 432.353 717.121 432.823 716.842 433.198C716.563 433.574 716.147 433.825 715.685 433.897L705.039 435.455C704.575 435.518 704.104 435.397 703.729 435.117C703.353 434.837 703.103 434.421 703.031 433.958L702.827 432.561C702.817 432.491 702.828 432.421 702.858 432.357C702.887 432.293 702.935 432.24 702.995 432.204V432.204Z" fill="#699DEE"/>
<path d="M749.46 441.449L737.789 442.643C737.789 442.643 737.978 452.549 737.789 453.689C737.789 453.689 717.829 459.223 709.487 460.723C709.487 460.723 705.686 458.58 704.15 457.887C702.614 457.194 698.484 456.458 697.569 456.336C696.655 456.215 696.969 457.215 697.752 457.565C698.534 457.915 700.567 458.873 701.142 460.044C701.142 460.044 699.495 460.223 698.641 459.834C697.787 459.444 696.569 458.623 696.548 458.197C696.526 457.772 696.333 456.743 696.044 456.797C695.972 456.797 695.876 457.154 695.776 457.511C695.676 457.869 695.587 458.19 695.504 458.53C695.358 459.137 695.19 460.023 695.122 460.423C694.976 461.331 695.529 463.842 695.608 464.732C695.751 466.361 696.215 467.082 697.076 467.497C698.697 468.034 700.376 468.375 702.078 468.511C706.047 468.922 709.698 467.797 711.291 467.6C712.885 467.404 738.3 464.9 738.3 464.9C738.3 464.9 748.403 463.445 749.074 461.706C749.746 459.966 749.46 441.449 749.46 441.449Z" fill="#EEB6A9"/>
<path d="M739.321 402.23C739.321 402.23 743.004 403.977 746.241 411.519C749.321 418.689 750.224 454.471 750.224 454.471L738.013 452.435L731.808 435.751C729.618 430.848 728.758 425.455 729.314 420.113C729.869 414.772 731.821 409.672 734.973 405.324C736.692 402.973 738.274 401.555 739.321 402.23Z" fill="#BDD1F9"/>
<defs>
<filter id="filter0_dd_123_186" x="110.252" y="194.199" width="634.931" height="36.8342" filterUnits="userSpaceOnUse" color-interpolation-filters="sRGB">
<feFlood flood-opacity="0" result="BackgroundImageFix"/>
<feColorMatrix in="SourceAlpha" type="matrix" values="0 0 0 0 0 0 0 0 0 0 0 0 0 0 0 0 0 0 127 0" result="hardAlpha"/>
<feMorphology radius="1.68375" operator="erode" in="SourceAlpha" result="effect1_dropShadow_123_186"/>
<feOffset dx="1.73121" dy="3.46241"/>
<feGaussianBlur stdDeviation="2.59681"/>
<feColorMatrix type="matrix" values="0 0 0 0 0.108473 0 0 0 0 0.0561 0 0 0 0 0.51 0 0 0 0.08 0"/>
<feBlend mode="normal" in2="BackgroundImageFix" result="effect1_dropShadow_123_186"/>
<feColorMatrix in="SourceAlpha" type="matrix" values="0 0 0 0 0 0 0 0 0 0 0 0 0 0 0 0 0 0 127 0" result="hardAlpha"/>
<feMorphology radius="1.68375" operator="erode" in="SourceAlpha" result="effect2_dropShadow_123_186"/>
<feOffset dy="1.73121"/>
<feGaussianBlur stdDeviation="1.68375"/>
<feColorMatrix type="matrix" values="0 0 0 0 0.108473 0 0 0 0 0.0561 0 0 0 0 0.51 0 0 0 0.12 0"/>
<feBlend mode="normal" in2="effect1_dropShadow_123_186" result="effect2_dropShadow_123_186"/>
<feBlend mode="normal" in="SourceGraphic" in2="effect2_dropShadow_123_186" result="shape"/>
</filter>
<filter id="filter1_dd_123_186" x="110.252" y="224.013" width="634.931" height="369.311" filterUnits="userSpaceOnUse" color-interpolation-filters="sRGB">
<feFlood flood-opacity="0" result="BackgroundImageFix"/>
<feColorMatrix in="SourceAlpha" type="matrix" values="0 0 0 0 0 0 0 0 0 0 0 0 0 0 0 0 0 0 127 0" result="hardAlpha"/>
<feMorphology radius="1.68375" operator="erode" in="SourceAlpha" result="effect1_dropShadow_123_186"/>
<feOffset dx="1.73121" dy="3.46241"/>
<feGaussianBlur stdDeviation="2.59681"/>
<feColorMatrix type="matrix" values="0 0 0 0 0.108473 0 0 0 0 0.0561 0 0 0 0 0.51 0 0 0 0.08 0"/>
<feBlend mode="normal" in2="BackgroundImageFix" result="effect1_dropShadow_123_186"/>
<feColorMatrix in="SourceAlpha" type="matrix" values="0 0 0 0 0 0 0 0 0 0 0 0 0 0 0 0 0 0 127 0" result="hardAlpha"/>
<feMorphology radius="1.68375" operator="erode" in="SourceAlpha" result="effect2_dropShadow_123_186"/>
<feOffset dy="1.73121"/>
<feGaussianBlur stdDeviation="1.68375"/>
<feColorMatrix type="matrix" values="0 0 0 0 0.108473 0 0 0 0 0.0561 0 0 0 0 0.51 0 0 0 0.12 0"/>
<feBlend mode="normal" in2="effect1_dropShadow_123_186" result="effect2_dropShadow_123_186"/>
<feBlend mode="normal" in="SourceGraphic" in2="effect2_dropShadow_123_186" result="shape"/>
</filter>
<filter id="filter2_dd_123_186" x="41.1573" y="252.924" width="366.956" height="258.176" filterUnits="userSpaceOnUse" color-interpolation-filters="sRGB">
<feFlood flood-opacity="0" result="BackgroundImageFix"/>
<feColorMatrix in="SourceAlpha" type="matrix" values="0 0 0 0 0 0 0 0 0 0 0 0 0 0 0 0 0 0 127 0" result="hardAlpha"/>
<feMorphology radius="1.68375" operator="erode" in="SourceAlpha" result="effect1_dropShadow_123_186"/>
<feOffset dx="1.73121" dy="3.46241"/>
<feGaussianBlur stdDeviation="2.59681"/>
<feColorMatrix type="matrix" values="0 0 0 0 0.108473 0 0 0 0 0.0561 0 0 0 0 0.51 0 0 0 0.08 0"/>
<feBlend mode="normal" in2="BackgroundImageFix" result="effect1_dropShadow_123_186"/>
<feColorMatrix in="SourceAlpha" type="matrix" values="0 0 0 0 0 0 0 0 0 0 0 0 0 0 0 0 0 0 127 0" result="hardAlpha"/>
<feMorphology radius="1.68375" operator="erode" in="SourceAlpha" result="effect2_dropShadow_123_186"/>
<feOffset dy="1.73121"/>
<feGaussianBlur stdDeviation="1.68375"/>
<feColorMatrix type="matrix" values="0 0 0 0 0.108473 0 0 0 0 0.0561 0 0 0 0 0.51 0 0 0 0.12 0"/>
<feBlend mode="normal" in2="effect1_dropShadow_123_186" result="effect2_dropShadow_123_186"/>
<feBlend mode="normal" in="SourceGraphic" in2="effect2_dropShadow_123_186" result="shape"/>
</filter>
<filter id="filter3_dd_123_186" x="53.6261" y="349.237" width="108.656" height="131.318" filterUnits="userSpaceOnUse" color-interpolation-filters="sRGB">
<feFlood flood-opacity="0" result="BackgroundImageFix"/>
<feColorMatrix in="SourceAlpha" type="matrix" values="0 0 0 0 0 0 0 0 0 0 0 0 0 0 0 0 0 0 127 0" result="hardAlpha"/>
<feMorphology radius="1.73121" operator="erode" in="SourceAlpha" result="effect1_dropShadow_123_186"/>
<feOffset dy="3.46241"/>
<feGaussianBlur stdDeviation="1.73121"/>
<feColorMatrix type="matrix" values="0 0 0 0 0.0941176 0 0 0 0 0.152941 0 0 0 0 0.294118 0 0 0 0.08 0"/>
<feBlend mode="normal" in2="BackgroundImageFix" result="effect1_dropShadow_123_186"/>
<feColorMatrix in="SourceAlpha" type="matrix" values="0 0 0 0 0 0 0 0 0 0 0 0 0 0 0 0 0 0 127 0" result="hardAlpha"/>
<feMorphology radius="1.73121" operator="erode" in="SourceAlpha" result="effect2_dropShadow_123_186"/>
<feOffset dy="1.73121"/>
<feGaussianBlur stdDeviation="1.73121"/>
<feColorMatrix type="matrix" values="0 0 0 0 0.0941176 0 0 0 0 0.152941 0 0 0 0 0.294118 0 0 0 0.12 0"/>
<feBlend mode="normal" in2="effect1_dropShadow_123_186" result="effect2_dropShadow_123_186"/>
<feBlend mode="normal" in="SourceGraphic" in2="effect2_dropShadow_123_186" result="shape"/>
</filter>
<filter id="filter4_dd_123_186" x="487.446" y="112.157" width="150.985" height="151.538" filterUnits="userSpaceOnUse" color-interpolation-filters="sRGB">
<feFlood flood-opacity="0" result="BackgroundImageFix"/>
<feColorMatrix in="SourceAlpha" type="matrix" values="0 0 0 0 0 0 0 0 0 0 0 0 0 0 0 0 0 0 127 0" result="hardAlpha"/>
<feMorphology radius="1.68375" operator="erode" in="SourceAlpha" result="effect1_dropShadow_123_186"/>
<feOffset dx="5.05125" dy="5.05125"/>
<feGaussianBlur stdDeviation="1.68375"/>
<feColorMatrix type="matrix" values="0 0 0 0 0.85 0 0 0 0 0.1275 0 0 0 0 0.394783 0 0 0 0.08 0"/>
<feBlend mode="normal" in2="BackgroundImageFix" result="effect1_dropShadow_123_186"/>
<feColorMatrix in="SourceAlpha" type="matrix" values="0 0 0 0 0 0 0 0 0 0 0 0 0 0 0 0 0 0 127 0" result="hardAlpha"/>
<feMorphology radius="1.68375" operator="erode" in="SourceAlpha" result="effect2_dropShadow_123_186"/>
<feOffset dx="1.68375" dy="3.3675"/>
<feGaussianBlur stdDeviation="1.68375"/>
<feColorMatrix type="matrix" values="0 0 0 0 0.85 0 0 0 0 0.1275 0 0 0 0 0.394783 0 0 0 0.12 0"/>
<feBlend mode="normal" in2="effect1_dropShadow_123_186" result="effect2_dropShadow_123_186"/>
<feBlend mode="normal" in="SourceGraphic" in2="effect2_dropShadow_123_186" result="shape"/>
</filter>
<filter id="filter5_dd_123_186" x="416.623" y="526.723" width="270.795" height="89.1689" filterUnits="userSpaceOnUse" color-interpolation-filters="sRGB">
<feFlood flood-opacity="0" result="BackgroundImageFix"/>
<feColorMatrix in="SourceAlpha" type="matrix" values="0 0 0 0 0 0 0 0 0 0 0 0 0 0 0 0 0 0 127 0" result="hardAlpha"/>
<feMorphology radius="1.68375" operator="erode" in="SourceAlpha" result="effect1_dropShadow_123_186"/>
<feOffset dy="3.46241"/>
<feGaussianBlur stdDeviation="1.68375"/>
<feColorMatrix type="matrix" values="0 0 0 0 0.108473 0 0 0 0 0.0561 0 0 0 0 0.51 0 0 0 0.08 0"/>
<feBlend mode="normal" in2="BackgroundImageFix" result="effect1_dropShadow_123_186"/>
<feColorMatrix in="SourceAlpha" type="matrix" values="0 0 0 0 0 0 0 0 0 0 0 0 0 0 0 0 0 0 127 0" result="hardAlpha"/>
<feMorphology radius="1.68375" operator="erode" in="SourceAlpha" result="effect2_dropShadow_123_186"/>
<feOffset dy="1.73121"/>
<feGaussianBlur stdDeviation="1.68375"/>
<feColorMatrix type="matrix" values="0 0 0 0 0.108473 0 0 0 0 0.0561 0 0 0 0 0.51 0 0 0 0.12 0"/>
<feBlend mode="normal" in2="effect1_dropShadow_123_186" result="effect2_dropShadow_123_186"/>
<feBlend mode="normal" in="SourceGraphic" in2="effect2_dropShadow_123_186" result="shape"/>
</filter>
</defs>
</svg>
