<svg width="675" height="773" viewBox="0 0 675 773" fill="none" xmlns="http://www.w3.org/2000/svg">
<g opacity="0.02">
<path d="M224.428 340.019L224.428 122.575L112.923 122.575L112.923 649.551H224.371V431.88H337.294L337.294 645.293C337.294 715.352 280.52 772.07 210.461 772.07H0L0 0L210.518 0C280.577 0 337.351 56.774 337.351 126.833V340.019H224.428Z" fill="#FCF8FF"/>
<path d="M450.333 432.107L450.333 649.551H561.78L561.78 122.575H450.333L450.333 340.19H337.41L337.41 126.776C337.41 56.7172 394.184 0 464.243 0L674.761 0L674.761 772.126H464.243C394.184 772.126 337.41 715.352 337.41 645.293V432.107H450.333Z" fill="#FCF8FF"/>
</g>
</svg>
