<svg width="1749" height="1648" viewBox="0 0 1749 1648" fill="none" xmlns="http://www.w3.org/2000/svg">
<g opacity="0.02">
<path d="M734.095 1012.04L335.187 903.133L280.376 1111.55L1247.13 1375.48L1301.91 1167.17L902.587 1058.15L958.096 847.08L1349.61 953.966C1478.13 989.054 1554.28 1123.58 1519.84 1254.53L1416.38 1647.92L0 1261.23L103.482 867.742C137.921 736.791 269.982 659.106 398.507 694.194L789.603 800.966L734.095 1012.04Z" fill="#FCF8FF"/>
<path d="M1014.08 635.907L1412.99 744.811L1467.77 536.499L501.016 272.568L446.233 480.881L845.453 589.871L789.945 800.943L398.432 694.057C269.906 658.968 193.765 524.443 228.203 393.491L331.686 -5.68377e-06L1748.17 386.711L1644.69 780.202C1610.25 911.154 1478.19 988.839 1349.67 953.75L958.569 846.978L1014.08 635.907Z" fill="#FCF8FF"/>
</g>
</svg>
