<svg width="196" height="54" viewBox="0 0 196 54" fill="none" xmlns="http://www.w3.org/2000/svg">
<path d="M13.7264 24.1199V10.8206H6.9066V43.0514H13.7229V29.7383H20.6295V42.791C20.6295 47.0759 17.1571 50.5449 12.8722 50.5449H0V3.32373H12.8757C17.1606 3.32373 20.633 6.79613 20.633 11.0811V24.1199H13.7264Z" fill="#4D6CFA"/>
<path d="M27.5433 29.7521V43.0514H34.3596V10.8206H27.5433V24.1303H20.6367V11.0776C20.6367 6.79266 24.1091 3.32373 28.3941 3.32373H41.2697V50.5483H28.3941C24.1091 50.5483 20.6367 47.0759 20.6367 42.791V29.7521H27.5433Z" fill="#FF5292"/>
<path d="M53.1863 39V15.7464H57.6848V39H53.1863ZM67.7735 39V15.7464H72.2721V39H67.7735ZM56.031 28.9775V25.0082H69.0305V28.9775H56.031ZM76.7277 39V23.0235H81.094V39H76.7277ZM78.9108 20.4435C78.2052 20.4435 77.6208 20.2119 77.1577 19.7488C76.6946 19.2637 76.4631 18.6683 76.4631 17.9626C76.4631 17.279 76.6946 16.6947 77.1577 16.2095C77.6208 15.7244 78.2052 15.4818 78.9108 15.4818C79.6385 15.4818 80.2229 15.7244 80.664 16.2095C81.127 16.6947 81.3586 17.279 81.3586 17.9626C81.3586 18.6683 81.127 19.2637 80.664 19.7488C80.2229 20.2119 79.6385 20.4435 78.9108 20.4435ZM85.0979 39V23.0235H89.4311V39H85.0979ZM89.4311 30.1683L87.7441 29.0436C87.9426 27.081 88.5159 25.5374 89.4642 24.4128C90.4124 23.2661 91.7796 22.6927 93.5658 22.6927C94.3376 22.6927 95.0322 22.825 95.6497 23.0897C96.2671 23.3322 96.8294 23.7402 97.3366 24.3135L94.6243 27.4228C94.3817 27.1582 94.084 26.9597 93.7312 26.8274C93.4004 26.6951 93.0145 26.629 92.5734 26.629C91.6473 26.629 90.8865 26.9267 90.2911 27.5221C89.7177 28.0954 89.4311 28.9775 89.4311 30.1683ZM106.213 39.3308C104.537 39.3308 103.048 38.9779 101.747 38.2723C100.446 37.5446 99.4098 36.5523 98.638 35.2953C97.8883 34.0384 97.5134 32.605 97.5134 30.9952C97.5134 29.4075 97.8772 27.9962 98.6049 26.7613C99.3547 25.5043 100.369 24.512 101.648 23.7843C102.927 23.0345 104.349 22.6597 105.915 22.6597C107.459 22.6597 108.815 23.0125 109.984 23.7181C111.174 24.4017 112.101 25.35 112.762 26.5628C113.446 27.7536 113.788 29.1098 113.788 30.6314C113.788 30.918 113.766 31.2157 113.721 31.5245C113.699 31.8111 113.644 32.1419 113.556 32.5168L100.127 32.5499V29.3083L111.538 29.2752L109.785 30.6314C109.741 29.6831 109.565 28.8893 109.256 28.2498C108.969 27.6103 108.539 27.1251 107.966 26.7944C107.415 26.4415 106.731 26.2651 105.915 26.2651C105.055 26.2651 104.305 26.4636 103.666 26.8605C103.026 27.2354 102.53 27.7757 102.177 28.4813C101.847 29.1649 101.681 29.9808 101.681 30.9291C101.681 31.8993 101.858 32.7483 102.21 33.476C102.585 34.1817 103.115 34.733 103.798 35.1299C104.482 35.5048 105.276 35.6922 106.18 35.6922C106.996 35.6922 107.734 35.5599 108.396 35.2953C109.057 35.0086 109.631 34.5897 110.116 34.0384L112.663 36.5853C111.891 37.4895 110.943 38.1731 109.818 38.6361C108.716 39.0992 107.514 39.3308 106.213 39.3308ZM127.879 39.3308C126.181 39.3308 124.604 39.0331 123.149 38.4377C121.694 37.8202 120.415 36.9712 119.312 35.8907C118.232 34.7881 117.394 33.5091 116.798 32.0537C116.225 30.5983 115.938 29.0326 115.938 27.3567C115.938 25.6807 116.225 24.1151 116.798 22.6597C117.394 21.2042 118.232 19.9363 119.312 18.8557C120.415 17.7752 121.683 16.9262 123.116 16.3088C124.571 15.6913 126.159 15.3826 127.879 15.3826C129.731 15.3826 131.363 15.6913 132.775 16.3088C134.186 16.9042 135.432 17.7311 136.512 18.7896L133.469 21.8327C132.83 21.1271 132.047 20.5758 131.121 20.1788C130.195 19.7819 129.114 19.5834 127.879 19.5834C126.799 19.5834 125.806 19.7709 124.902 20.1458C124.02 20.4986 123.248 21.0278 122.587 21.7335C121.925 22.4171 121.418 23.244 121.065 24.2143C120.712 25.1625 120.536 26.21 120.536 27.3567C120.536 28.5254 120.712 29.5839 121.065 30.5321C121.418 31.4804 121.925 32.3073 122.587 33.013C123.248 33.6966 124.02 34.2258 124.902 34.6007C125.806 34.9756 126.799 35.163 127.879 35.163C129.18 35.163 130.294 34.9645 131.22 34.5676C132.168 34.1707 132.962 33.6083 133.602 32.8806L136.645 35.9238C135.564 37.0043 134.307 37.8423 132.874 38.4377C131.441 39.0331 129.776 39.3308 127.879 39.3308ZM139.474 39V15.0849H143.808V39H139.474ZM154.494 39.3308C153.039 39.3308 151.726 38.9669 150.558 38.2392C149.389 37.5115 148.474 36.5192 147.812 35.2622C147.151 34.0053 146.82 32.594 146.82 31.0283C146.82 29.4406 147.151 28.0182 147.812 26.7613C148.474 25.5043 149.389 24.512 150.558 23.7843C151.726 23.0566 153.039 22.6927 154.494 22.6927C155.641 22.6927 156.666 22.9243 157.57 23.3874C158.474 23.8504 159.191 24.501 159.72 25.3389C160.272 26.1549 160.569 27.081 160.613 28.1175V33.873C160.569 34.9315 160.272 35.8687 159.72 36.6846C159.191 37.5005 158.474 38.151 157.57 38.6361C156.666 39.0992 155.641 39.3308 154.494 39.3308ZM155.288 35.3284C156.501 35.3284 157.482 34.9315 158.232 34.1376C158.982 33.3217 159.356 32.2742 159.356 30.9952C159.356 30.1573 159.18 29.4185 158.827 28.779C158.496 28.1175 158.022 27.6103 157.405 27.2574C156.809 26.8826 156.104 26.6951 155.288 26.6951C154.494 26.6951 153.788 26.8826 153.171 27.2574C152.575 27.6103 152.101 28.1175 151.749 28.779C151.418 29.4185 151.252 30.1573 151.252 30.9952C151.252 31.8552 151.418 32.616 151.749 33.2776C152.101 33.9171 152.575 34.4243 153.171 34.7991C153.788 35.152 154.494 35.3284 155.288 35.3284ZM159.125 39V34.6999L159.819 30.7968L159.125 26.9597V23.0235H163.425V39H159.125ZM172.915 39.3639C172.01 39.3639 171.117 39.2426 170.235 39C169.375 38.7574 168.581 38.4267 167.854 38.0077C167.126 37.5666 166.498 37.0374 165.968 36.4199L168.548 33.8068C169.1 34.4243 169.739 34.8873 170.467 35.1961C171.195 35.5048 171.999 35.6592 172.882 35.6592C173.587 35.6592 174.116 35.5599 174.469 35.3615C174.844 35.163 175.032 34.8653 175.032 34.4684C175.032 34.0273 174.833 33.6855 174.436 33.443C174.061 33.2004 173.565 33.0019 172.948 32.8476C172.33 32.6711 171.68 32.4837 170.996 32.2852C170.335 32.0647 169.695 31.7891 169.078 31.4583C168.46 31.1055 167.953 30.6314 167.556 30.036C167.181 29.4185 166.994 28.6247 166.994 27.6544C166.994 26.64 167.236 25.7579 167.721 25.0082C168.229 24.2584 168.945 23.674 169.871 23.2551C170.798 22.8361 171.889 22.6266 173.146 22.6266C174.469 22.6266 175.66 22.8581 176.719 23.3212C177.799 23.7843 178.692 24.4789 179.398 25.4051L176.785 28.0182C176.3 27.4228 175.748 26.9928 175.131 26.7282C174.535 26.4636 173.885 26.3313 173.179 26.3313C172.54 26.3313 172.044 26.4305 171.691 26.629C171.36 26.8274 171.195 27.1031 171.195 27.4559C171.195 27.8528 171.382 28.1616 171.757 28.3821C172.154 28.6026 172.661 28.8011 173.278 28.9775C173.896 29.1318 174.535 29.3193 175.197 29.5398C175.881 29.7383 176.52 30.0249 177.115 30.3998C177.733 30.7747 178.229 31.2709 178.604 31.8883C179.001 32.5058 179.199 33.2996 179.199 34.2699C179.199 35.8356 178.637 37.0815 177.512 38.0077C176.388 38.9118 174.855 39.3639 172.915 39.3639ZM187.778 39.3639C186.873 39.3639 185.98 39.2426 185.098 39C184.238 38.7574 183.444 38.4267 182.717 38.0077C181.989 37.5666 181.36 37.0374 180.831 36.4199L183.411 33.8068C183.963 34.4243 184.602 34.8873 185.33 35.1961C186.058 35.5048 186.862 35.6592 187.744 35.6592C188.45 35.6592 188.979 35.5599 189.332 35.3615C189.707 35.163 189.895 34.8653 189.895 34.4684C189.895 34.0273 189.696 33.6855 189.299 33.443C188.924 33.2004 188.428 33.0019 187.811 32.8476C187.193 32.6711 186.543 32.4837 185.859 32.2852C185.197 32.0647 184.558 31.7891 183.941 31.4583C183.323 31.1055 182.816 30.6314 182.419 30.036C182.044 29.4185 181.857 28.6247 181.857 27.6544C181.857 26.64 182.099 25.7579 182.584 25.0082C183.092 24.2584 183.808 23.674 184.734 23.2551C185.661 22.8361 186.752 22.6266 188.009 22.6266C189.332 22.6266 190.523 22.8581 191.581 23.3212C192.662 23.7843 193.555 24.4789 194.261 25.4051L191.648 28.0182C191.162 27.4228 190.611 26.9928 189.994 26.7282C189.398 26.4636 188.748 26.3313 188.042 26.3313C187.403 26.3313 186.907 26.4305 186.554 26.629C186.223 26.8274 186.058 27.1031 186.058 27.4559C186.058 27.8528 186.245 28.1616 186.62 28.3821C187.017 28.6026 187.524 28.8011 188.141 28.9775C188.759 29.1318 189.398 29.3193 190.06 29.5398C190.744 29.7383 191.383 30.0249 191.978 30.3998C192.596 30.7747 193.092 31.2709 193.467 31.8883C193.864 32.5058 194.062 33.2996 194.062 34.2699C194.062 35.8356 193.5 37.0815 192.375 38.0077C191.251 38.9118 189.718 39.3639 187.778 39.3639Z" fill="#FCF8FF"/>
</svg>
