<?xml version="1.0" encoding="utf-8"?>
<!-- Generator: Adobe Illustrator 24.3.0, SVG Export Plug-In . SVG Version: 6.00 Build 0)  -->
<svg version="1.1" xmlns="http://www.w3.org/2000/svg" xmlns:xlink="http://www.w3.org/1999/xlink" x="0px" y="0px"
	 viewBox="0 0 1014.35 424.34" style="enable-background:new 0 0 1014.35 424.34;" xml:space="preserve">
<style type="text/css">
	.st0{fill:#7189FB;}
	.st1{fill:#889DFC;}
	.st2{fill:#4D6CFA;}
	.st3{fill:#5875FA;}
	.st4{fill:#A2B3FC;}
	.st5{fill:#FFF1F6;}
	.st6{fill:#FF78AA;}
	.st7{fill:#FF89B5;}
	.st8{fill:#F2F2F2;}
	.st9{fill:#FF5292;}
	.st10{fill:#FFE5EF;}
	.st11{fill:#FFFFFF;}
	.st12{fill:#5673FA;}
	.st13{fill:#6B85FB;}
	.st14{fill:#5D79FA;}
	.st15{fill:none;stroke:#FFF5F8;stroke-width:3.5622;stroke-linecap:round;stroke-miterlimit:10;}
	.st16{fill:#DEDEDE;}
	.st17{fill:#E9E9EB;}
	.st18{fill:#DFDEE2;}
	.st19{fill:#EBEBED;}
	.st20{fill:#FCFCFC;}
	.st21{fill:#D6D6D6;}
	.st22{fill:#FFC8DC;}
	.st23{fill:#FFEEF4;}
	.st24{fill:url(#SVGID_1_);}
	.st25{fill:url(#SVGID_2_);}
	.st26{fill:url(#SVGID_3_);}
	.st27{fill:url(#SVGID_4_);}
	.st28{fill:url(#SVGID_5_);}
	.st29{fill:url(#SVGID_6_);}
	.st30{fill:url(#SVGID_7_);}
	.st31{fill:url(#SVGID_8_);}
	.st32{fill:url(#SVGID_9_);}
	.st33{fill:url(#SVGID_10_);}
	.st34{fill:url(#SVGID_11_);}
</style>
<g id="Background">
</g>
<g id="Layer_1">
	<g>
		<g>
			<path class="st0" d="M259.16,177.61c5.85,52-20.58,100.18-63.32,124.55c-0.24,0.14-0.5,0.29-0.74,0.42
				c-14.36,8.05-30.47,13.97-47.86,15.93c-4.75,0.53-9.55,0.7-14.19,0.27c-10.65-1.01-16.02-8.01-13.99-16.55
				c8.37-35.41-3.52-53.99-24.56-54.2c-14.18-0.14-19.41,9.77-21.8,15.22c-12.84,29.35-31.2,16.2-43.24,2.08
				C17.37,248.35,9.3,228.16,6.81,205.98C-1.03,136.3,49.11,73.46,118.8,65.62C188.49,57.79,251.33,107.92,259.16,177.61z"/>
			<path class="st1" d="M195.84,302.16c-0.24,0.14-0.5,0.29-0.75,0.43c-14.36,8.05-30.47,13.97-47.86,15.93
				c-4.75,0.54-9.55,0.71-14.2,0.26c-7.42-0.7-12.28-4.32-13.84-9.33c15.2,6.74,33.42-1.84,25.62-13.83
				c-18.91-29.03,8.96-50.59,35.43-40.99c14.37,5.22,39.91,12.4,42.6-3.9c5.84-35.41-41.65-40.78-26.19-68.62
				c15.46-27.83-14.84-32.44-25.48-45.14c-24.4-29.11,8.08-60.83,33.08-50.27c3.89,2.64,7.63,5.49,11.2,8.53
				c23.65,20.19,39.97,49.04,43.72,82.37C265.01,229.61,238.59,277.79,195.84,302.16z"/>
		</g>
		<path class="st2" d="M66.01,152.51c0.51,10.91-7.92,20.17-18.83,20.69c-10.91,0.51-20.17-7.92-20.68-18.83
			c-0.51-10.91,7.92-20.17,18.83-20.68C56.24,133.17,65.5,141.6,66.01,152.51z"/>
		<path class="st2" d="M61.27,213.25c0.51,10.91-7.92,20.17-18.83,20.68c-10.91,0.51-20.17-7.92-20.68-18.83
			c-0.51-10.91,7.92-20.17,18.83-20.68C51.49,193.91,60.75,202.34,61.27,213.25z"/>
		<g>
			<path class="st3" d="M170.21,297.49c-10.91,0.51-20.17-7.92-20.68-18.83c-0.03-0.64-0.03-1.28,0-1.92
				c0.1-1.97,0.49-3.86,1.13-5.64c-1.31,2.49-2.13,5.27-2.27,8.22c-0.03,0.63-0.03,1.27,0,1.92c0.51,10.91,9.77,19.34,20.68,18.83
				c8.24-0.39,15.07-5.76,17.69-13.08C183.59,292.96,177.45,297.15,170.21,297.49z"/>
			<path class="st2" d="M149.52,278.66c0.51,10.91,9.77,19.34,20.68,18.83c7.24-0.34,13.38-4.53,16.55-10.5
				c0.85-2.37,1.26-4.94,1.14-7.61c-0.03-0.64-0.09-1.28-0.18-1.91c-1.43-9.97-10.23-17.41-20.5-16.92
				c-7.26,0.34-13.4,4.56-16.56,10.54c-0.64,1.78-1.03,3.68-1.13,5.64C149.5,277.38,149.49,278.01,149.52,278.66z"/>
			<path class="st4" d="M166.21,264.48c9.32-0.44,17.31,6.31,18.61,15.36c0.08,0.57,0.14,1.15,0.17,1.73
				c0.11,2.42-0.26,4.76-1.03,6.91c1.46-2.75,2.23-5.91,2.07-9.25c-0.03-0.59-0.08-1.16-0.17-1.73c-1.3-9.05-9.29-15.8-18.61-15.36
				c-7.5,0.35-13.69,5.26-16.07,11.91C154.05,268.61,159.62,264.79,166.21,264.48z"/>
		</g>
		<path class="st5" d="M194.27,98.94c-0.32,0.04-0.62,0.11-0.94,0.16c-0.32-0.02-0.63-0.06-0.95-0.07
			c-10.17,1.25-17.81,10.15-17.32,20.55c0.49,10.4,8.92,18.54,19.16,18.84c0.32-0.04,0.63-0.11,0.94-0.16
			c0.32,0.02,0.63,0.06,0.95,0.07c10.17-1.25,17.81-10.15,17.32-20.55C212.95,107.38,204.51,99.24,194.27,98.94z M211.55,117.87
			c0.03,0.64,0.03,1.27,0,1.9C211.58,119.15,211.58,118.51,211.55,117.87c-0.03-0.64-0.09-1.27-0.18-1.89
			C211.46,116.6,211.52,117.23,211.55,117.87z M211.24,115.31c-0.07-0.39-0.13-0.78-0.23-1.16
			C211.11,114.53,211.17,114.92,211.24,115.31z M210.78,113.33c-0.09-0.31-0.17-0.63-0.27-0.93
			C210.61,112.7,210.69,113.01,210.78,113.33z M210.15,111.49c-0.1-0.26-0.2-0.52-0.31-0.77
			C209.96,110.97,210.05,111.23,210.15,111.49z M209.36,109.75c-0.11-0.21-0.21-0.43-0.33-0.63
			C209.15,109.33,209.25,109.54,209.36,109.75z M208.42,108.12c-0.11-0.17-0.21-0.34-0.32-0.5
			C208.21,107.79,208.31,107.96,208.42,108.12z M207.34,106.6c-0.1-0.12-0.19-0.25-0.29-0.37
			C207.15,106.35,207.24,106.48,207.34,106.6z M206.12,105.2c-0.08-0.09-0.16-0.18-0.25-0.26
			C205.96,105.02,206.04,105.11,206.12,105.2z M204.8,103.93c-0.06-0.06-0.13-0.12-0.19-0.17
			C204.67,103.81,204.73,103.87,204.8,103.93z M200.26,100.95c-0.01,0-0.02-0.01-0.02-0.01
			C200.25,100.94,200.26,100.94,200.26,100.95z M203.37,102.79c-0.04-0.03-0.09-0.07-0.13-0.1
			C203.28,102.72,203.33,102.76,203.37,102.79z M201.86,101.8c-0.03-0.01-0.05-0.03-0.07-0.04
			C201.81,101.76,201.83,101.78,201.86,101.8z M205.96,132.57c0.06-0.06,0.12-0.13,0.17-0.19
			C206.07,132.45,206.02,132.51,205.96,132.57z M201.87,135.79c0.01,0,0.01-0.01,0.02-0.01
			C201.89,135.78,201.88,135.79,201.87,135.79z M203.33,134.84c0.02-0.02,0.04-0.03,0.07-0.05
			C203.38,134.8,203.36,134.82,203.33,134.84z M204.7,133.76c0.04-0.04,0.08-0.07,0.12-0.11
			C204.78,133.69,204.74,133.73,204.7,133.76z M211.48,120.45c-0.03,0.39-0.06,0.79-0.12,1.18
			C211.42,121.24,211.45,120.84,211.48,120.45z M211.21,122.47c-0.06,0.32-0.11,0.64-0.19,0.96
			C211.1,123.11,211.15,122.79,211.21,122.47z M210.76,124.36c-0.08,0.27-0.15,0.54-0.24,0.8
			C210.61,124.9,210.68,124.63,210.76,124.36z M210.13,126.16c-0.09,0.22-0.17,0.44-0.27,0.66
			C209.96,126.6,210.04,126.38,210.13,126.16z M209.35,127.87c-0.09,0.18-0.17,0.35-0.27,0.53
			C209.17,128.22,209.26,128.04,209.35,127.87z M208.41,129.49c-0.09,0.13-0.17,0.27-0.25,0.4
			C208.24,129.75,208.32,129.62,208.41,129.49z M207.33,131c-0.07,0.09-0.14,0.19-0.22,0.28C207.19,131.19,207.26,131.09,207.33,131
			z"/>
		<path class="st2" d="M176.95,119.49c-0.49-10.4,7.15-19.3,17.32-20.55c-0.5-0.01-1.01-0.02-1.52,0.01
			c-10.91,0.51-19.34,9.77-18.83,20.68c0.51,10.91,9.77,19.34,20.69,18.83c0.51-0.02,1.01-0.07,1.51-0.13
			C185.88,138.04,177.44,129.9,176.95,119.49z"/>
		<path class="st6" d="M190.98,100.89c-0.28,0.08-0.54,0.19-0.81,0.28c8.83-0.8,17.07,5.06,19,13.94
			c1.93,8.88-3.14,17.64-11.5,20.57c0.29-0.03,0.57-0.04,0.85-0.08c8.85-2.64,14.3-11.69,12.31-20.86
			C208.84,105.58,200.12,99.62,190.98,100.89z"/>
		<g>
			<path class="st7" d="M227.15,188.67c8.01-0.38,14.68-5.47,17.46-12.47c0.24-1.4,0.34-2.85,0.27-4.33
				c-0.51-10.91-9.77-19.34-20.68-18.83c-8.01,0.38-14.68,5.47-17.46,12.47c-0.24,1.4-0.34,2.85-0.27,4.33
				C206.98,180.75,216.24,189.18,227.15,188.67z"/>
			<path class="st2" d="M227.15,188.67c-10.91,0.51-20.17-7.92-20.68-18.83c-0.07-1.48,0.03-2.93,0.27-4.33
				c-1.01,2.53-1.51,5.31-1.37,8.21c0.51,10.91,9.77,19.34,20.68,18.83c9.43-0.44,17.01-7.43,18.56-16.36
				C241.83,183.2,235.16,188.29,227.15,188.67z"/>
			<path class="st8" d="M210.41,161.36c-0.14,0.25-0.26,0.51-0.38,0.77c5.78-6.71,15.78-8.24,23.35-3.2
				c7.57,5.04,10.02,14.85,6.06,22.78c0.19-0.22,0.38-0.42,0.56-0.65c4.52-8.05,2.14-18.35-5.67-23.55
				C226.51,152.31,216.09,154.09,210.41,161.36z"/>
		</g>
		<g>
			<path class="st9" d="M217.82,255.66c-10.91,0.51-20.17-7.92-20.68-18.83c-0.03-0.65-0.03-1.29,0-1.92
				c0.1-1.97,0.49-3.86,1.13-5.64c-1.31,2.49-2.12,5.27-2.27,8.22c-0.03,0.63-0.03,1.27,0,1.92c0.51,10.91,9.77,19.34,20.68,18.83
				c8.24-0.39,15.07-5.76,17.69-13.08C231.2,251.13,225.06,255.32,217.82,255.66z"/>
			<path class="st9" d="M197.13,236.82c0.51,10.91,9.77,19.34,20.68,18.83c7.24-0.34,13.38-4.53,16.55-10.5
				c0.85-2.37,1.26-4.94,1.14-7.61c-0.03-0.64-0.09-1.28-0.18-1.91c-1.43-9.97-10.23-17.4-20.5-16.92
				c-7.26,0.34-13.4,4.56-16.56,10.54c-0.64,1.78-1.03,3.68-1.13,5.64C197.11,235.54,197.1,236.18,197.13,236.82z"/>
			<path class="st10" d="M214.22,222.45c9.32-0.44,17.31,6.31,18.61,15.36c0.08,0.57,0.14,1.15,0.17,1.73
				c0.11,2.42-0.26,4.76-1.03,6.9c1.46-2.75,2.23-5.91,2.07-9.25c-0.03-0.59-0.08-1.16-0.17-1.73c-1.3-9.05-9.29-15.8-18.61-15.36
				c-7.5,0.35-13.69,5.26-16.07,11.91C202.06,226.58,207.63,222.75,214.22,222.45z"/>
		</g>
		<g>
			<path class="st11" d="M118.18,244.86c-13.16,0.62-24.33-9.55-24.94-22.71c-0.62-13.16,9.55-24.33,22.71-24.94
				c13.16-0.62,24.33,9.55,24.94,22.71C141.5,233.07,131.34,244.24,118.18,244.86z"/>
			<path class="st12" d="M115.71,192.19c-15.93,0.75-28.24,14.26-27.49,30.19c0.75,15.93,14.26,28.23,30.19,27.49
				c15.93-0.75,28.23-14.26,27.49-30.19C145.15,203.75,131.64,191.44,115.71,192.19z M118.18,244.86
				c-13.16,0.62-24.33-9.55-24.94-22.71c-0.62-13.16,9.55-24.33,22.71-24.94c13.16-0.62,24.33,9.55,24.94,22.71
				C141.5,233.07,131.34,244.24,118.18,244.86z"/>
		</g>
		<path class="st2" d="M155.15,93.71c0.51,10.91-7.92,20.17-18.83,20.69c-10.91,0.51-20.17-7.92-20.68-18.83
			c-0.51-10.91,7.92-20.17,18.83-20.68C145.37,74.37,154.63,82.8,155.15,93.71z"/>
		<g>
			<path class="st13" d="M93.78,315.87l0.02,0c0.01-0.03,0.06-0.17,0.13-0.38C93.88,315.62,93.83,315.74,93.78,315.87z"/>
			<path class="st14" d="M63.26,85.65c-2.14,1.41-4.24,2.89-6.28,4.42L62.15,102c0,0-9.11,24.32-9.86,28.16
				c-0.25,1.23,0.74,5.24,2.02,10.88c0,0,0,0,0,0.01c2.71,12.04,6.84,31.52,3.61,47.37l1.13,19.85l0.86,14.63l1.49,26.17l0.25,4.56
				c0,0,2.99,1.9,8.07,4.21l3.48,4.29c2.6-5.58,8.04-14.22,21.29-14.09c15.18,0.15,25.59,9.87,27.07,28.57l12.72-17.6
				c-0.01,0-0.01,0-0.02,0.01c3.05-1.59,6.08-3.48,9.08-5.73l2.38-28.98h0.03l0.83-10.11l0.36-4.58l5.35-64.7
				c0,0,1.81-19.99-2.39-21.56c-7.59-2.83-9.19-7.74-9.75-11.47c-0.45-3.04-0.28-5.6,5.04-11.26c2.91-3.08,8.12-16.87,12.26-28.83
				c-0.15-0.06-0.29-0.12-0.44-0.18c0.15,0.06,0.29,0.12,0.44,0.18c0.51-1.47,1-2.91,1.47-4.3c-12.86-2.68-26.36-3.41-40.13-1.86
				C98.26,67.93,79.42,75.02,63.26,85.65 M71.56,258.65c0.8,0.34,1.64,0.69,2.52,1.04C73.19,259.4,72.36,259.02,71.56,258.65z"/>
		</g>
		<g>
			<g>
				<path class="st6" d="M97.52,297.22c0,0-2.88,12.8,0.08,17.78c1.6,7.02,20.9,14.19,11.41,21.26
					c-3.02,2.25-10.43-0.87-10.38,10.93c0.05,11.78,3.69,14.94-0.82,20.63c-4.51,5.69-17.31,2.57-20.07,7.79
					c-2.76,5.23,1,7.48,0.05,11.11c-0.96,3.63-6.58,12.95-17.93,11.18c-11.34-1.77-21.84-18.95-17.36-30.07
					c4.49-11.13,9-15.68,16.93-15.72c7.93-0.04,7.45-8.19,5.61-11.81c-1.83-3.62-10.22-5.17-5.73-14.71
					c4.49-9.54,11.46-0.5,18.18-4.16c6.72-3.66,7.01-20.3,6.36-25.41L97.52,297.22z"/>
				<g>
					<path class="st9" d="M81.72,315.87l0.02,0c0.01-0.03,0.06-0.17,0.13-0.38C81.82,315.62,81.77,315.74,81.72,315.87z"/>
					<path class="st9" d="M97.6,315c-2.96-4.98-0.02-19.04-0.02-19.04l-13.72,0.06c0.45,3.5,0.45,12.4-1.75,18.84
						c0.74-1.84,2.58-5.41,5.57-4.18c3.89,1.59,4.37,9.74,4.83,13.47c0.46,3.74,4.2,4.02,5.66,3.64c0,0,2.2-0.01,0.74,2.64
						c-1.46,2.65-6.74-0.49-8.05,4.51c-1.3,5,2.56,16.05-0.51,17.98c-3.07,1.92-10.25-1.81-13.35,0.06c-3.91,2.34-5.14,4.42-2,13.21
						c0.67,2.42-4.01,6.47-4.36,9.4c-0.36,2.94,1.87,14.17-9.48,14.06c-6.24-0.06-15.78-5.19-19.67-14.68
						c0.71,10.18,9.25,21.51,18.35,22.93c11.34,1.76,16.97-7.55,17.93-11.18c0.96-3.63-2.81-5.88-0.05-11.11
						c2.76-5.22,15.57-2.1,20.07-7.79c4.51-5.69,0.87-8.85,0.82-20.63c-0.05-11.79,7.36-8.68,10.38-10.93
						C118.5,329.19,99.2,322.02,97.6,315z"/>
				</g>
				<g>
					<path class="st15" d="M49.45,366.7c3.75-7.94,6.67-8.65,10.01-8.66c2.34-0.01,4.23-0.48,5.76-1.18"/>
					<path class="st15" d="M47.72,377.22c-0.55-1.78-0.89-3.93,0.16-6.37"/>
					<path class="st15" d="M65.74,332.87c-2.89-2.56-1.42-6.45,2.18-5.41"/>
					<path class="st15" d="M69.04,335.76c0,0,3.87,4.76,2.96,9.95"/>
				</g>
				<g>
					<path class="st9" d="M81.89,320.11c0.56-1.83,0.36-4.06,0.72-6.88c-1,3.69-2.61,6.84-5.11,8.2c-3.63,1.97-7.32,0.26-10.66-0.25
						C66.98,321.25,79.73,327.18,81.89,320.11z"/>
					<path class="st9" d="M83.43,309.37L83.43,309.37C83.43,309.37,83.43,309.37,83.43,309.37S83.43,309.37,83.43,309.37z"/>
				</g>
				<path class="st9" d="M60.51,335.9c1.68,1.63,3.74,2.82,4.54,4.4c1.83,3.62,2.32,11.77-5.61,11.81c-1.41,0.01-2.69,0.21-3.9,0.52
					c1.07,0.25,9.11,2.04,11.43-2.56c2.49-4.93,1.11-9.97-0.86-11.47C65.37,338.04,62.79,337.18,60.51,335.9z"/>
			</g>
			<g>
				<g>
					<path class="st16" d="M103.45,284.98l-24.52-0.95l-21.27-26.2c1.38,0.53,2.83,1.38,4.47,1.9c12.93,4.09,34.54,6.88,60.11-0.73
						L103.45,284.98z"/>
					<path class="st17" d="M103.45,284.98l-18.38-0.72c0.18-0.05,0.33-0.07,0.51-0.09c0.03,0,0.08-0.02,0.1-0.02
						c15.4-2.53,19.7-10.2,19.7-10.2c-28.16-0.63-42.68-14-42.68-14c13.37,2.65,33.95,6.65,59.52-0.96L103.45,284.98z"/>
					<path class="st18" d="M103.45,284.99c-17.11-0.98-24.52-0.95-24.52-0.95c-0.94,1.09-2.9,3.39-0.23,5.95
						c0,0,6.04,2.37,24.52,0.96C105.27,288.86,105.13,286.89,103.45,284.99z"/>
					<path class="st17" d="M78.7,289.98c-2,2.02-2.02,4-0.23,5.96c0,0,6.05,2.37,24.52,0.95c1.48-1.77,1.73-3.73,0.23-5.95
						L78.7,289.98z"/>
				</g>
				<g>
					<g>
						<path class="st16" d="M129.09,82.2c0.79-6.47-6.91-18.26-6.91-18.26c-0.82-0.2-1.62-0.4-2.41-0.58
							c-0.79-0.17-1.59-0.37-2.38-0.52c-1.02-0.23-2.05-0.43-3.07-0.63c-0.54-0.13-1.08-0.23-1.59-0.33
							c-0.36-0.07-0.72-0.13-1.05-0.17c-2.77-0.5-5.46-0.87-8.07-1.17c-0.77-0.1-1.54-0.17-2.28-0.25
							c-0.74-0.07-1.46-0.15-2.18-0.19c-0.49-0.05-0.97-0.1-1.46-0.12c-0.41-0.02-0.79-0.05-1.21-0.07
							c-4.99-0.33-9.75-0.31-14.23-0.09c-0.46,0-0.92,0.03-1.38,0.05c-0.43,0.03-0.87,0.06-1.28,0.08
							c-3.68,0.25-7.16,0.67-10.41,1.17c-0.39,0.06-0.79,0.14-1.18,0.19c-0.51,0.08-1,0.18-1.48,0.26
							c-5.09,0.92-9.58,2.09-13.42,3.28c-0.38,0.11-0.74,0.24-1.1,0.34c-0.51,0.15-0.99,0.34-1.48,0.49
							c-2.43,0.83-4.55,1.63-6.33,2.41c-0.44,0.18-0.84,0.34-1.25,0.51c-1.2,0.52-2.2,1.01-3.04,1.43
							c-0.28,0.13-0.56,0.26-0.79,0.39c-1,0.51-1.68,0.9-1.99,1.08c-0.08,0.03-0.13,0.08-0.18,0.1c-0.03,0.03-0.05,0.03-0.05,0.03
							l0.49,1.1l29.44,27.56c0,0-18.06,18.44-24.59,40.76c2.71,12.04,6.84,31.52,3.61,47.37l1.13,19.85l0.86,14.63l1.49,26.17
							c36.73,21.69,68.82-7.85,68.82-7.85c0.43-2.12,0.84-7.98,1.17-14.36c0.28-5.3,0.51-10.95,0.65-15.02
							c0.14-3.43,0.2-5.7,0.2-5.7c-3.39-31.56,4.96-37.02,1.87-65.43c-3.09-28.44-28.22-35.39-28.22-35.39
							C122.35,101.73,129.09,82.2,129.09,82.2z"/>
						<path class="st19" d="M140.24,144.9l-5.35,64.7c-1.58,0.29-3.17,0.55-4.7,0.79c-3.53,0.55-6.93,1.05-10.2,1.45
							c0.14-3.43,0.2-5.7,0.2-5.7c-3.39-31.56,4.96-37.02,1.87-65.43c-3.09-28.44-28.22-35.39-28.22-35.39
							c28.52-3.58,35.26-23.11,35.26-23.11c0.79-6.47-6.91-18.26-6.91-18.26c2.41,0.6,4.84,1.28,7.32,2.04
							c0.28,0.1,0.59,0.18,0.9,0.28c0.54,0.18,1.1,0.35,1.67,0.53c0.21,0.08,0.41,0.13,0.61,0.2c0.87,0.27,1.77,0.58,2.66,0.91
							c3.28,1.13,6.64,2.43,10.05,3.87c-4.15,11.96-9.36,25.75-12.26,28.83c-5.32,5.65-5.49,8.21-5.04,11.26
							c0.56,3.73,2.16,8.64,9.75,11.47C142.04,124.91,140.24,144.9,140.24,144.9z"/>
						<path class="st8" d="M151.61,52.97c0,0-2.73,8.76-6.21,18.8c-4.54-1.92-9-3.56-13.33-4.98c-0.56-0.18-1.12-0.35-1.66-0.53
							c-0.31-0.1-0.62-0.18-0.9-0.28c-2.49-0.76-4.92-1.43-7.32-2.04c-2.69-0.68-5.3-1.26-7.86-1.73c-0.54-0.12-1.07-0.22-1.59-0.32
							c-0.36-0.07-0.72-0.12-1.05-0.17c-4.33-0.78-8.5-1.29-12.52-1.61c-0.49-0.05-0.97-0.1-1.46-0.12
							c-0.41-0.03-0.79-0.05-1.2-0.07c-4.99-0.34-9.75-0.32-14.22-0.09c-0.46,0-0.92,0.03-1.38,0.05c-0.44,0.03-0.87,0.06-1.28,0.08
							c-3.68,0.25-7.16,0.67-10.41,1.17c-0.38,0.05-0.79,0.13-1.17,0.18c-0.52,0.08-1,0.18-1.48,0.26
							c-5.09,0.92-9.59,2.09-13.42,3.28c-0.38,0.11-0.74,0.23-1.1,0.34c-0.51,0.15-1,0.33-1.48,0.49
							c-8.81,2.98-13.64,5.95-13.64,5.95l-4.18-21.66c4.93-1.76,9.73-3.24,14.41-4.49c0.46-0.13,0.89-0.26,1.33-0.37
							c0.41-0.1,0.84-0.21,1.25-0.31c4.6-1.2,9.07-2.11,13.39-2.85c0.44-0.11,0.87-0.16,1.3-0.24c0.44-0.08,0.9-0.16,1.33-0.21
							c4.71-0.74,9.26-1.27,13.6-1.57c0.49-0.05,0.97-0.09,1.46-0.11c0.41-0.03,0.82-0.05,1.23-0.05c5.71-0.36,11.1-0.33,16.2-0.1
							l2.69,0.14c5.35,0.33,10.31,0.93,14.9,1.7c0.54,0.1,1.08,0.17,1.59,0.27c0.33,0.05,0.69,0.13,1.02,0.18
							c6.02,1.1,11.32,2.49,15.8,3.9c0.49,0.15,0.98,0.3,1.46,0.45c0.36,0.13,0.72,0.23,1.08,0.35
							C146.36,49.9,151.61,52.97,151.61,52.97z"/>
						<path class="st19" d="M66.85,100.29c0,0-18.06,18.44-24.59,40.76c-1.28-5.65-2.27-9.66-2.02-10.89
							C40.99,126.32,50.1,102,50.1,102L37.41,72.73L66.85,100.29z"/>
						<path class="st20" d="M80.24,247.18c0,0-16.56,2.09-22.54-7.54c-2.25-3.63-6.79-31.56-4.24-47.65
							c1.32-8.33,2.35-9.99,2.19-19.21c-0.19-10.97-3.22-31.37-3.29-33.44c0,0,4.53-17.73,15.92-23.31
							C68.27,116.04,67.38,224.66,80.24,247.18z"/>
						<g>
							<g>
								<path class="st21" d="M53.13,64.86c-0.38,0.11-0.74,0.23-1.1,0.34c-0.51,0.15-1,0.33-1.48,0.49l-3.41-20.2
									c0.46-0.13,0.89-0.26,1.33-0.37c0.41-0.1,0.84-0.21,1.25-0.31L53.13,64.86z"/>
							</g>
							<g>
								<path class="st21" d="M69.21,61.13c-0.38,0.05-0.79,0.13-1.17,0.18c-0.52,0.08-1,0.18-1.48,0.26l-3.44-19.61
									c0.44-0.11,0.87-0.16,1.3-0.24c0.44-0.08,0.9-0.16,1.33-0.21L69.21,61.13z"/>
							</g>
							<g>
								<path class="st21" d="M82.28,59.82c-0.46,0-0.92,0.03-1.38,0.05c-0.44,0.03-0.87,0.06-1.28,0.08l-0.27-20.01
									c0.49-0.05,0.97-0.09,1.46-0.11c0.41-0.03,0.82-0.05,1.23-0.05L82.28,59.82z"/>
							</g>
							<g>
								<path class="st21" d="M100.92,39.83l-1.76,20.27c-0.49-0.05-0.97-0.1-1.46-0.12c-0.41-0.03-0.79-0.05-1.2-0.07l1.73-20.22
									L100.92,39.83z"/>
							</g>
							<g>
								<path class="st21" d="M118.43,41.98l-4.11,20.23c-0.54-0.12-1.07-0.22-1.59-0.32c-0.36-0.07-0.72-0.12-1.05-0.17l4.13-20.18
									c0.54,0.1,1.08,0.17,1.59,0.27C117.74,41.86,118.1,41.93,118.43,41.98z"/>
							</g>
							<g>
								<path class="st21" d="M136.77,46.69l-4.7,20.11c-0.56-0.18-1.12-0.35-1.66-0.53c-0.31-0.1-0.62-0.18-0.9-0.28l4.72-20.1
									c0.49,0.15,0.98,0.3,1.46,0.45C136.05,46.46,136.41,46.56,136.77,46.69z"/>
							</g>
						</g>
						<path class="st20" d="M68.17,92.22c0,0-19.85-14.89-23.05-18.22c-3.2-3.33,22.94-6.79,22.94-6.79S62.72,78.23,68.17,92.22z"/>
						<path class="st20" d="M89.67,92.34c0,0,24.03,1.04,34.29-6.56c0,0-17.17,18.37-38.52,16.63L89.67,92.34z"/>
					</g>
					<path class="st9" d="M133.67,224.29l-2.38,28.98c-37.72,28.38-81.7,0.35-81.7,0.35l-0.25-4.56
						c36.73,21.69,68.82-7.85,68.82-7.85c0.43-2.12,0.84-7.98,1.17-14.36C123.91,226.2,128.69,225.34,133.67,224.29z"/>
					<path class="st6" d="M119.98,211.84c-0.14,4.07-0.37,9.73-0.65,15.02c-0.33,6.38-0.74,12.24-1.17,14.36
						c0,0-32.08,29.54-68.82,7.85l-1.49-26.17l-0.86-14.63c1.41,0.51,3.35,1.14,5.89,1.82c4.59,1.18,11.04,2.46,19.59,3.22
						C84.25,214.35,99.93,214.38,119.98,211.84z"/>
					<path class="st22" d="M134.89,209.6l-0.36,4.58l-0.85,10.11c-4.98,1.05-9.76,1.91-14.34,2.57c0.28-5.3,0.51-10.95,0.65-15.02
						c3.27-0.39,6.67-0.9,10.2-1.45C131.72,210.15,133.3,209.89,134.89,209.6z"/>
					<path class="st23" d="M119.98,211.84c-0.14,4.07-0.37,9.73-0.65,15.02c-18.05,2.69-33.02,2.65-44.67,1.52
						c-8.58-0.78-15.36-2.18-20.31-3.49c-2.74-0.73-4.92-1.41-6.51-2l-0.86-14.63c1.41,0.51,3.35,1.14,5.89,1.82
						c4.59,1.18,11.04,2.46,19.59,3.22C84.25,214.35,99.93,214.38,119.98,211.84z"/>
					<polygon class="st23" points="134.52,214.18 133.7,224.29 133.67,224.29 					"/>
				</g>
			</g>
		</g>
	</g>
	<g>
		<g>
			<linearGradient id="SVGID_1_" gradientUnits="userSpaceOnUse" x1="333.9936" y1="212.0365" x2="784.1409" y2="212.0365">
				<stop  offset="0.0819" style="stop-color:#FFFFFF"/>
				<stop  offset="0.4093" style="stop-color:#21409A"/>
			</linearGradient>
			<path class="st24" d="M331.43,164.37v77.82h-18.81v-77.82H331.43z"/>
			<linearGradient id="SVGID_2_" gradientUnits="userSpaceOnUse" x1="333.9936" y1="212.0365" x2="784.1409" y2="212.0365">
				<stop  offset="0.0819" style="stop-color:#FFFFFF"/>
				<stop  offset="0.4093" style="stop-color:#21409A"/>
			</linearGradient>
			<path class="st25" d="M362.54,208.9v33.29h-18.58v-58.36h17.67v10.72h0.65c1.29-3.55,3.5-6.35,6.61-8.4
				c3.12-2.05,6.83-3.08,11.13-3.08c4.1,0,7.67,0.91,10.7,2.74c3.03,1.82,5.38,4.38,7.07,7.68c1.68,3.29,2.51,7.13,2.49,11.51v37.2
				h-18.58v-33.55c0.02-3.24-0.79-5.78-2.45-7.6s-3.96-2.74-6.9-2.74s-5.3,0.94-7.09,2.81C363.47,202.99,362.57,205.58,362.54,208.9
				z"/>
			<linearGradient id="SVGID_3_" gradientUnits="userSpaceOnUse" x1="333.9936" y1="212.0365" x2="784.1409" y2="212.0365">
				<stop  offset="0.0819" style="stop-color:#FFFFFF"/>
				<stop  offset="0.4093" style="stop-color:#21409A"/>
			</linearGradient>
			<path class="st26" d="M412.57,242.19v-77.82h18.58v40.35h0.84l16.42-20.9h21.05l-20.71,25.42l21.54,32.94h-21.47l-13.91-22.08
				l-3.76,4.56v17.52H412.57z"/>
			<linearGradient id="SVGID_4_" gradientUnits="userSpaceOnUse" x1="333.9936" y1="212.0365" x2="784.1409" y2="212.0365">
				<stop  offset="0.0819" style="stop-color:#FFFFFF"/>
				<stop  offset="0.4093" style="stop-color:#21409A"/>
			</linearGradient>
			<path class="st27" d="M501.74,243.29c-9.17,0-16.38-2.67-21.64-8.02c-5.26-5.35-7.88-12.69-7.88-22.04
				c0-6.03,1.19-11.3,3.57-15.83c2.38-4.52,5.74-8.04,10.07-10.56c4.33-2.52,9.44-3.78,15.31-3.78c5.52,0,10.41,1.15,14.67,3.44
				c4.26,2.29,7.59,5.66,9.99,10.09c2.41,4.43,3.61,9.85,3.61,16.26v4.64h-38.91v0.49c0,3.57,1.03,6.45,3.1,8.62
				c2.06,2.18,4.88,3.27,8.45,3.27c2.43,0,4.55-0.51,6.35-1.54c1.8-1.03,3.05-2.5,3.76-4.43l17.06,0.49
				c-1.06,5.73-4,10.3-8.82,13.74C515.62,241.57,509.39,243.29,501.74,243.29z M490.53,206.7h21.62c-0.03-2.99-1.03-5.44-3.02-7.35
				c-1.99-1.91-4.52-2.87-7.58-2.87c-3.09,0-5.67,0.98-7.73,2.93S490.66,203.79,490.53,206.7z"/>
			<linearGradient id="SVGID_5_" gradientUnits="userSpaceOnUse" x1="333.9936" y1="212.0365" x2="784.1409" y2="212.0365">
				<stop  offset="0.0819" style="stop-color:#FFFFFF"/>
				<stop  offset="0.4093" style="stop-color:#21409A"/>
			</linearGradient>
			<path class="st28" d="M561.04,243.02c-4.28,0-8.19-1.12-11.72-3.36c-3.53-2.24-6.35-5.58-8.45-10.01
				c-2.1-4.43-3.15-9.97-3.15-16.61c0-6.86,1.09-12.51,3.27-16.93c2.18-4.42,5.04-7.7,8.59-9.84s7.35-3.21,11.4-3.21
				c4.61,0,8.24,1.12,10.89,3.36c2.65,2.24,4.51,4.71,5.6,7.39h0.38v-29.45h18.58v77.82h-18.39v-9.46h-0.57
				c-1.17,2.69-3.09,5.07-5.78,7.16C569,241.98,565.45,243.02,561.04,243.02z M567.5,228.55c3.39,0,6.04-1.41,7.92-4.22
				c1.89-2.81,2.83-6.59,2.83-11.32c0-4.76-0.94-8.52-2.83-11.29c-1.89-2.76-4.53-4.14-7.92-4.14c-3.45,0-6.09,1.4-7.94,4.2
				c-1.85,2.8-2.77,6.54-2.77,11.23c0,4.71,0.92,8.48,2.77,11.3C561.41,227.13,564.06,228.55,567.5,228.55z"/>
			<linearGradient id="SVGID_6_" gradientUnits="userSpaceOnUse" x1="333.9936" y1="212.0365" x2="784.1409" y2="212.0365">
				<stop  offset="0.0819" style="stop-color:#FFFFFF"/>
				<stop  offset="0.4093" style="stop-color:#21409A"/>
			</linearGradient>
			<path class="st29" d="M608.95,242.19v-77.82h54.26v15.27h-35.45v15.96h32.68v15.31h-32.68v16h35.45v15.28H608.95z"/>
			<linearGradient id="SVGID_7_" gradientUnits="userSpaceOnUse" x1="333.9936" y1="212.0365" x2="784.1409" y2="212.0365">
				<stop  offset="0.0819" style="stop-color:#FFFFFF"/>
				<stop  offset="0.4093" style="stop-color:#21409A"/>
			</linearGradient>
			<path class="st30" d="M694.31,208.9v33.29h-18.58v-58.36h17.67v10.72h0.65c1.29-3.55,3.5-6.35,6.61-8.4
				c3.12-2.05,6.83-3.08,11.13-3.08c4.1,0,7.67,0.91,10.7,2.74c3.03,1.82,5.38,4.38,7.07,7.68c1.68,3.29,2.51,7.13,2.49,11.51v37.2
				h-18.58v-33.55c0.02-3.24-0.79-5.78-2.45-7.6s-3.96-2.74-6.9-2.74s-5.3,0.94-7.09,2.81C695.25,202.99,694.34,205.58,694.31,208.9
				z"/>
			<linearGradient id="SVGID_8_" gradientUnits="userSpaceOnUse" x1="333.9936" y1="212.0365" x2="784.1409" y2="212.0365">
				<stop  offset="0.0819" style="stop-color:#FFFFFF"/>
				<stop  offset="0.4093" style="stop-color:#21409A"/>
			</linearGradient>
			<path class="st31" d="M753.66,177.02c-2.61,0-4.85-0.87-6.73-2.6c-1.88-1.73-2.81-3.83-2.81-6.29c0-2.46,0.94-4.55,2.81-6.27
				c1.87-1.72,4.12-2.58,6.73-2.58c2.63,0,4.88,0.86,6.74,2.58c1.86,1.72,2.79,3.81,2.79,6.27c0,2.46-0.93,4.55-2.79,6.29
				C758.54,176.15,756.29,177.02,753.66,177.02z M744.35,242.19v-58.36h18.58v58.36H744.35z"/>
			<linearGradient id="SVGID_9_" gradientUnits="userSpaceOnUse" x1="333.9936" y1="212.0365" x2="784.1409" y2="212.0365">
				<stop  offset="0.0819" style="stop-color:#FFFFFF"/>
				<stop  offset="0.4093" style="stop-color:#21409A"/>
			</linearGradient>
			<path class="st32" d="M802.66,264.8c-8.31,0-14.82-1.67-19.53-5c-4.71-3.33-7.41-7.43-8.09-12.29l17.59-0.99
				c0.51,1.54,1.64,2.83,3.4,3.86c1.76,1.03,4.14,1.54,7.12,1.54c3.12,0,5.69-0.74,7.73-2.2c2.04-1.47,3.06-3.95,3.06-7.45V232
				h-0.65c-1.09,2.69-3.04,4.92-5.85,6.71c-2.81,1.79-6.37,2.68-10.68,2.68c-4.26,0-8.15-0.99-11.68-2.98
				c-3.53-1.99-6.36-5.08-8.47-9.27c-2.12-4.19-3.17-9.59-3.17-16.21c0-6.84,1.09-12.46,3.27-16.87c2.18-4.41,5.04-7.68,8.59-9.8
				c3.55-2.13,7.35-3.19,11.4-3.19c4.61,0,8.24,1.12,10.89,3.36c2.65,2.24,4.53,4.71,5.64,7.39h0.53v-9.99h18.5v58.59
				c0,4.79-1.25,8.85-3.74,12.18c-2.5,3.33-5.96,5.86-10.39,7.6C813.69,263.93,808.54,264.8,802.66,264.8z M803.23,227.86
				c3.39,0,6.04-1.32,7.92-3.95c1.89-2.63,2.83-6.29,2.83-10.98c0-4.74-0.94-8.48-2.83-11.23c-1.89-2.75-4.53-4.12-7.92-4.12
				c-3.45,0-6.09,1.39-7.94,4.18c-1.85,2.79-2.77,6.51-2.77,11.17s0.92,8.32,2.77,10.96C797.14,226.54,799.78,227.86,803.23,227.86z
				"/>
			<linearGradient id="SVGID_10_" gradientUnits="userSpaceOnUse" x1="333.9936" y1="212.0365" x2="784.1409" y2="212.0365">
				<stop  offset="0.0819" style="stop-color:#FFFFFF"/>
				<stop  offset="0.4093" style="stop-color:#21409A"/>
			</linearGradient>
			<path class="st33" d="M844.82,242.19v-58.36h17.67v10.72h0.65c1.22-3.55,3.27-6.35,6.17-8.4c2.9-2.05,6.34-3.08,10.32-3.08
				c4.05,0,7.52,1.04,10.41,3.12c2.89,2.08,4.72,4.86,5.51,8.36h0.61c1.09-3.47,3.22-6.25,6.38-8.34c3.17-2.09,6.9-3.13,11.21-3.13
				c5.52,0,10.01,1.76,13.45,5.28c3.44,3.52,5.17,8.37,5.17,14.55v39.29h-18.58v-35.03c0-2.91-0.75-5.14-2.26-6.67
				c-1.51-1.53-3.44-2.3-5.79-2.3c-2.56,0-4.57,0.83-6.02,2.49c-1.46,1.66-2.18,3.88-2.18,6.67v34.84h-17.86v-35.22
				c0-2.71-0.74-4.85-2.2-6.42c-1.47-1.57-3.41-2.36-5.81-2.36c-2.43,0-4.41,0.85-5.95,2.56c-1.53,1.71-2.3,4.01-2.3,6.9v34.54
				H844.82z"/>
			<linearGradient id="SVGID_11_" gradientUnits="userSpaceOnUse" x1="333.9936" y1="212.0365" x2="784.1409" y2="212.0365">
				<stop  offset="0.0819" style="stop-color:#FFFFFF"/>
				<stop  offset="0.4093" style="stop-color:#21409A"/>
			</linearGradient>
			<path class="st34" d="M961.12,243.18c-5.57,0-10.17-1.42-13.77-4.26s-5.42-7.14-5.42-12.92c0-4.31,0.99-7.73,2.96-10.28
				c1.98-2.55,4.61-4.43,7.9-5.66c3.29-1.23,6.9-2.01,10.83-2.34c4.99-0.43,8.54-0.96,10.66-1.6c2.11-0.63,3.17-1.84,3.17-3.61
				v-0.19c0-1.95-0.67-3.46-2.01-4.52s-3.15-1.6-5.43-1.6c-2.46,0-4.43,0.53-5.93,1.6c-1.49,1.06-2.44,2.53-2.85,4.41l-17.14-0.61
				c0.73-5.32,3.3-9.74,7.69-13.26s10.52-5.28,18.37-5.28c4.96,0,9.39,0.77,13.28,2.3c3.89,1.53,6.95,3.74,9.2,6.63
				c2.24,2.89,3.36,6.4,3.36,10.53v39.67h-17.48v-8.13h-0.46C974.83,240.14,969.18,243.18,961.12,243.18z M966.86,231.02
				c2.96,0,5.49-0.89,7.58-2.66s3.13-4.08,3.13-6.92v-5.55c-1.04,0.56-2.5,1.03-4.39,1.41c-1.89,0.38-3.69,0.7-5.41,0.95
				c-5.5,0.84-8.25,3.12-8.25,6.84c0,1.92,0.68,3.39,2.05,4.41C962.95,230.51,964.71,231.02,966.86,231.02z"/>
		</g>
		<g>
			<path class="st9" d="M331.43,164.37v77.82h-18.81v-77.82H331.43z"/>
			<path class="st9" d="M362.54,208.9v33.29h-18.58v-58.36h17.67v10.72h0.65c1.29-3.55,3.5-6.35,6.61-8.4
				c3.12-2.05,6.83-3.08,11.13-3.08c4.1,0,7.67,0.91,10.7,2.74c3.03,1.82,5.38,4.38,7.07,7.68c1.68,3.29,2.51,7.13,2.49,11.51v37.2
				h-18.58v-33.55c0.02-3.24-0.79-5.78-2.45-7.6s-3.96-2.74-6.9-2.74s-5.3,0.94-7.09,2.81C363.47,202.99,362.57,205.58,362.54,208.9
				z"/>
			<path class="st9" d="M412.57,242.19v-77.82h18.58v40.35h0.84l16.42-20.9h21.05l-20.71,25.42l21.54,32.94h-21.47l-13.91-22.08
				l-3.76,4.56v17.52H412.57z"/>
			<path class="st9" d="M501.74,243.29c-9.17,0-16.38-2.67-21.64-8.02c-5.26-5.35-7.88-12.69-7.88-22.04
				c0-6.03,1.19-11.3,3.57-15.83c2.38-4.52,5.74-8.04,10.07-10.56c4.33-2.52,9.44-3.78,15.31-3.78c5.52,0,10.41,1.15,14.67,3.44
				c4.26,2.29,7.59,5.66,9.99,10.09c2.41,4.43,3.61,9.85,3.61,16.26v4.64h-38.91v0.49c0,3.57,1.03,6.45,3.1,8.62
				c2.06,2.18,4.88,3.27,8.45,3.27c2.43,0,4.55-0.51,6.35-1.54c1.8-1.03,3.05-2.5,3.76-4.43l17.06,0.49
				c-1.06,5.73-4,10.3-8.82,13.74C515.62,241.57,509.39,243.29,501.74,243.29z M490.53,206.7h21.62c-0.03-2.99-1.03-5.44-3.02-7.35
				c-1.99-1.91-4.52-2.87-7.58-2.87c-3.09,0-5.67,0.98-7.73,2.93S490.66,203.79,490.53,206.7z"/>
			<path class="st9" d="M561.04,243.02c-4.28,0-8.19-1.12-11.72-3.36c-3.53-2.24-6.35-5.58-8.45-10.01
				c-2.1-4.43-3.15-9.97-3.15-16.61c0-6.86,1.09-12.51,3.27-16.93c2.18-4.42,5.04-7.7,8.59-9.84s7.35-3.21,11.4-3.21
				c4.61,0,8.24,1.12,10.89,3.36c2.65,2.24,4.51,4.71,5.6,7.39h0.38v-29.45h18.58v77.82h-18.39v-9.46h-0.57
				c-1.17,2.69-3.09,5.07-5.78,7.16C569,241.98,565.45,243.02,561.04,243.02z M567.5,228.55c3.39,0,6.04-1.41,7.92-4.22
				c1.89-2.81,2.83-6.59,2.83-11.32c0-4.76-0.94-8.52-2.83-11.29c-1.89-2.76-4.53-4.14-7.92-4.14c-3.45,0-6.09,1.4-7.94,4.2
				c-1.85,2.8-2.77,6.54-2.77,11.23c0,4.71,0.92,8.48,2.77,11.3C561.41,227.13,564.06,228.55,567.5,228.55z"/>
			<path class="st2" d="M608.95,242.19v-77.82h54.26v15.27h-35.45v15.96h32.68v15.31h-32.68v16h35.45v15.28H608.95z"/>
			<path class="st2" d="M694.31,208.9v33.29h-18.58v-58.36h17.67v10.72h0.65c1.29-3.55,3.5-6.35,6.61-8.4
				c3.12-2.05,6.83-3.08,11.13-3.08c4.1,0,7.67,0.91,10.7,2.74c3.03,1.82,5.38,4.38,7.07,7.68c1.68,3.29,2.51,7.13,2.49,11.51v37.2
				h-18.58v-33.55c0.02-3.24-0.79-5.78-2.45-7.6s-3.96-2.74-6.9-2.74s-5.3,0.94-7.09,2.81C695.25,202.99,694.34,205.58,694.31,208.9
				z"/>
			<path class="st2" d="M753.66,177.02c-2.61,0-4.85-0.87-6.73-2.6c-1.88-1.73-2.81-3.83-2.81-6.29c0-2.46,0.94-4.55,2.81-6.27
				c1.87-1.72,4.12-2.58,6.73-2.58c2.63,0,4.88,0.86,6.74,2.58c1.86,1.72,2.79,3.81,2.79,6.27c0,2.46-0.93,4.55-2.79,6.29
				C758.54,176.15,756.29,177.02,753.66,177.02z M744.35,242.19v-58.36h18.58v58.36H744.35z"/>
			<path class="st2" d="M802.66,264.8c-8.31,0-14.82-1.67-19.53-5c-4.71-3.33-7.41-7.43-8.09-12.29l17.59-0.99
				c0.51,1.54,1.64,2.83,3.4,3.86c1.76,1.03,4.14,1.54,7.12,1.54c3.12,0,5.69-0.74,7.73-2.2c2.04-1.47,3.06-3.95,3.06-7.45V232
				h-0.65c-1.09,2.69-3.04,4.92-5.85,6.71c-2.81,1.79-6.37,2.68-10.68,2.68c-4.26,0-8.15-0.99-11.68-2.98
				c-3.53-1.99-6.36-5.08-8.47-9.27c-2.12-4.19-3.17-9.59-3.17-16.21c0-6.84,1.09-12.46,3.27-16.87c2.18-4.41,5.04-7.68,8.59-9.8
				c3.55-2.13,7.35-3.19,11.4-3.19c4.61,0,8.24,1.12,10.89,3.36c2.65,2.24,4.53,4.71,5.64,7.39h0.53v-9.99h18.5v58.59
				c0,4.79-1.25,8.85-3.74,12.18c-2.5,3.33-5.96,5.86-10.39,7.6C813.69,263.93,808.54,264.8,802.66,264.8z M803.23,227.86
				c3.39,0,6.04-1.32,7.92-3.95c1.89-2.63,2.83-6.29,2.83-10.98c0-4.74-0.94-8.48-2.83-11.23c-1.89-2.75-4.53-4.12-7.92-4.12
				c-3.45,0-6.09,1.39-7.94,4.18c-1.85,2.79-2.77,6.51-2.77,11.17s0.92,8.32,2.77,10.96C797.14,226.54,799.78,227.86,803.23,227.86z
				"/>
			<path class="st2" d="M844.82,242.19v-58.36h17.67v10.72h0.65c1.22-3.55,3.27-6.35,6.17-8.4c2.9-2.05,6.34-3.08,10.32-3.08
				c4.05,0,7.52,1.04,10.41,3.12c2.89,2.08,4.72,4.86,5.51,8.36h0.61c1.09-3.47,3.22-6.25,6.38-8.34c3.17-2.09,6.9-3.13,11.21-3.13
				c5.52,0,10.01,1.76,13.45,5.28c3.44,3.52,5.17,8.37,5.17,14.55v39.29h-18.58v-35.03c0-2.91-0.75-5.14-2.26-6.67
				c-1.51-1.53-3.44-2.3-5.79-2.3c-2.56,0-4.57,0.83-6.02,2.49c-1.46,1.66-2.18,3.88-2.18,6.67v34.84h-17.86v-35.22
				c0-2.71-0.74-4.85-2.2-6.42c-1.47-1.57-3.41-2.36-5.81-2.36c-2.43,0-4.41,0.85-5.95,2.56c-1.53,1.71-2.3,4.01-2.3,6.9v34.54
				H844.82z"/>
			<path class="st2" d="M961.12,243.18c-5.57,0-10.17-1.42-13.77-4.26s-5.42-7.14-5.42-12.92c0-4.31,0.99-7.73,2.96-10.28
				c1.98-2.55,4.61-4.43,7.9-5.66c3.29-1.23,6.9-2.01,10.83-2.34c4.99-0.43,8.54-0.96,10.66-1.6c2.11-0.63,3.17-1.84,3.17-3.61
				v-0.19c0-1.95-0.67-3.46-2.01-4.52s-3.15-1.6-5.43-1.6c-2.46,0-4.43,0.53-5.93,1.6c-1.49,1.06-2.44,2.53-2.85,4.41l-17.14-0.61
				c0.73-5.32,3.3-9.74,7.69-13.26s10.52-5.28,18.37-5.28c4.96,0,9.39,0.77,13.28,2.3c3.89,1.53,6.95,3.74,9.2,6.63
				c2.24,2.89,3.36,6.4,3.36,10.53v39.67h-17.48v-8.13h-0.46C974.83,240.14,969.18,243.18,961.12,243.18z M966.86,231.02
				c2.96,0,5.49-0.89,7.58-2.66s3.13-4.08,3.13-6.92v-5.55c-1.04,0.56-2.5,1.03-4.39,1.41c-1.89,0.38-3.69,0.7-5.41,0.95
				c-5.5,0.84-8.25,3.12-8.25,6.84c0,1.92,0.68,3.39,2.05,4.41C962.95,230.51,964.71,231.02,966.86,231.02z"/>
		</g>
	</g>
	<g>
	</g>
	<g>
	</g>
	<g>
	</g>
	<g>
	</g>
	<g>
	</g>
	<g>
	</g>
</g>
</svg>
