<svg width="984" height="1064" viewBox="0 0 984 1064" fill="none" xmlns="http://www.w3.org/2000/svg">
<path d="M631.637 514.005L696.644 271.394L821.054 304.73L663.508 892.697L539.162 859.379L604.238 616.514L478.245 582.754L414.442 820.868C393.497 899.036 439.886 979.291 518.054 1000.24L752.873 1063.16L983.692 201.728L748.809 138.791C670.641 117.846 590.323 164.218 569.378 242.385L505.644 480.245L631.637 514.005Z" fill="#171941" fill-opacity="0.12"/>
<path d="M352.055 549.213L287.048 791.824L162.702 758.506L320.247 170.538L444.593 203.857L379.535 446.658L505.528 480.418L569.33 242.304C590.275 164.136 543.886 83.8816 465.719 62.9367L230.836 -1.80037e-05L5.81577e-05 861.491L234.883 924.428C313.051 945.373 393.369 899.001 414.314 820.833L478.048 582.973L352.055 549.213Z" fill="#171941" fill-opacity="0.12"/>
</svg>
