<svg width="691" height="747" viewBox="0 0 691 747" fill="none" xmlns="http://www.w3.org/2000/svg">
<path d="M247.072 360.728L201.45 190.464L114.139 213.859L224.705 626.494L311.97 603.111L266.301 432.669L354.722 408.976L399.499 576.084C414.198 630.942 381.642 687.265 326.785 701.964L161.988 746.121L0 141.572L164.841 97.4031C219.699 82.704 276.066 115.248 290.765 170.106L335.494 337.036L247.072 360.728Z" fill="#171941" fill-opacity="0.12"/>
<path d="M443.282 385.437L488.904 555.701L576.17 532.319L465.605 119.684L378.339 143.066L423.997 313.464L335.575 337.156L290.799 170.049C276.1 115.191 308.655 58.868 363.513 44.1689L528.354 -4.51589e-05L690.354 604.593L525.513 648.762C470.655 663.461 414.288 630.918 399.589 576.06L354.86 409.13L443.282 385.437Z" fill="#171941" fill-opacity="0.12"/>
</svg>
