<svg width="576" height="511" viewBox="0 0 576 511" fill="none" xmlns="http://www.w3.org/2000/svg">
<g clip-path="url(#clip0_178_1013)">
<path opacity="0.15" fill-rule="evenodd" clip-rule="evenodd" d="M277.856 39.4836C325.45 46.0812 337.307 126.192 381.392 147.092C428.434 169.394 514.298 107.358 532.552 160.23C554.748 224.52 463.071 274.796 448.589 341.723C441.744 373.356 472.451 401.616 473.283 434.129C474.215 470.538 461.778 504.525 453.658 539.825C441.47 592.812 454.371 665.255 413.167 695.481C374.504 723.842 318.27 693.984 277.856 668.784C241.605 646.18 235.014 588.232 200.345 562.775C172.114 542.045 127.129 565.058 102.134 539.754C77.817 515.135 89.851 468.582 75.0999 435.978C55.0614 391.689 4.40364 364.094 0.344022 314.775C-3.53743 267.621 26.1107 223.293 54.6904 188.032C82.725 153.443 125.026 140.498 161.014 116.543C200.36 90.3527 232.288 33.1668 277.856 39.4836Z" fill="url(#paint0_linear_178_1013)"/>
</g>
<g clip-path="url(#clip1_178_1013)">
<path d="M220.764 190.719L235.81 219.238L243.521 216.434L241.018 224.042L256.088 269.44C256.088 269.44 264.408 211.759 220.764 190.719Z" fill="#233862"/>
<path d="M245.841 215.931C245.841 215.931 262.46 277.209 264.063 335.684C264.063 335.684 250.276 340.491 228.62 336.686C206.851 332.862 245.841 215.931 245.841 215.931Z" fill="#233862"/>
<path d="M325.43 300.904C320.985 300.818 314.689 301.372 312.614 299.101C310.261 296.526 307.484 296.906 307.484 296.906L308.045 293.965L308.729 290.45C308.729 290.45 308.982 290.132 309.895 290.142C309.895 290.142 313.13 290.282 314.682 289.728C318.444 288.388 333.384 297.344 332.881 299.83C332.676 300.756 327.331 300.938 325.43 300.904Z" fill="#E2915A"/>
<path d="M243.963 214.731C243.963 214.731 269.213 266.882 277.03 272.484C284.847 278.085 312.696 290.187 312.696 290.187C312.696 290.187 313.427 291.917 312.75 294.461C312.046 297.104 310.658 297.85 310.658 297.85C310.658 297.85 271.712 294.372 262.664 288.726C253.616 283.081 233.646 260.624 233.646 260.624L243.963 214.731Z" fill="#233862"/>
<path d="M170.059 507.143H155.116C153.235 506.118 151.56 503.782 151.03 500.304C150.298 495.49 144.902 492.863 143.736 488.924C142.57 484.985 148.55 479.448 148.55 479.448L149.549 478.159L150.592 476.819L160.509 479.154C160.509 479.154 160.755 481.517 160.905 484.526C161.011 486.698 161.069 489.204 160.946 491.407C160.656 496.656 162.417 502.312 167.081 503.334C170.531 504.079 170.377 506.128 170.059 507.143Z" fill="#171941"/>
<path d="M256.786 507.143H222.611C220.969 505.139 221.585 497.736 221.821 495.318C221.876 494.833 221.91 494.549 221.91 494.549C221.91 494.549 233.581 485.214 235.181 492.361C235.232 492.586 235.29 492.805 235.355 493.021C237.376 499.706 246.435 502.746 251.663 503.59C255.066 504.158 256.321 505.912 256.786 507.143Z" fill="#171941"/>
<path d="M250.275 316.38C250.275 316.38 248.504 338.491 246.421 365.068C243.59 401.168 240.187 445.513 239.849 453.915C239.267 468.502 236.932 491.834 236.932 491.834C236.932 491.834 231.392 497.381 220.303 495.042C220.303 495.042 210.424 461.732 207.602 426.49C207.558 425.912 207.514 425.331 207.472 424.746C204.846 388.868 200.763 313.32 200.763 313.32L250.275 316.38Z" fill="#232663"/>
<path d="M250.275 316.38C250.275 316.38 248.504 338.491 246.421 365.068L207.609 426.49C207.565 425.912 207.52 425.331 207.479 424.746C204.853 388.868 200.77 313.32 200.77 313.32L250.275 316.38Z" fill="#171941"/>
<path d="M242.185 319.006C242.185 319.006 210.243 399.075 189.24 436.704C168.237 474.333 161.675 484.834 161.675 484.834C161.675 484.834 149.645 480.023 148.55 476.74C148.55 476.74 156.58 404.095 170.644 386.389C178.591 376.383 187.927 346.353 188.364 335.851C188.802 325.35 191.209 304.569 191.209 304.569L242.185 319.006Z" fill="#232663"/>
<path d="M234.231 202.28C221.749 206.22 200.155 195.592 200.155 195.592C200.155 195.592 211.662 186.954 211.06 168.994L220.71 176.774L227.265 182.054C227.174 184.923 226.926 187.784 226.523 190.626C226.39 191.621 226.239 192.678 226.058 193.844C225.984 194.292 226.044 194.752 226.231 195.166C226.417 195.58 226.721 195.93 227.104 196.173C229.791 197.815 232.197 199.877 234.231 202.28Z" fill="#FFB27D"/>
<path d="M251.653 318.223C251.289 318.541 250.823 318.718 250.34 318.723C245.655 318.658 231.988 321.263 220.423 320.09C210.67 319.157 202.043 316.267 192.776 312.113C191.544 311.562 188.713 310.061 188.775 308.693C188.816 307.185 188.966 305 189.154 302.251C189.811 292.676 190.953 276.231 189.838 257.253C189.64 253.717 189.534 250.212 189.52 246.762C189.424 221.036 194.526 198.409 204.775 190.753C204.775 190.753 211.925 194.761 216.87 196.34C221.715 197.893 224.215 197.578 226.725 195.913C226.725 195.913 231.622 198.344 233.714 200.625C238.556 205.905 242.339 212.915 244.838 222.975C246.965 231.524 248.942 244.023 249.646 260.023C249.957 267.238 251.965 317.97 251.653 318.223Z" fill="white"/>
<path d="M191.038 233.22L204.775 190.719C204.775 190.719 237.763 203.156 239.288 249.733C239.89 260.334 242.434 303.844 237.828 339.89C237.828 339.89 212.13 349.902 180.622 330.144L191.038 233.22Z" fill="#2B478B"/>
<path d="M227.265 182.053C227.174 184.922 226.926 187.784 226.523 190.626C219.26 189.382 211.019 177.632 211.019 177.632C214.719 176.565 217.957 176.374 220.71 176.767L227.265 182.053Z" fill="#ED975D"/>
<path d="M232.672 181.722C232.672 181.722 210.191 185.456 208.082 171.436C205.972 157.416 201.646 148.429 215.912 145.447C230.179 142.465 233.776 147.403 235.619 151.917C237.462 156.431 238.464 180.388 232.672 181.722Z" fill="#FFB27D"/>
<path d="M134.024 363.296L179.911 369.838C182.79 370.239 185.712 369.485 188.037 367.74C190.362 365.995 191.902 363.4 192.321 360.523L195.155 340.632C195.557 337.752 194.803 334.831 193.057 332.506C191.312 330.18 188.718 328.64 185.84 328.222L139.94 321.684C137.061 321.281 134.139 322.035 131.814 323.779C129.489 325.524 127.949 328.118 127.53 330.995L124.696 350.887C124.295 353.768 125.052 356.691 126.8 359.016C128.548 361.341 131.145 362.88 134.024 363.296Z" fill="#233862"/>
<path d="M189.12 339.756L186.254 359.877C185.985 361.733 185.247 363.489 184.11 364.981C182.973 366.473 181.475 367.65 179.757 368.402C178.625 368.905 177.415 369.21 176.18 369.304C175.382 369.368 174.579 369.343 173.787 369.229L127.965 362.698C125.077 362.279 122.473 360.733 120.721 358.4C118.969 356.066 118.212 353.134 118.616 350.244L121.481 330.12C121.903 327.233 123.449 324.629 125.783 322.878C128.117 321.126 131.049 320.369 133.939 320.771L149.713 323.021L150.325 318.729C150.463 317.778 150.972 316.92 151.741 316.343C152.51 315.766 153.477 315.518 154.428 315.652L156.159 315.898L165.754 317.266L168.148 317.608C168.621 317.675 169.075 317.835 169.486 318.078C169.897 318.322 170.256 318.644 170.541 319.027C170.829 319.407 171.037 319.841 171.155 320.303C171.272 320.765 171.296 321.246 171.225 321.718L170.617 326.009L179.757 327.312C180.114 327.363 180.467 327.431 180.817 327.517C182.521 327.942 184.099 328.766 185.422 329.921C186.744 331.077 187.773 332.53 188.422 334.162C189.141 335.933 189.382 337.862 189.12 339.756ZM151.984 323.342L168.377 325.681L168.989 321.39C169.036 321.034 168.942 320.675 168.726 320.388C168.511 320.101 168.191 319.911 167.837 319.858L163.733 319.27L156.183 318.192L154.131 317.902C153.775 317.854 153.414 317.948 153.127 318.163C152.84 318.379 152.649 318.699 152.596 319.054L151.984 323.342Z" fill="#2B478B"/>
<path d="M168.931 304.07C168.931 304.07 166.52 307.281 166.425 308.563C165.775 317.259 169.748 318.459 159.462 323.291C159.462 323.291 155.068 324.967 154.996 321.557C154.925 318.148 158.043 318.093 157.472 313.32C156.812 307.811 156.881 307.76 160.495 304.887L162.889 300.931L168.931 304.07Z" fill="#FFB27D"/>
<path d="M162.813 306.529C165.48 306.988 168.19 307.139 170.89 306.98C170.89 306.98 182.394 271.437 183.885 268.189C185.376 264.94 218.06 226.515 218.06 226.515L204.795 190.719C204.795 190.719 197.019 195.27 188.795 209.458C178.639 226.983 167.471 255.211 165.484 259.797C159.551 273.513 157.493 304.251 157.493 304.251C159.099 305.353 160.907 306.127 162.813 306.529Z" fill="#2B478B"/>
<path d="M208.061 170.068C208.061 170.068 210.369 169.681 209.996 166.505C209.624 163.328 209.63 159.173 212.212 159.946C214.794 160.719 214.924 162.788 215.974 161.581C217.024 160.373 217.054 155.285 224.741 154.93C232.429 154.574 235.554 157.251 239.128 155.678C242.701 154.105 242.889 148.696 242.889 148.696C242.889 148.696 241.863 150.628 240.335 151.243C240.335 151.243 246.298 143.084 239.394 137.493C232.49 131.902 225.449 135.561 221.452 135.804C212.647 136.334 206.96 136.864 204.084 142.643C201.208 148.422 202.412 164.501 208.061 170.068Z" fill="#333459"/>
<path d="M165.128 307.893C165.128 307.893 167.45 310.311 167.594 311.312C168.066 314.544 169.143 315.939 168.62 316.291C167.495 317.02 166.007 314.629 165.299 312.482C164.591 310.334 165.128 307.893 165.128 307.893Z" fill="#FFB27D"/>
<path d="M204.774 190.719L219.82 219.238L227.531 216.434L225.025 224.042L240.095 269.44C240.095 269.44 248.418 211.759 204.774 190.719Z" fill="#233862"/>
<path d="M351.535 388.919L305.888 378.342C303.028 377.671 300.55 375.895 298.996 373.403C297.442 370.91 296.937 367.904 297.592 365.04L302.174 345.258C302.846 342.398 304.621 339.921 307.114 338.366C309.606 336.811 312.612 336.305 315.476 336.959L361.124 347.543C363.984 348.214 366.461 349.99 368.016 352.482C369.571 354.974 370.077 357.981 369.423 360.845L364.841 380.627C364.168 383.486 362.391 385.963 359.898 387.517C357.405 389.07 354.399 389.574 351.535 388.919Z" fill="#4D6CFA"/>
<path d="M310.88 341.613C312.084 340.313 313.581 339.319 315.246 338.713C316.911 338.106 318.696 337.905 320.455 338.125C320.816 338.172 321.174 338.237 321.528 338.32L330.617 340.426L331.609 336.159C331.831 335.212 332.42 334.393 333.245 333.88C334.071 333.367 335.067 333.203 336.014 333.423L338.383 333.974L347.927 336.183L349.637 336.583C350.583 336.806 351.402 337.394 351.915 338.22C352.428 339.045 352.592 340.041 352.373 340.987L351.381 345.258L367.073 348.89C369.94 349.565 372.424 351.345 373.984 353.843C375.544 356.341 376.054 359.354 375.403 362.226L370.763 382.237C370.09 385.105 368.31 387.59 365.812 389.151C363.313 390.711 360.299 391.22 357.427 390.567L311.889 380.028C311.101 379.848 310.336 379.579 309.608 379.228C308.478 378.689 307.449 377.96 306.564 377.074C305.223 375.737 304.244 374.082 303.72 372.262C303.195 370.443 303.142 368.52 303.565 366.675L308.199 346.667C308.635 344.777 309.559 343.034 310.88 341.613ZM350.181 340.454C350.247 340.169 350.22 339.871 350.104 339.603C349.989 339.334 349.79 339.11 349.538 338.963C349.418 338.893 349.289 338.841 349.155 338.809L347.127 338.341L339.604 336.6L335.501 335.653C335.325 335.612 335.143 335.606 334.966 335.635C334.788 335.665 334.618 335.729 334.465 335.824C334.312 335.919 334.18 336.044 334.075 336.191C333.971 336.337 333.896 336.503 333.856 336.679L332.868 340.946L349.172 344.708L350.181 340.454Z" fill="#354FC9"/>
<path d="M340.804 315.867C340.804 315.867 342.172 320.757 341.71 322.317C338.503 332.873 332.96 339.78 347.866 337.995C347.866 337.995 347.247 337.387 350.102 332.014C353.392 325.818 353.337 325.729 350.386 320.686L349.36 314.927L340.804 315.867Z" fill="#FFB27D"/>
<path d="M322.051 303.297C326.551 303.023 332.036 301.847 334.019 299.467C336.283 296.769 338.547 296.048 338.547 296.048L337.863 293.1L337.035 289.581C337.035 289.581 336.765 289.27 335.842 289.318C335.842 289.318 332.313 290.118 331.003 289.106C329.694 288.094 327.297 288.709 325.823 289.687C323.945 290.935 321.415 290.734 321.476 291.342C321.476 291.342 325.197 293.172 324.848 293.48C321.429 296.506 312.469 297.706 313.054 300.069C313.293 300.999 320.136 303.43 322.051 303.297Z" fill="#FFB27D"/>
<path d="M384.763 188.332V190.78C384.763 190.78 384.096 198.43 393.517 199.545C402.938 200.659 410.662 200.519 410.406 194.617C409.558 190.045 408.036 182.949 407.975 179.167C407.955 177.634 408.07 176.102 408.317 174.589L390.063 174.223L384.687 175.102L384.763 188.332Z" fill="#FFB27D"/>
<path d="M384.694 175.102L384.763 188.332C386.822 189.295 389.068 189.792 391.342 189.785C399.73 189.785 405.153 183.63 407.988 179.185C407.969 177.651 408.083 176.119 408.33 174.606L390.077 174.24L384.694 175.102Z" fill="#E2915A"/>
<path d="M409.705 171.651C407.588 183.048 392.881 182.672 386.524 181.958C384.735 181.759 383.61 181.53 383.61 181.53C381.593 180.99 380.468 177.813 379.945 173.665C378.919 165.427 380.218 153.339 381.61 150.248C383.703 145.597 387.645 140.564 402.469 144.195C417.293 147.827 412.441 157.046 409.705 171.651Z" fill="#FFB27D"/>
<path d="M421.755 509.113H400.917C401.279 506.58 401.835 504.079 402.579 501.631C402.895 500.602 403.29 499.598 403.758 498.629C405.786 494.583 418.657 497.158 418.657 497.158C418.657 497.158 419.854 498.184 420.788 502.096C421.311 504.403 421.634 506.751 421.755 509.113Z" fill="#233862"/>
<path d="M358.778 502.534C358.723 505.372 358.364 508.053 357.335 509.113H316.115C316.639 507.622 318.123 505.379 322.353 504.692C327.164 503.912 334.663 501.614 339.033 496.97C340.625 495.354 341.743 493.331 342.265 491.123C344.204 482.489 358.299 493.77 358.299 493.77C358.643 496.678 358.803 499.605 358.778 502.534Z" fill="#233862"/>
<path d="M386.195 409.197C385.704 411.713 385.362 414.256 385.169 416.812C383.86 442.373 363.65 500.817 360.039 502.181C354.445 504.291 345.639 499.788 341.03 498.338C339.122 497.729 337.833 495.804 338.26 493.848C348.266 447.848 351.938 381.605 353.282 342.386C353.966 322.635 357.348 308.987 357.348 308.987C357.348 308.987 406.631 295.839 406.931 312.472C407.174 327.189 390.593 384.915 386.195 409.197Z" fill="#2B478B"/>
<path d="M386.195 409.197L353.282 342.386C353.966 322.635 357.348 308.987 357.348 308.987C357.348 308.987 406.631 295.839 406.931 312.472C407.174 327.189 390.593 384.915 386.195 409.197Z" fill="#233862"/>
<path d="M375.232 312.53L401.286 501.354C401.286 501.354 412.724 504.114 421.625 501.904C421.625 501.904 429.251 401.479 428.615 377.204C427.979 352.928 434.086 312.232 427.219 307.749C420.353 303.266 375.232 312.53 375.232 312.53Z" fill="#2B478B"/>
<path d="M381.056 152.023C385.125 153.305 393.729 151.995 397.33 154.905C400.93 157.816 397.497 162.617 401.611 164.33H401.628C402.032 164.5 402.481 164.535 402.906 164.428C403.332 164.321 403.711 164.079 403.987 163.738C405.126 162.319 406.703 160.9 408.142 161.488C409.325 161.97 409.384 163.499 408.864 164.983C408.637 165.595 408.559 166.253 408.636 166.901C408.712 167.55 408.942 168.171 409.305 168.714C409.476 168.922 409.603 169.162 409.68 169.421C409.757 169.679 409.782 169.95 409.753 170.218C409.411 172.099 408.477 174.544 408.135 175.796L408.04 177.109C408.04 177.109 414.927 169.654 417.83 163.379C419.82 159.074 419.779 142.982 410.04 138.28C410.079 138.251 410.112 138.215 410.136 138.174C410.344 137.797 410.933 137.883 410.933 137.883C410.095 137.507 408.795 137.746 408.795 137.746C408.795 137.746 408.771 137.664 408.652 137.575C408.484 136.436 407.339 135.623 407.339 135.623C407.655 136.084 407.867 136.609 407.961 137.161C405.403 135.814 397.531 132.829 391.291 135.544C387.847 137.032 384.253 138.146 380.57 138.864C379.523 139.067 378.582 139.637 377.918 140.472C377.254 141.308 376.91 142.353 376.949 143.419C377.062 146.514 378.139 150.959 381.056 152.023Z" fill="#171941"/>
<path d="M412.643 197.896L406.628 326.598C406.628 326.598 356.562 327.415 357.991 316.086C359.421 304.757 376.036 201.835 376.036 201.835" fill="#E9F3FE"/>
<path d="M396.139 278.516C396.139 278.516 398.68 312.889 403.56 334.473C403.56 334.473 432.777 336.022 439.708 324.741C439.708 324.741 434.237 278.304 434.237 268.886C434.237 265.576 434.493 261.076 434.897 256.042C435.505 248.424 436.449 239.594 437.342 231.904C438.586 221.194 439.735 212.682 439.735 212.682L415.651 193.109L396.139 278.516Z" fill="#22407A"/>
<path d="M338.168 319.188C338.168 319.188 343.619 322.607 352.188 321.455C355.313 329.115 362.682 331.713 362.682 331.03C362.682 330.944 364.338 316.558 366.29 299.607C366.486 297.911 366.682 296.201 366.878 294.478C366.878 294.327 366.916 294.18 366.933 294.033C367.275 291.192 367.59 288.319 367.921 285.461C370.27 265.042 372.531 245.472 372.531 245.472C377.66 214.112 381.993 193.386 381.993 193.386C371.05 194.521 363.688 198.416 360.744 203.514C352.02 218.632 345.698 256.449 342.004 284.756C342.004 284.828 342.004 284.9 341.977 284.972C341.341 289.858 340.78 294.461 340.302 298.605C340.271 298.865 340.243 299.122 340.216 299.375C338.865 311.22 338.168 319.188 338.168 319.188Z" fill="#22407A"/>
<path d="M414.061 192.955C414.123 191.727 408.303 190.031 408.303 190.031C408.303 190.031 401.645 199.264 390.675 199.421C390.675 199.421 393.8 205.508 397.483 207.081C397.483 207.081 413.699 200.249 414.061 192.955Z" fill="#D9E9F9"/>
<path d="M390.675 199.206C390.675 199.206 384.862 195.763 384.841 192.025C384.841 192.025 381.08 191.556 379.448 193.376C379.448 193.376 378.081 199.777 379.9 203.498C379.9 203.498 388.267 202.212 390.675 199.206Z" fill="#D9E9F9"/>
<path d="M394.621 198.652L386.739 196.764C386.739 196.764 385.713 196.853 385.737 198.132C385.761 199.411 387.957 203.169 388.928 203.467C389.899 203.764 396.485 201.251 394.621 198.652Z" fill="#EF4282"/>
<path d="M376.269 305.55C376.521 309.116 377.91 312.507 380.232 315.224L383.764 319.212C383.949 319.444 384.189 319.627 384.462 319.745C384.735 319.862 385.032 319.91 385.328 319.885C385.624 319.859 385.909 319.76 386.158 319.597C386.407 319.435 386.611 319.213 386.753 318.952L391.014 312.27C392.183 310.365 392.698 308.131 392.481 305.906C392.029 300.804 391.178 290.973 390.484 281.487C389.919 273.803 389.458 266.338 389.379 261.797C389.143 247.305 391.479 202.549 391.479 202.549C391.479 202.549 390.001 203.041 389.015 203.041C388.029 203.041 387.537 201.563 387.537 201.563C387.537 201.563 381.347 219.125 377.896 243.486C377.045 249.484 376.405 255.871 376.118 262.492C376.118 262.492 374.897 288.866 376.269 305.55Z" fill="#FF5292"/>
<path d="M413.124 192.322C413.186 191.095 409.25 188.561 409.25 188.561C409.25 188.561 401.628 197.452 390.658 197.626C390.658 197.626 393.783 203.713 397.466 205.286C397.483 205.289 412.782 199.616 413.124 192.322Z" fill="#E9F3FE"/>
<path d="M390.675 197.629C390.675 197.629 384.797 194.514 384.776 190.79C384.776 190.79 381.227 192.35 379.589 194.169C379.589 194.169 378.07 198.211 379.9 201.928C379.9 201.918 388.267 200.645 390.675 197.629Z" fill="#E9F3FE"/>
<path d="M376.269 305.55C376.521 309.116 377.91 312.507 380.232 315.224L383.764 319.212C383.949 319.444 384.189 319.627 384.462 319.745C384.735 319.862 385.032 319.91 385.328 319.885C385.624 319.859 385.909 319.76 386.158 319.597C386.407 319.435 386.611 319.213 386.753 318.952L391.014 312.27C392.183 310.365 392.698 308.131 392.481 305.906C392.029 300.804 391.178 290.973 390.484 281.487C382.547 270.609 379.23 255.666 377.896 243.486C377.045 249.483 376.405 255.871 376.118 262.491C376.118 262.491 374.897 288.866 376.269 305.55Z" fill="#EF4282"/>
<path d="M409.267 188.564C409.267 188.564 393.664 253.915 396.146 278.533C396.146 278.533 401.885 252.226 415.689 230.659C415.689 230.659 410.649 226.214 410.926 224.596C410.926 224.596 414.663 223.485 418.292 224.234C418.292 224.234 417.891 196.063 415.628 193.088C413.364 190.113 409.267 188.564 409.267 188.564Z" fill="#233862"/>
<path d="M384.777 190.78C387.116 190.968 369.314 254.637 367.994 275.045C367.994 275.045 369.56 238.626 369.406 228.132C369.406 228.132 375.886 224.712 375.886 223.498C375.886 222.284 368.972 219.053 368.972 219.053C368.972 219.053 373.349 196.624 375.739 194.152C378.129 191.679 384.777 190.78 384.777 190.78Z" fill="#233862"/>
<path d="M352.192 324.043C352.192 324.043 353.273 325.507 352.585 329.173C351.898 332.839 352.277 334.873 351.327 334.241C350.376 333.608 348.413 329.197 348.413 329.197L352.192 324.043Z" fill="#FFB27D"/>
<path d="M398.045 288.586C416.209 285.874 428.356 268.9 434.88 256.042C435.489 248.423 436.433 239.594 437.325 231.904L433.075 219.778L398.045 288.586Z" fill="#233862"/>
<path d="M340.229 299.358C343.844 300.195 354.817 302.247 366.303 299.604C366.499 297.908 366.696 296.198 366.892 294.474C366.892 294.324 366.929 294.177 366.946 294.03C366.57 292.556 366.187 291.082 365.811 289.608C359.314 291.934 344.784 297.032 340.315 298.602C340.287 298.848 340.257 299.104 340.229 299.358Z" fill="#233862"/>
<path d="M415.628 193.105C415.628 193.105 431.59 195.12 438.881 205.289C446.171 215.459 430.52 270.846 398.048 288.583C382.427 297.132 337.358 299.036 337.358 299.036C337.358 299.036 334.882 299.286 333.897 294.297C333.555 292.56 333.897 289.595 333.897 289.595C333.897 289.595 385.19 270.357 389.711 266.653C394.232 262.95 415.628 193.105 415.628 193.105Z" fill="#22407A"/>
<path d="M312.278 289.708C312.278 289.708 317.644 288.361 319.183 288.036C320.978 287.656 322.623 286.305 323.146 286.941C324.12 288.125 320.013 290.204 318.393 293.859C317.596 295.654 315.999 296.629 312.785 295.312C311.167 294.649 309.881 291.294 312.278 289.708Z" fill="#E2915A"/>
<path d="M300.324 88.8708C300.478 88.6487 300.564 88.3857 300.569 88.1151C300.574 87.8444 300.499 87.5783 300.353 87.3504C300.207 87.1225 299.997 86.9431 299.749 86.8349C299.5 86.7266 299.226 86.6944 298.959 86.7423C298.693 86.7902 298.447 86.9161 298.252 87.104C298.057 87.2919 297.922 87.5334 297.865 87.7979C297.807 88.0625 297.83 88.3381 297.929 88.5899C298.028 88.8418 298.2 89.0585 298.422 89.2127C298.72 89.419 299.087 89.4989 299.444 89.4348C299.8 89.3707 300.116 89.1678 300.324 88.8708Z" fill="#D5E5FB"/>
<path d="M125.14 506.618H458.125C458.334 506.618 458.503 507.372 458.503 508.302V508.876C458.503 509.806 458.334 510.56 458.125 510.56H125.14C124.931 510.56 124.761 509.806 124.761 508.876V508.302C124.761 507.372 124.931 506.618 125.14 506.618Z" fill="#171941"/>
</g>
<defs>
<linearGradient id="paint0_linear_178_1013" x1="0" y1="707" x2="652.132" y2="183.732" gradientUnits="userSpaceOnUse">
<stop stop-color="#4D6CFA"/>
<stop offset="1" stop-color="#FF5292"/>
</linearGradient>
<clipPath id="clip0_178_1013">
<rect width="575.238" height="472" fill="white" transform="translate(0 39)"/>
</clipPath>
<clipPath id="clip1_178_1013">
<rect width="459.048" height="511" fill="white" transform="matrix(-1 0 0 1 523.81 0)"/>
</clipPath>
</defs>
</svg>
