<svg width="644" height="407" viewBox="0 0 644 407" fill="none" xmlns="http://www.w3.org/2000/svg">
<g clip-path="url(#clip0_178_902)">
<path opacity="0.15" fill-rule="evenodd" clip-rule="evenodd" d="M316.493 25.0342C358.7 23.5047 400.43 4.18742 441.283 15.5765C484.38 27.5915 522.789 55.7319 552.683 90.8808C583.313 126.895 620.684 170.888 614.275 218.978C607.235 271.797 530.196 288.478 519.405 340.575C508.486 393.289 594.43 458.933 557.02 495.392C515.744 535.617 449.925 458.765 394.076 462.715C363.576 464.873 346.22 504.829 316.493 512.405C284.345 520.598 251.318 512.983 218.677 507.418C177.711 500.434 124.547 510.615 99.5099 475.414C74.2277 439.869 114.504 385.934 102.006 343.386C87.9993 295.7 16.7224 269.662 24.607 220.41C32.2726 172.526 103.923 172.874 134.999 137.293C163.078 105.143 160.071 46.5315 195.731 24.4749C230.974 2.67593 275.751 26.5106 316.493 25.0342Z" fill="url(#paint0_linear_178_902)"/>
</g>
<path d="M352.962 405.293H352.787C351.357 405.263 350.251 403.879 350.384 402.291L359.94 289.683L368.277 290.561L354.557 403.776C354.449 404.655 353.765 405.31 352.962 405.293Z" fill="#8CB4F4"/>
<path d="M444.967 405.293H445.142C446.574 405.263 447.681 403.879 447.545 402.291L437.991 289.683L429.653 290.561L443.372 403.776C443.48 404.655 444.164 405.31 444.967 405.293Z" fill="#8CB4F4"/>
<path d="M285.557 405.293H285.381C283.949 405.263 282.843 403.879 282.979 402.291L292.532 289.683L300.871 290.561L287.149 403.776C287.119 404.181 286.939 404.561 286.645 404.841C286.351 405.121 285.963 405.282 285.557 405.293Z" fill="#8CB4F4"/>
<path d="M442.12 273.297L459.081 174.467C461.256 161.086 451.861 148.85 439.66 149.179L406.95 150.059C395.668 150.365 385.858 159.277 382.722 172.071L357.908 273.305L442.12 273.297Z" fill="#8CB4F4"/>
<path d="M431.86 273.297L448.819 174.467C450.997 161.086 441.601 148.85 429.401 149.179L396.69 150.059C385.406 150.365 375.596 159.277 372.46 172.071L347.646 273.305L431.86 273.297Z" fill="#8CB4F4"/>
<path d="M308.392 291.327H436.989C438.35 291.327 439.656 290.785 440.619 289.822C441.582 288.859 442.122 287.552 442.122 286.19V273.3H308.392C307.031 273.3 305.725 273.841 304.762 274.804C303.8 275.768 303.259 277.074 303.259 278.437V286.19C303.259 286.864 303.392 287.532 303.65 288.156C303.908 288.779 304.286 289.345 304.762 289.822C305.239 290.299 305.805 290.677 306.428 290.936C307.051 291.194 307.718 291.327 308.392 291.327Z" fill="#8CB4F4"/>
<path d="M376.336 291.327H294.498C292.214 291.327 290.362 289.474 290.362 287.188V277.438C290.362 275.153 292.214 273.3 294.498 273.3H376.336C378.621 273.3 380.472 275.153 380.472 277.438V287.188C380.472 289.474 378.621 291.327 376.336 291.327Z" fill="#73A2E5"/>
<path d="M157.323 204.732H159.748V162.973L134.952 99.665L179.223 65.3388L177.739 63.4215L132.033 98.862L157.323 163.433V204.732Z" fill="#171941"/>
<path d="M184.228 69.7121C184.495 69.5242 184.721 69.2855 184.895 69.0096C185.069 68.7337 185.186 68.4261 185.241 68.1045C185.295 67.7829 185.285 67.4538 185.212 67.136C185.139 66.8182 185.003 66.5181 184.813 66.253L181.127 61.0496C180.939 60.7828 180.701 60.5557 180.425 60.3816C180.149 60.2074 179.842 60.0896 179.521 60.0349C179.199 59.9803 178.87 59.9898 178.553 60.063C178.235 60.1363 177.935 60.2717 177.67 60.4615C177.403 60.6492 177.176 60.8878 177.002 61.1636C176.828 61.4394 176.71 61.747 176.656 62.0686C176.601 62.3901 176.611 62.7194 176.684 63.0372C176.757 63.3551 176.892 63.6553 177.082 63.9206L180.771 69.1265C180.959 69.3931 181.197 69.6199 181.473 69.7939C181.749 69.9678 182.056 70.0853 182.378 70.1398C182.699 70.1942 183.028 70.1844 183.346 70.111C183.663 70.0376 183.963 69.902 184.228 69.7121Z" fill="#171941"/>
<path d="M137.253 98.9387C137.253 98.3034 137.064 97.6824 136.712 97.1542C136.359 96.626 135.858 96.2143 135.271 95.9712C134.685 95.7281 134.039 95.6645 133.416 95.7884C132.794 95.9123 132.222 96.2182 131.773 96.6675C131.324 97.1167 131.018 97.689 130.894 98.312C130.77 98.9351 130.834 99.5809 131.077 100.168C131.32 100.755 131.731 101.256 132.259 101.609C132.787 101.962 133.408 102.151 134.043 102.151C134.894 102.151 135.71 101.812 136.312 101.21C136.914 100.608 137.253 99.7905 137.253 98.9387Z" fill="#171941"/>
<path d="M166.677 203.528H151.429C150.193 203.528 149.008 204.019 148.134 204.894C147.26 205.768 146.769 206.954 146.769 208.191V210.473H171.158V208.003C171.156 206.815 170.683 205.676 169.843 204.837C169.002 203.998 167.864 203.528 166.677 203.528Z" fill="#171941"/>
<path d="M155.987 165.931H161.108V204.732H155.987V165.931Z" fill="#171941"/>
<path d="M178.739 105.728C178.852 105.857 178.968 105.988 179.087 106.106L179.114 106.136C179.225 106.262 179.339 106.383 179.455 106.499C182.766 109.375 193.742 104.221 204.36 94.721C214.978 85.221 221.319 74.8784 218.832 71.2661C218.728 71.1352 218.622 71.019 218.509 70.8832L218.484 70.856C218.375 70.725 218.262 70.5941 218.146 70.4656C215.832 67.8765 213.031 65.7689 209.903 64.2629C206.775 62.757 203.381 61.8823 199.915 61.6888C196.449 61.4953 192.979 61.9867 189.703 63.135C186.427 64.2834 183.409 66.0661 180.822 68.3815C178.234 70.6969 176.128 73.4996 174.623 76.6295C173.118 79.7594 172.243 83.1553 172.05 86.6233C171.857 90.0912 172.348 93.5633 173.495 96.8414C174.643 100.119 176.425 103.139 178.739 105.728Z" fill="#FF5292"/>
<path d="M179.087 106.109L179.112 106.134C179.149 106.183 179.184 106.225 179.221 106.267C179.296 106.352 179.379 106.429 179.468 106.499C182.776 109.373 193.755 104.224 204.37 94.7187C214.985 85.2136 221.329 74.8809 218.845 71.2687C218.781 71.1779 218.713 71.0905 218.64 71.0068C218.603 70.9622 218.562 70.9216 218.516 70.8857L218.494 70.8561C216.24 68.7213 210.119 70.6238 202.97 75.2565C199.631 77.444 196.465 79.8848 193.5 82.5576C191.119 84.6837 188.863 86.9466 186.745 89.3349C180.292 96.6532 177.045 103.406 179.087 106.109Z" fill="#FFD5E4"/>
<path d="M186.734 89.3348C188.723 90.9644 191.223 91.8382 193.793 91.8018C196.363 91.7655 198.838 90.8212 200.779 89.1359C202.721 87.4506 204.005 85.1329 204.404 82.5922C204.803 80.0515 204.291 77.4514 202.96 75.2515C199.621 77.4389 196.455 79.8798 193.49 82.5526C191.109 84.6803 188.853 86.9448 186.734 89.3348Z" fill="#FFEDDC"/>
<path d="M185.952 198.191H287.757L280.939 128.158H179.134L185.952 198.191Z" fill="#4D6CFA"/>
<path d="M182.27 198.191H284.075L277.258 128.158H175.453L182.27 198.191Z" fill="#171941"/>
<path d="M227.366 208.821H245.434L239.525 168.461H221.46L227.366 208.821Z" fill="#4D6CFA"/>
<path d="M218.958 207.607H256.047V210.515H218.958V207.607Z" fill="#4D6CFA"/>
<path d="M321.776 373.306C324.334 366.837 327.66 360.698 331.683 355.023C333.777 352.087 326.144 350.355 324.396 355.606C322.648 360.856 318.274 375.584 318.274 375.584L321.776 373.306Z" fill="#653D99"/>
<path d="M281.391 393.433C281.391 393.433 291.515 376.091 301.814 380.921C306.385 383.063 306.259 389.228 299.715 393.821C296.137 396.336 281.788 404.137 281.788 404.137L281.391 393.433Z" fill="#653D99"/>
<path d="M304.027 348.72C304.027 348.72 308.634 361.073 307.656 365.639C306.678 370.205 308.997 378.26 307.125 382.228C305.254 386.196 309.101 389.591 312.311 391.051C313.528 391.605 317.765 380.951 318.578 377.709C319.39 374.467 322.035 367.749 324.751 362.551C327.467 357.353 325.191 353.162 321.269 351.247C317.348 349.332 311.886 338.866 311.886 338.866L304.027 348.72Z" fill="#EEB6A9"/>
<path d="M325.608 99.0225C330.317 93.2656 339.058 91.7165 339.058 91.7165C356.278 77.2428 371.193 97.8316 374.144 105.387C377.094 112.943 378.882 125.766 391.327 131.866C413.432 142.698 389.426 161.204 389.426 161.204C379.403 139.064 332.655 178.554 334.798 180.31C291.105 199.644 314.913 112.11 325.608 99.0225Z" fill="#604735"/>
<path d="M365.02 165.382C365.02 165.382 356.891 179.999 345.495 192.143C339.475 198.567 332.542 204.272 325.415 206.762C321.936 207.978 318.413 208.43 314.926 207.817C312.704 207.43 313.669 194.288 316.761 184.298C320.832 171.142 333.524 138.448 333.524 138.448L340.786 141.547C340.786 141.547 330.717 182.717 331.914 182.897L342.569 155.924L365.02 165.382Z" fill="#E49C8C"/>
<path d="M380.539 232.1C380.539 232.1 302.51 236.706 291.917 243.905C274.301 255.886 299.594 354.299 299.594 354.299C299.594 354.299 320.528 354.966 322.193 349.422C322.193 349.422 318.427 298 321.724 289.118C325.02 280.235 322.985 267.924 322.985 267.924C322.985 267.924 363.928 274.175 376.931 271.099C389.934 268.022 380.539 232.1 380.539 232.1Z" fill="#0D0551"/>
<path d="M290.28 367.871C290.28 367.871 285.836 380.274 282.132 383.14C278.428 386.006 273.914 393.806 269.924 395.63C265.933 397.453 265.351 398.412 266.862 401.599C267.435 402.81 279.665 404.846 282.376 402.891C285.087 400.937 285.322 397.031 297.175 391.805C302.538 389.44 303.565 384.914 301.802 380.934C300.039 376.953 302.614 365.415 302.614 365.415L290.28 367.871Z" fill="#EEB6A9"/>
<path d="M426.435 229.217C426.435 229.217 318.968 249.062 311.57 257.613C304.172 266.164 286.278 372.75 286.278 372.75C286.278 372.75 294.829 377.551 302.627 373.109C302.627 373.109 321.146 334.473 327.892 320.61C338.095 299.609 333.794 288.023 335.418 287.653C337.043 287.282 403.372 280.9 422.415 268.292C433.636 260.862 426.435 229.217 426.435 229.217Z" fill="#271C83"/>
<path d="M342.488 195.202C345.772 198.599 344.216 200.143 344.216 201.579C344.216 207.084 344.999 208.381 348.725 210.345C353.236 212.719 358.488 213.96 359.688 217.572C359.952 218.409 360.014 219.296 359.869 220.161C357.153 238.838 374.62 248.642 384.137 252.998C390.031 255.693 400.977 258.723 410.874 259.8C421.892 261.001 431.616 259.782 431.63 252.998C431.803 194.335 409.56 161.414 393.263 149.137C387.584 144.87 370.546 140.153 359.869 144.959C354.819 147.232 347.15 150.214 342.564 155.919C337.626 162.074 331.909 182.89 331.909 182.89C333.779 193.86 342.488 195.202 342.488 195.202Z" fill="#FF5292"/>
<path d="M334.095 141.895C334.095 141.895 328.87 135.669 327.954 133.781C327.038 131.894 328.751 123.767 330.882 123.822C332.226 123.856 333.88 128.778 335.349 130.567C336.818 132.356 343.211 134.9 340.508 142.426C340.201 143.269 334.095 141.895 334.095 141.895Z" fill="#E49C8C"/>
<path d="M347.382 154.35C345.9 156.574 347.708 162.768 356.064 160.836C361.55 159.568 372.24 150.664 370.311 146.12C369.393 143.961 364.138 138.891 360.827 125.707L359.871 126.164L343.782 133.84C343.782 133.84 345.525 139.076 346.816 144.101C347.903 148.317 348.002 153.436 347.382 154.35Z" fill="#EEB6A9"/>
<path d="M343.782 133.84C343.782 133.84 345.525 139.076 346.816 144.101C356.232 141.416 359.039 131.483 359.871 126.164L343.782 133.84Z" fill="#E49C8C"/>
<path d="M334.621 136.724C334.621 136.724 357.175 141.95 360.217 127.866C363.259 113.783 368.22 104.94 353.948 101.002C339.675 97.0633 335.71 101.837 333.549 106.299C331.389 110.761 328.833 134.997 334.621 136.724Z" fill="#EEB6A9"/>
<path d="M343.715 98.4295C343.715 98.4295 343.856 114.66 355.802 122.539C362.793 127.147 363.121 131.866 363.121 131.866C363.121 131.866 367.262 117.983 367.916 107.529C367.916 107.529 350.078 91.546 343.715 98.4295Z" fill="#604735"/>
<path d="M345.135 101.296C345.135 101.296 338.468 103.519 335.505 105.97C331.114 109.607 329.969 121.432 330.492 124.378C330.492 124.378 329.294 103.823 335.907 98.5854C342.917 93.0286 345.135 101.296 345.135 101.296Z" fill="#604735"/>
<path d="M391.33 169.958C389.114 175.238 386.517 180.348 383.559 185.25C372.795 203.054 359.634 213.812 354.881 208.798C353.567 207.412 350.249 205.396 353.718 197.942C356.397 192.183 359.716 184.98 362.97 177.892C369.684 163.275 376.124 149.145 376.124 149.145C378.176 149.145 399.737 149.896 391.33 169.958Z" fill="#EEB6A9"/>
<path d="M368.813 192.813C368.072 192.37 327.494 202.231 314.928 205.3L311.259 206.199V210.938C311.259 210.938 353.236 212.915 359.805 209.895C366.373 206.876 372.623 199.869 372.623 199.869L368.813 192.813Z" fill="#EEB6A9"/>
<path d="M391.33 169.958C389.114 175.238 386.517 180.348 383.559 185.25C374.791 184.113 366.694 180.014 362.97 177.892C369.684 163.275 376.124 149.145 376.124 149.145C378.176 149.145 399.737 149.896 391.33 169.958Z" fill="#FF5292"/>
<path d="M314.929 205.3C314.929 205.3 301.56 201.458 297.841 202.52C295.217 203.261 291.863 207.153 290.118 209.376C290.006 209.523 289.937 209.698 289.919 209.881C289.901 210.065 289.935 210.25 290.017 210.415C290.098 210.58 290.225 210.719 290.381 210.817C290.538 210.914 290.719 210.965 290.903 210.965C293.14 210.943 296.755 210.797 298.649 209.801C300.437 208.863 303.094 210.931 306.057 210.943C308.331 210.943 311.257 210.943 311.257 210.943L314.929 205.3Z" fill="#EEB6A9"/>
<path d="M288.626 397.569C288.626 397.569 282.282 389.01 274.267 387.404C274.267 387.404 261.143 393.433 259.975 404.136H281.789L288.626 397.569Z" fill="#653D99"/>
<path d="M321.776 373.306C321.035 373.259 309.886 371.201 307.783 374.996C305.313 379.468 305.382 390.14 311.351 393.085C311.676 393.243 312.03 393.332 312.392 393.345C312.753 393.358 313.113 393.295 313.449 393.161C313.784 393.026 314.088 392.823 314.34 392.564C314.593 392.305 314.788 391.996 314.914 391.657L321.776 373.306Z" fill="#653D99"/>
<path d="M292.624 210.516C292.624 210.516 296.12 206.002 301.804 206.651C307.488 207.301 311.259 210.938 311.259 210.938L292.624 210.516Z" fill="#4D6CFA"/>
<path d="M388.406 221.555L111.094 221.555C108.568 221.555 106.521 219.506 106.521 216.979V215.052C106.521 212.525 108.568 210.476 111.094 210.476L388.406 210.476C390.932 210.476 392.979 212.525 392.979 215.052V216.979C392.979 219.506 390.932 221.555 388.406 221.555Z" fill="#171941"/>
<path d="M390.135 404.119C391.705 403.926 392.443 402.459 392.246 400.924L368.358 216.013L361.773 216.398L387.9 402.12C388.107 403.301 388.912 404.272 390.135 404.119Z" fill="#171941"/>
<path d="M112.682 404.119C111.111 403.926 110.373 402.459 110.57 400.924L134.46 216.013L141.043 216.398L114.904 402.12C114.701 403.301 113.896 404.272 112.682 404.119Z" fill="#171941"/>
<path d="M296.844 202.93L288.396 205.401C288.396 205.401 288.89 206.278 290.485 206.142C292.08 206.007 295.634 205.46 295.634 205.46L296.844 202.93Z" fill="#EEB6A9"/>
<path d="M47.7178 404H551.282C551.679 404 552 404.457 552 405.021V405.979C552 406.543 551.679 407 551.282 407H47.7178C47.3214 407 47 406.543 47 405.979V405.021C47 404.457 47.3214 404 47.7178 404Z" fill="#171941"/>
<defs>
<linearGradient id="paint0_linear_178_902" x1="24" y1="516" x2="521.677" y2="-67.5853" gradientUnits="userSpaceOnUse">
<stop stop-color="#4D6CFA"/>
<stop offset="1" stop-color="#FF5292"/>
</linearGradient>
<clipPath id="clip0_178_902">
<rect width="644" height="404" fill="white"/>
</clipPath>
</defs>
</svg>
