<svg width="542" height="390" viewBox="0 0 542 390" fill="none" xmlns="http://www.w3.org/2000/svg">
<g clip-path="url(#clip0_759_5711)">
<path opacity="0.15" fill-rule="evenodd" clip-rule="evenodd" d="M293.876 11.8756C325.767 21.837 336.197 73.1418 366.152 89.4426C396.825 106.134 436.947 83.5867 465.335 105.18C493.942 126.942 509.525 167.266 519.099 205.787C528.892 245.187 521.007 286.349 520.568 327.403C520.033 377.406 544.761 438.47 516.214 475.454C486.89 513.447 432.051 502.388 388.617 498.355C354.398 495.177 327.119 464.891 293.876 454.808C269.64 447.457 244.017 455.597 220.021 447.218C193.769 438.051 164.433 429.391 147.76 403.786C131.088 378.184 147.319 336.048 130.844 310.271C98.9667 260.397 27.9713 249.664 11.3527 190.367C-2.7354 140.099 18.7656 72.4658 55.8137 42.5549C96.1183 10.0147 151.903 43.9459 200.462 37.6881C232.658 33.5389 262.568 2.09637 293.876 11.8756Z" fill="url(#paint0_linear_759_5711)"/>
</g>
<path d="M140.772 385.46H140.949C142.391 385.434 143.51 384.256 143.37 382.897L133.742 286.768L125.348 287.518L139.161 384.161C139.225 384.537 139.424 384.877 139.721 385.116C140.017 385.356 140.392 385.478 140.772 385.46V385.46Z" fill="#8CB4F4"/>
<path d="M48.1501 385.46H47.9733C46.5313 385.435 45.412 384.256 45.5529 382.897L55.1732 286.77L63.5667 287.521L49.7534 384.161C49.6896 384.535 49.4917 384.874 49.1966 385.113C48.9015 385.352 48.5295 385.476 48.1501 385.46V385.46Z" fill="#8CB4F4"/>
<path d="M208.635 385.46H208.812C210.254 385.434 211.373 384.256 211.232 382.897L201.617 286.768L193.224 287.518L207.037 384.161C207.1 384.535 207.297 384.873 207.591 385.112C207.885 385.351 208.256 385.475 208.635 385.46V385.46Z" fill="#8CB4F4"/>
<path d="M51.0111 272.787L33.9373 188.413C31.7448 176.99 41.2038 166.544 53.4879 166.826L86.4188 167.577C91.9541 167.704 97.3045 169.595 101.692 172.974C106.079 176.354 109.274 181.046 110.813 186.368L135.791 272.787H51.0111Z" fill="#8CB4F4"/>
<path d="M61.3431 272.787L44.2694 188.413C42.0769 177.001 51.5358 166.544 63.8174 166.826L96.7482 167.577C102.284 167.704 107.634 169.595 112.021 172.974C116.409 176.354 119.604 181.046 121.142 186.368L146.123 272.787H61.3431Z" fill="#8CB4F4"/>
<path d="M186.057 288.175L55.7727 288.175C54.5105 288.175 53.3001 287.673 52.4076 286.78C51.5151 285.887 51.0138 284.676 51.0138 283.413V272.787H186.057C186.682 272.787 187.301 272.91 187.879 273.149C188.456 273.388 188.981 273.739 189.424 274.181C189.866 274.623 190.217 275.148 190.456 275.726C190.695 276.304 190.818 276.923 190.818 277.549V283.413C190.818 284.038 190.695 284.658 190.456 285.236C190.217 285.814 189.866 286.339 189.424 286.781C188.981 287.223 188.456 287.574 187.879 287.813C187.301 288.052 186.682 288.175 186.057 288.175Z" fill="#8CB4F4"/>
<path d="M116.914 288.175H199.965C202.082 288.175 203.799 286.457 203.799 284.338V276.624C203.799 274.505 202.082 272.787 199.965 272.787H116.914C114.796 272.787 113.079 274.505 113.079 276.624V284.338C113.079 286.457 114.796 288.175 116.914 288.175Z" fill="#8CB4F4"/>
<path d="M209.997 377.077C209.6 380.95 214.982 381.947 221.224 382.328C227.466 382.71 225.578 383.966 234.107 385.609C242.636 387.252 246.104 384.945 246.737 383.794C247.298 382.769 243.336 381.126 239.115 379.266C238.584 379.033 238.052 378.794 237.521 378.553C232.77 376.403 230.137 372.092 226.459 368.081C222.976 364.28 219.759 352.191 219.759 352.191L208.153 349.58C208.153 349.58 211.304 360.454 212.387 365.093C213.025 367.822 212.008 370.854 211.107 373.161C210.628 374.43 210.138 375.714 209.997 377.077Z" fill="#FFB27D"/>
<path d="M221.224 382.328C227.465 382.705 225.578 383.966 234.107 385.609C242.636 387.252 246.104 384.945 246.737 383.794C247.298 382.769 243.335 381.126 239.114 379.266L239.048 379.337C234.806 380.513 230.326 380.518 226.082 379.353C220.447 377.753 214.999 374.309 211.111 373.174C210.627 374.429 210.138 375.713 209.997 377.077C209.6 380.949 214.982 381.949 221.224 382.328Z" fill="#0F2549"/>
<path d="M192.419 242.555C186.175 238.17 144.871 230.348 123.791 228.085L100.483 207.838C100.483 207.838 80.6507 237.229 80.5047 259.714C80.433 270.196 85.2585 271.247 85.2585 271.247C85.2585 271.247 159.944 271.803 163.217 272.139C168.576 272.692 175.642 286.05 177.41 298.216C179.177 310.382 210.325 359.867 210.325 359.867C210.325 359.867 216.821 361.951 219.823 361.774C223.052 361.584 224.548 360.492 224.548 360.492C224.548 360.492 206.499 252.45 192.419 242.555Z" fill="#171941"/>
<path d="M190.68 377.077C190.283 380.95 195.664 381.947 201.906 382.328C208.148 382.71 206.248 383.966 214.79 385.609C223.332 387.252 226.787 384.945 227.417 383.794C227.981 382.769 224.018 381.126 219.797 379.266C219.267 379.033 218.734 378.794 218.204 378.553C213.453 376.403 210.82 372.092 207.142 368.081C203.658 364.28 200.441 352.191 200.441 352.191L188.836 349.58C188.836 349.58 191.986 360.454 193.07 365.093C193.708 367.822 192.691 370.854 191.789 373.161C191.308 374.43 190.821 375.714 190.68 377.077Z" fill="#FFB27D"/>
<path d="M201.906 382.328C208.148 382.705 206.248 383.966 214.79 385.609C223.332 387.252 226.787 384.945 227.417 383.794C227.98 382.769 224.018 381.126 219.797 379.266L219.73 379.337C215.489 380.513 211.009 380.518 206.765 379.353C201.13 377.753 195.682 374.309 191.794 373.174C191.307 374.429 190.821 375.713 190.68 377.077C190.283 380.949 195.664 381.949 201.906 382.328Z" fill="#171941"/>
<path d="M172.93 242.555C167.505 238.744 151.19 235.789 133.181 233.585C130.748 233.287 128.463 232.258 126.627 230.634C124.791 229.009 123.49 226.866 122.897 224.487V224.487L81.0068 207.828C81.0068 207.828 61.1771 237.219 61.0285 259.703C60.9568 270.186 65.7823 271.237 65.7823 271.237C65.7823 271.237 140.468 271.793 143.741 272.128C149.1 272.682 156.169 286.04 157.933 298.206C159.698 310.372 190.844 359.854 190.844 359.854C190.844 359.854 197.339 361.938 200.341 361.761C203.574 361.571 205.067 360.48 205.067 360.48C205.067 360.48 187.017 252.45 172.93 242.555Z" fill="#2B478B"/>
<path d="M116.875 85.7406C111.117 82.7138 102.36 82.3063 100.936 82.1141C83.9085 79.8254 73.6606 104.583 73.0561 112.085C71.9471 125.925 64.6371 128.021 54.3585 136.689C33.7271 154.052 39.7769 174.23 51.0595 181.729C57.8265 186.227 69.7572 181.729 69.7572 181.729C69.9262 181.847 102.388 163.571 118.389 154.755C142.368 151.333 131.544 93.4499 116.875 85.7406Z" fill="#2F337E"/>
<path d="M113.323 146.228C113.4 146.267 105.757 149.745 100.242 147.92C95.0532 146.21 90.4838 138.393 90.5555 138.381C92.8095 138.055 95.0967 135.831 95.7371 122.657L96.7334 122.914L113.508 127.15C113.508 127.15 112.844 132.465 112.57 137.491C112.334 141.712 112.383 145.734 113.323 146.228Z" fill="#FFB27D"/>
<path d="M113.507 127.15C113.507 127.15 113.507 128.244 112.879 133.188C103.402 130.794 99.2147 127.649 96.2666 124.049L113.507 127.15Z" fill="#ED975D"/>
<path d="M117.093 127.819C117.093 127.819 94.9173 131.432 92.8836 117.567C90.8499 103.702 86.6135 94.852 100.685 91.9585C114.757 89.065 118.292 93.9473 120.095 98.4068C121.898 102.866 122.795 126.512 117.093 127.819Z" fill="#FFB27D"/>
<path d="M117.093 91.3996C117.093 91.3996 107.024 107.305 98.0339 111.073C89.0436 114.84 84.6279 112.926 84.6279 112.926C87.3246 108.486 89.0796 103.539 89.7839 98.3913C89.9333 97.1851 90.4022 96.0408 91.1421 95.0769C91.882 94.1131 92.866 93.3647 93.9921 92.9092C100.444 90.3155 112.931 86.2379 117.093 91.3996Z" fill="#2F337E"/>
<path d="M108.257 92.9376C108.257 92.9376 114.148 95.9644 116.589 98.8016C118.935 101.541 121.645 108.971 121.455 112.308C121.455 112.308 124.368 96.3181 118.302 90.8207C111.866 84.9926 108.257 92.9376 108.257 92.9376Z" fill="#2F337E"/>
<path d="M131.063 180.076C130.392 225.183 130.878 215.752 125.94 220.032C124.752 221.057 121.414 221.677 117.016 221.967C103.185 222.885 78.9014 220.609 77.9767 218.051C74.7879 209.209 77.0393 206.461 74.3909 192.922C74.1117 191.481 73.7685 189.923 73.3663 188.226C71.1482 178.928 68.9916 175.763 76.8574 160.826C83.9933 147.294 92.3841 136.299 93.0501 136.696C111.873 147.878 112.516 138.506 112.516 138.506C112.516 138.506 131.393 158.071 131.063 180.076Z" fill="white"/>
<path d="M112.516 138.499C112.516 138.499 131.782 141.766 134.057 150.111C136.331 158.456 149.714 207.52 149.714 207.52C149.714 207.52 139.868 209.291 135.32 204.739C130.771 200.188 119.491 162.51 119.491 162.51L112.516 138.499Z" fill="white"/>
<path d="M117.024 221.96C103.193 222.877 78.9089 220.601 77.9843 218.043C74.7954 209.201 77.0468 206.454 74.3984 192.914L81.0579 174.133C81.0579 174.133 79.9565 195.049 86.1216 200.549C92.2867 206.049 111.361 211.17 114.358 215.765C115.797 217.972 116.747 220.183 117.024 221.96Z" fill="#EBF3FF"/>
<path d="M101.19 213.164C101.19 213.164 114.824 210.126 117.024 211.336C119.224 212.546 124.603 216.957 125.274 218.492C125.945 220.027 120.377 217.326 118.566 216.839C117.39 216.524 114.301 217.608 112.772 218.12C106.338 220.265 102.394 219.161 102.394 219.161L101.19 213.164Z" fill="#FFB27D"/>
<path d="M93.0474 136.689C93.0474 136.689 73.7504 137.817 67.4111 146.661C58.49 159.115 40.7913 212.18 50.9341 219.256C62.3576 227.227 102.929 221.34 102.929 221.34C102.929 221.34 104.279 215.027 102.399 211.972C100.519 208.917 70.0006 203.986 68.5893 202.576C67.178 201.167 86.1958 175.089 86.1958 170.86C86.1958 166.632 93.0474 136.689 93.0474 136.689Z" fill="white"/>
<path d="M117.685 215.135C117.685 215.135 120.54 218.82 121.478 219.261C122.415 219.702 123.015 219.591 123.015 219.591L121.089 216.124L117.685 215.135Z" fill="#FFB27D"/>
<path d="M117.024 211.344L125.331 215.381C125.331 215.381 124.977 215.96 123.955 215.911C122.933 215.862 120.354 214.922 120.354 214.922L117.024 211.344Z" fill="#FFB27D"/>
<path d="M147.625 220.904H109.046C109.046 220.088 109.37 219.306 109.946 218.729C110.523 218.152 111.304 217.828 112.119 217.828H129.872H147.625V220.904Z" fill="#2F4CCE"/>
<path d="M147.512 178.864H207.157L192.85 220.906H132.82L147.512 178.864Z" fill="#2F4CCE"/>
<path d="M208.035 178.864L193.728 220.906H133.698L148.39 178.864H208.035Z" fill="#4D6CFA"/>
<path d="M175.879 199.496C175.51 201.103 173.906 202.404 172.293 202.404C170.679 202.404 169.688 201.103 170.059 199.496C170.431 197.889 172.032 196.587 173.645 196.587C175.259 196.587 176.26 197.889 175.879 199.496Z" fill="#FCF8FF"/>
<path d="M357.092 220.906H95.7113C94.6122 220.906 93.7212 221.798 93.7212 222.897V228.372C93.7212 229.472 94.6122 230.363 95.7113 230.363H357.092C358.191 230.363 359.082 229.472 359.082 228.372V222.897C359.082 221.798 358.191 220.906 357.092 220.906Z" fill="#182D4F"/>
<path d="M363.492 386.165H363.605C363.92 386.13 364.225 386.032 364.502 385.879C364.779 385.725 365.023 385.518 365.22 385.269C365.417 385.021 365.563 384.736 365.649 384.431C365.735 384.126 365.761 383.807 365.723 383.492L342.43 225.729L333.904 225.986L361.31 384.604C361.408 385.093 361.688 385.526 362.093 385.816C362.498 386.106 362.998 386.23 363.492 386.165V386.165Z" fill="#182D4F"/>
<path d="M86.9592 386.165H86.8465C86.5316 386.129 86.2267 386.032 85.9495 385.879C85.6723 385.725 85.4283 385.518 85.2314 385.269C85.0345 385.021 84.8887 384.736 84.8023 384.431C84.716 384.126 84.6908 383.807 84.7283 383.492L108.021 225.729L116.548 225.986L89.1414 384.604C89.0448 385.093 88.7652 385.527 88.3596 385.817C87.9541 386.107 87.4532 386.232 86.9592 386.165V386.165Z" fill="#182D4F"/>
<path d="M140.88 386.165H140.768C140.453 386.13 140.148 386.032 139.871 385.879C139.594 385.725 139.35 385.518 139.153 385.269C138.957 385.021 138.811 384.736 138.725 384.431C138.639 384.126 138.614 383.806 138.652 383.492L161.942 225.729L170.471 225.986L143.065 384.604C142.967 385.093 142.687 385.527 142.281 385.817C141.875 386.107 141.374 386.231 140.88 386.165V386.165Z" fill="#182D4F"/>
<path d="M278.295 386.037H324.517C326.74 383.323 325.92 373.307 325.585 370.037C325.513 369.378 325.467 368.994 325.467 368.994C325.467 368.994 309.684 356.361 307.514 366.033C307.448 366.336 307.368 366.633 307.281 366.925C304.551 375.972 292.298 380.086 285.223 381.229C280.623 381.977 278.925 384.369 278.295 386.037Z" fill="#171941"/>
<path d="M404.415 235.758C402.745 235.758 325.242 250.318 312.422 266.198C306.019 274.143 305.063 365.744 305.063 365.744C305.063 365.744 312.988 375.573 330.1 369.865C330.1 369.865 342.651 307.187 341.721 288.175C341.465 282.918 394.674 287.406 404.415 284.892C414.155 282.378 437.95 261.17 432.704 250.844C427.459 240.518 404.415 235.758 404.415 235.758Z" fill="#171941"/>
<path d="M312.752 213.325C312.752 213.325 297.128 213.535 293.422 215.119C289.716 216.703 282.224 220.342 284.232 220.901C286.24 221.46 295.817 220.673 297.886 220.988C299.956 221.304 302.497 220.901 303.778 220.901H310.949L312.752 213.325Z" fill="#FFB27D"/>
<path d="M294.475 175.784C294.475 175.784 289.145 171.973 283.974 171.232C281.023 170.809 278.152 170.284 276.418 169.671C271.641 167.987 262.074 159.391 262.81 158.394C265.115 155.163 276.282 162.003 278.229 161.267C280.175 160.532 274.487 156.485 276.467 155.063C277.491 154.319 279.917 158.046 281.894 158.42C284.568 158.933 286.661 162.705 287.465 162.903C289.032 163.287 295.894 168.395 295.894 168.395L294.475 175.784Z" fill="#FFB27D"/>
<path d="M396.695 131.276C396.695 131.276 384.795 134.967 373.069 167.275C361.343 199.583 356.889 201.328 352.627 202.597C348.365 203.866 310.955 211.311 310.955 211.311V220.899H368.6C368.6 220.899 390.215 200.324 396.695 186.484C403.175 172.644 396.695 131.276 396.695 131.276Z" fill="#FF5292"/>
<path d="M257.869 386.037H304.088C306.311 383.323 305.491 373.307 305.156 370.037C305.087 369.378 305.041 368.994 305.041 368.994C305.041 368.994 289.255 356.361 287.088 366.033C287.022 366.336 286.942 366.633 286.855 366.925C284.122 375.972 271.871 380.086 264.797 381.229C260.197 381.977 258.496 384.369 257.869 386.037Z" fill="#1B3051"/>
<path d="M381.576 235.758C379.906 235.758 302.403 250.318 289.583 266.198C283.18 274.143 282.225 365.744 282.225 365.744C282.225 365.744 290.149 375.573 307.262 369.865C307.262 369.865 319.812 307.187 318.882 288.175C318.626 282.918 371.835 287.406 381.576 284.892C391.316 282.378 415.111 261.17 409.866 250.844C404.62 240.518 381.576 235.758 381.576 235.758Z" fill="#2B478B"/>
<path d="M386.426 141.515C392 141.054 397.847 139.567 402.898 137.927C409.214 135.877 414.306 132.878 411.025 127.104C408 121.781 403.108 109.886 403.439 100.037L391.687 109.52L383.704 115.958C383.704 115.958 383.737 119.751 384.608 126.402C384.769 127.614 384.954 128.924 385.174 130.32C385.261 130.874 385.183 131.441 384.95 131.95C384.716 132.459 384.338 132.888 383.863 133.183C383.801 133.219 383.742 133.258 383.683 133.296C379.716 135.782 381.755 141.889 386.426 141.515Z" fill="#FFB27D"/>
<path d="M383.704 114.381C383.704 114.381 383.294 115.76 383.996 120.848C391.114 119.687 397.768 114.007 397.768 114.007C394.144 113.01 392.825 109.094 390.128 109.458L383.704 114.381Z" fill="#ED975D"/>
<path d="M377.121 115.542C377.121 115.542 404.496 120.094 407.065 102.984C409.635 85.8741 414.901 74.9485 397.53 71.3194C380.159 67.6903 375.776 73.7054 373.53 79.2055C371.284 84.7055 370.065 113.918 377.121 115.542Z" fill="#FFB27D"/>
<path d="M369.504 71.6449C368.328 75.7635 371.473 80.7791 376.755 82.4322C384.595 84.8823 382.863 94.5061 386.39 94.3728C389.917 94.2395 391.341 88.842 394.492 93.158C397.181 96.8383 392.256 101.2 392.594 103.22C393.175 106.685 398.6 113.774 403.487 113.418C408.374 113.062 417.523 89.8185 415.692 82.627C413.86 75.4355 406.545 67.8518 399.622 66.8061C392.699 65.7605 383.079 68.754 380.858 68.754C378.637 68.754 370.152 69.4203 369.504 71.6449Z" fill="#171941"/>
<path d="M433.071 155.014C429.113 139.077 418.177 122.355 410.787 122.37C398.188 122.393 380.072 125.72 372.759 143.773C367.381 157.069 360.188 233.554 368.308 238.993C386.87 251.428 429.897 276.813 437.54 250.925C444.54 227.208 439.938 182.67 433.071 155.014Z" fill="#FF69A1"/>
<path d="M402.465 139.154C401.63 136.978 400.297 135.027 398.573 133.458C396.849 131.889 394.782 130.746 392.537 130.121C390.293 129.495 387.933 129.405 385.646 129.856C383.36 130.307 381.212 131.287 379.372 132.719C375.095 136.051 369.859 140.79 363.533 147.53C340.018 172.585 335.238 172.431 330.822 171.914C326.407 171.396 289.091 163.471 289.091 163.471C287.827 164.47 286.792 165.729 286.056 167.162C284.555 170.207 285.31 172.288 285.31 172.288C283.848 171.345 298.537 181.476 305.85 185.515C315.503 190.848 330.051 195.851 335.848 197.75C337.489 198.288 339.262 198.261 340.886 197.673C349.487 194.572 378.371 183.27 401.881 163.656C408.074 158.479 405.797 147.83 402.465 139.154Z" fill="#FF69A1"/>
<path d="M412.05 122.524L409.199 116.091C409.199 116.091 383.663 118.175 379.37 132.719C379.373 132.719 399.164 122.834 412.05 122.524Z" fill="white"/>
<path d="M474.049 385.46H474.226C475.668 385.435 476.787 384.256 476.644 382.897L467.026 286.77L458.633 287.521L472.443 384.163C472.508 384.538 472.707 384.876 473.003 385.114C473.298 385.353 473.67 385.476 474.049 385.46V385.46Z" fill="#8CB4F4"/>
<path d="M424.536 385.46H424.713C426.155 385.435 427.274 384.256 427.133 382.897L417.513 286.77L409.12 287.521L422.933 384.163C422.997 384.538 423.195 384.876 423.49 385.115C423.785 385.353 424.157 385.476 424.536 385.46V385.46Z" fill="#8CB4F4"/>
<path d="M331.586 385.46H331.409C329.97 385.435 328.848 384.256 328.991 382.897L338.609 286.77L347.003 287.521L333.192 384.161C333.128 384.536 332.93 384.875 332.634 385.114C332.339 385.353 331.966 385.476 331.586 385.46Z" fill="#73A2E5"/>
<path d="M471.324 273.151L480.452 192.865C481.648 181.294 477.781 169.966 461.094 169.089L431.741 167.295C414.342 166.578 406.486 181.066 404.284 192.219L386.867 280.476L471.324 273.151Z" fill="#8CB4F4"/>
<path d="M336.14 272.787H471.183V283.413C471.183 284.676 470.681 285.887 469.789 286.78C468.897 287.673 467.686 288.175 466.424 288.175H336.14C334.878 288.175 333.667 287.673 332.775 286.78C331.882 285.887 331.381 284.676 331.381 283.413V277.549C331.381 276.286 331.882 275.075 332.775 274.182C333.667 273.289 334.878 272.787 336.14 272.787Z" fill="#73A2E5"/>
<path d="M390.56 272.787H471.183V284.477C471.185 284.963 471.09 285.446 470.905 285.896C470.72 286.346 470.448 286.755 470.105 287.1C469.762 287.445 469.354 287.718 468.904 287.905C468.455 288.092 467.973 288.188 467.487 288.188H390.56C389.58 288.188 388.64 287.798 387.947 287.104C387.254 286.411 386.864 285.47 386.864 284.489V276.498C386.863 276.011 386.957 275.529 387.142 275.079C387.327 274.629 387.599 274.22 387.942 273.875C388.286 273.53 388.694 273.256 389.143 273.07C389.592 272.883 390.074 272.787 390.56 272.787Z" fill="#8CB4F4"/>
<path d="M298.209 24H240.791C238.145 24 236 26.145 236 28.7911V84.2104C236 86.8564 238.145 89.0014 240.791 89.0014H298.209C300.855 89.0014 303 86.8564 303 84.2104V28.7911C303 26.145 300.855 24 298.209 24Z" fill="#8687A6"/>
<path d="M295.721 26.8173H243.278C240.861 26.8173 238.901 28.7769 238.901 31.1943V81.8101C238.901 84.2274 240.861 86.1871 243.278 86.1871H295.721C298.139 86.1871 300.098 84.2274 300.098 81.8101V31.1943C300.098 28.7769 298.139 26.8173 295.721 26.8173Z" fill="#DFEBFD"/>
<path d="M269.5 34.1362C270.267 34.1362 270.889 33.5146 270.889 32.7478C270.889 31.981 270.267 31.3594 269.5 31.3594C268.733 31.3594 268.112 31.981 268.112 32.7478C268.112 33.5146 268.733 34.1362 269.5 34.1362Z" fill="#8687A6"/>
<path d="M279.312 34.6996C279.446 34.4598 279.648 34.265 279.892 34.1398C280.136 34.0146 280.412 33.9647 280.685 33.9963C280.958 34.0279 281.215 34.1396 281.424 34.3174C281.633 34.4951 281.785 34.7309 281.86 34.9949C281.936 35.2589 281.931 35.5393 281.847 35.8007C281.763 36.062 281.603 36.2925 281.388 36.4631C281.173 36.6338 280.912 36.7368 280.639 36.7592C280.365 36.7817 280.091 36.7225 279.851 36.5892C279.691 36.5006 279.551 36.3814 279.438 36.2384C279.324 36.0954 279.24 35.9315 279.19 35.756C279.14 35.5805 279.125 35.3969 279.146 35.2156C279.167 35.0343 279.224 34.859 279.312 34.6996V34.6996Z" fill="#8687A6"/>
<path d="M288.907 42.3331C289.138 42.184 289.407 42.1067 289.682 42.111C289.957 42.1153 290.224 42.201 290.45 42.3572C290.676 42.5134 290.85 42.7332 290.951 42.9886C291.052 43.2441 291.075 43.5238 291.017 43.7923C290.96 44.0608 290.823 44.3061 290.626 44.4971C290.428 44.6881 290.179 44.8162 289.908 44.8653C289.638 44.9144 289.359 44.8822 289.107 44.7728C288.855 44.6634 288.642 44.4817 288.493 44.2507C288.394 44.0977 288.326 43.9266 288.293 43.7473C288.261 43.5681 288.263 43.3841 288.302 43.206C288.34 43.0278 288.414 42.859 288.517 42.7092C288.621 42.5595 288.754 42.4316 288.907 42.3331V42.3331Z" fill="#8687A6"/>
<path d="M293.658 54.1316C293.932 54.1316 294.201 54.2131 294.429 54.3658C294.658 54.5185 294.836 54.7355 294.941 54.9894C295.046 55.2433 295.073 55.5226 295.019 55.792C294.965 56.0614 294.833 56.3088 294.638 56.5029C294.444 56.6969 294.196 56.8289 293.927 56.8821C293.657 56.9353 293.378 56.9074 293.124 56.8018C292.871 56.6963 292.654 56.5178 292.502 56.2891C292.35 56.0604 292.269 55.7916 292.269 55.5169C292.27 55.1492 292.417 54.7969 292.677 54.5371C292.937 54.2774 293.29 54.1316 293.658 54.1316V54.1316Z" fill="#8687A6"/>
<path d="M291.226 67.823C291.42 68.0172 291.552 68.2646 291.606 68.5339C291.659 68.8032 291.632 69.0823 291.527 69.336C291.421 69.5896 291.243 69.8064 291.015 69.9589C290.787 70.1114 290.518 70.1928 290.244 70.1928C289.969 70.1928 289.701 70.1114 289.473 69.9589C289.244 69.8064 289.066 69.5896 288.961 69.336C288.856 69.0823 288.829 68.8032 288.882 68.5339C288.936 68.2646 289.068 68.0172 289.262 67.823C289.39 67.6936 289.543 67.5909 289.712 67.5208C289.881 67.4507 290.061 67.4147 290.244 67.4147C290.426 67.4147 290.607 67.4507 290.776 67.5208C290.944 67.5909 291.097 67.6936 291.226 67.823Z" fill="#8687A6"/>
<path d="M282.51 76.5616C282.703 76.7554 282.835 77.0023 282.888 77.2709C282.941 77.5396 282.913 77.818 282.809 78.0709C282.704 78.3239 282.526 78.54 282.298 78.6921C282.071 78.8442 281.803 78.9254 281.529 78.9254C281.255 78.9254 280.987 78.8442 280.76 78.6921C280.532 78.54 280.354 78.3239 280.249 78.0709C280.144 77.818 280.117 77.5396 280.17 77.2709C280.223 77.0023 280.355 76.7554 280.548 76.5616C280.677 76.4326 280.83 76.3303 280.998 76.2605C281.166 76.1907 281.347 76.1548 281.529 76.1548C281.711 76.1548 281.892 76.1907 282.06 76.2605C282.228 76.3303 282.381 76.4326 282.51 76.5616Z" fill="#8687A6"/>
<path d="M268.112 81.063C268.112 80.7884 268.193 80.5199 268.346 80.2916C268.498 80.0633 268.715 79.8853 268.969 79.7802C269.222 79.6752 269.502 79.6477 269.771 79.7012C270.04 79.7548 270.288 79.887 270.482 80.0812C270.676 80.2754 270.808 80.5228 270.862 80.7921C270.915 81.0614 270.888 81.3406 270.783 81.5943C270.678 81.848 270.5 82.0648 270.271 82.2174C270.043 82.3699 269.775 82.4514 269.5 82.4514C269.132 82.4514 268.779 82.3051 268.518 82.0447C268.258 81.7843 268.112 81.4312 268.112 81.063Z" fill="#8687A6"/>
<path d="M259.644 34.6996C259.51 34.4598 259.308 34.265 259.064 34.1398C258.82 34.0146 258.544 33.9647 258.271 33.9963C257.999 34.0279 257.741 34.1396 257.532 34.3174C257.323 34.4951 257.171 34.7309 257.096 34.9949C257.021 35.2589 257.025 35.5393 257.109 35.8007C257.193 36.062 257.353 36.2925 257.568 36.4631C257.783 36.6338 258.044 36.7368 258.318 36.7592C258.591 36.7817 258.865 36.7225 259.105 36.5892C259.265 36.5006 259.405 36.3814 259.519 36.2384C259.632 36.0954 259.716 35.9315 259.766 35.756C259.816 35.5805 259.831 35.3969 259.81 35.2156C259.789 35.0343 259.733 34.859 259.644 34.6996V34.6996Z" fill="#8687A6"/>
<path d="M250.049 42.3331C249.818 42.184 249.549 42.1067 249.274 42.111C248.999 42.1153 248.732 42.201 248.506 42.3572C248.28 42.5134 248.106 42.7332 248.005 42.9886C247.904 43.2441 247.881 43.5238 247.939 43.7923C247.997 44.0608 248.133 44.3061 248.33 44.4971C248.528 44.6881 248.777 44.8162 249.048 44.8653C249.318 44.9144 249.597 44.8822 249.849 44.7728C250.101 44.6634 250.315 44.4817 250.463 44.2507C250.562 44.0977 250.63 43.9266 250.663 43.7473C250.696 43.5681 250.693 43.3841 250.654 43.206C250.616 43.0278 250.542 42.859 250.439 42.7092C250.335 42.5595 250.203 42.4316 250.049 42.3331V42.3331Z" fill="#8687A6"/>
<path d="M245.299 54.1316C245.024 54.1316 244.755 54.2131 244.527 54.3658C244.299 54.5185 244.121 54.7355 244.016 54.9894C243.911 55.2433 243.883 55.5226 243.937 55.792C243.991 56.0614 244.124 56.3088 244.318 56.5029C244.513 56.6969 244.76 56.8289 245.03 56.8821C245.299 56.9353 245.579 56.9074 245.832 56.8018C246.086 56.6963 246.302 56.5178 246.455 56.2891C246.607 56.0604 246.688 55.7916 246.687 55.5169C246.687 55.3347 246.651 55.1543 246.581 54.986C246.512 54.8178 246.409 54.6649 246.28 54.5362C246.151 54.4076 245.998 54.3056 245.83 54.2361C245.661 54.1667 245.481 54.1312 245.299 54.1316V54.1316Z" fill="#8687A6"/>
<path d="M247.724 67.823C247.53 68.0172 247.398 68.2646 247.344 68.5339C247.291 68.8032 247.318 69.0823 247.423 69.336C247.529 69.5896 247.706 69.8064 247.935 69.9589C248.163 70.1114 248.432 70.1928 248.706 70.1928C248.981 70.1928 249.249 70.1114 249.477 69.9589C249.706 69.8064 249.884 69.5896 249.989 69.336C250.094 69.0823 250.121 68.8032 250.068 68.5339C250.014 68.2646 249.882 68.0172 249.688 67.823C249.559 67.6936 249.406 67.5909 249.238 67.5208C249.069 67.4507 248.889 67.4147 248.706 67.4147C248.524 67.4147 248.343 67.4507 248.174 67.5208C248.006 67.5909 247.853 67.6936 247.724 67.823Z" fill="#8687A6"/>
<path d="M257.421 78.9304C258.188 78.9304 258.81 78.3088 258.81 77.542C258.81 76.7752 258.188 76.1536 257.421 76.1536C256.654 76.1536 256.033 76.7752 256.033 77.542C256.033 78.3088 256.654 78.9304 257.421 78.9304Z" fill="#8687A6"/>
<path d="M269.123 55.5171C269.123 55.2425 269.205 54.974 269.357 54.7457C269.51 54.5174 269.727 54.3394 269.98 54.2344C270.234 54.1293 270.513 54.1018 270.782 54.1553C271.052 54.2089 271.299 54.3411 271.493 54.5353C271.687 54.7295 271.82 54.9769 271.873 55.2462C271.927 55.5155 271.899 55.7947 271.794 56.0484C271.689 56.3021 271.511 56.5189 271.283 56.6715C271.055 56.8241 270.786 56.9055 270.512 56.9055C270.329 56.9059 270.148 56.8703 269.98 56.8006C269.811 56.731 269.658 56.6288 269.529 56.4997C269.4 56.3707 269.298 56.2175 269.228 56.0489C269.158 55.8802 269.123 55.6995 269.123 55.5171Z" fill="#8687A6"/>
<path d="M270.705 38.1802H270.325V55.5197H270.705V38.1802Z" fill="#8687A6"/>
<path d="M279.187 47.8456L269.995 55.0613L270.696 55.9551L279.889 48.7394L279.187 47.8456Z" fill="#8687A6"/>
<rect x="7" y="385.5" width="535" height="4" rx="1" fill="#171941"/>
<defs>
<linearGradient id="paint0_linear_759_5711" x1="7" y1="503" x2="499.141" y2="-19.0888" gradientUnits="userSpaceOnUse">
<stop stop-color="#4D6CFA"/>
<stop offset="1" stop-color="#FF5292"/>
</linearGradient>
<clipPath id="clip0_759_5711">
<rect width="616" height="386" fill="white" transform="translate(-76)"/>
</clipPath>
</defs>
</svg>
