<svg width="651" height="539" viewBox="0 0 651 539" fill="none" xmlns="http://www.w3.org/2000/svg">
<g clip-path="url(#clip0_765_5741)">
<path fill-rule="evenodd" clip-rule="evenodd" d="M83.4232 643.074C36.8892 620.682 27.83 553.357 24.6754 501.21C21.7624 453.056 63.0806 411.606 66.5003 363.327C69.7807 317.013 25.8339 271.529 43.9944 228.462C61.7928 186.253 119.681 179.708 155.83 151.482C192.474 122.869 213.545 57.5027 259.234 60.3961C311.179 63.6856 322.469 146.135 370.595 165.083C409.907 180.561 463.501 127.637 496.523 153.821C529.066 179.624 495.592 238.961 512.108 277.29C528.533 315.409 572.673 333.962 590.32 371.502C613.21 420.194 657.388 479.502 629.364 526.721C600.549 575.274 525.076 563.424 470.153 573.98C432.068 581.3 394.041 572.982 355.803 579.301C319.563 585.289 286.944 601.788 251.122 610.175C194.902 623.338 134.697 667.747 83.4232 643.074Z" fill="url(#paint0_linear_765_5741)" fill-opacity="0.15"/>
</g>
<path d="M224.619 506.681H88.0361V537.524H224.619V506.681Z" fill="#171941"/>
<path d="M182.506 506.681H45.9233V537.524H182.506V506.681Z" fill="#2B478B"/>
<path d="M278.351 537.517H380.052V395.363H278.351V537.517Z" fill="#D92165"/>
<path d="M246.992 537.517H348.693V395.363H246.992V537.517Z" fill="#FF5292"/>
<path d="M439.431 194.678C437.862 194.441 433.125 198.822 433.125 198.822C423.009 199.991 408.216 202.659 402.893 203.705C399.115 204.431 388.968 200.971 379.051 196.998C367.258 192.268 355.788 186.809 355.788 186.809C349.245 186.46 341.815 198.414 355.091 205.994C357.117 207.152 364.729 209.133 373.494 210.936C385.584 213.43 399.869 215.593 404.731 214.833C410.378 213.95 426.358 208.101 435.877 203.622H435.898L436.006 203.569C436.575 203.304 438.905 202.268 440.457 202.359C442.239 202.464 446.205 199.22 446.327 198.334C446.45 197.448 441.005 194.919 439.431 194.678Z" fill="#EEB5A9"/>
<path d="M427.079 345.074L421.498 346.204C421.498 346.204 396.006 317.566 392.072 305.515C389.979 299.075 376.511 296.292 362.447 292.654C350.207 289.49 337.506 285.677 331.444 278.237C318.419 262.251 339.645 242.619 339.645 242.619C339.645 242.619 362.21 256.028 381.677 269.886C395.281 279.57 407.378 289.469 409.202 295.158C413.625 308.985 423.012 335.283 427.079 345.074Z" fill="#FF5292"/>
<path d="M419.622 354.523H422.761C423.807 354.356 424.585 354.053 425.663 353.913C427.299 353.697 428.049 354.37 428.199 354.523L428.23 354.555H441.538C441.887 354.077 441.538 352.968 441.238 352.151C441.132 351.878 440.964 351.634 440.747 351.436C440.53 351.239 440.271 351.095 439.989 351.014C438.594 350.606 435.803 350.24 433.25 347.934C431.816 346.64 426.326 343.169 426.326 343.169H426.298C426.176 343.169 425.6 343.347 423.106 345.454C421.816 346.543 419.618 343.919 419.618 343.919C419.317 344.195 419.072 344.527 418.896 344.896C418.587 345.53 418.487 346.246 418.61 346.94C418.809 348.14 418.171 350.369 417.658 351.876C417.347 352.79 417.086 353.435 417.086 353.435C417.086 353.435 416.929 354.185 419.622 354.523Z" fill="#171941"/>
<path d="M381.677 269.879L362.461 292.654C350.221 289.49 337.52 285.677 331.458 278.237C318.419 262.251 339.645 242.619 339.645 242.619C339.645 242.619 362.21 256.021 381.677 269.879Z" fill="#F12F77"/>
<path d="M364.216 257.968C364.216 257.968 362.667 262.851 360.145 270.201C356.957 279.493 352.206 292.727 347.054 304.999C345.924 307.695 344.769 310.346 343.611 312.896C339.328 322.338 334.939 330.434 331.078 334.547C324.14 341.942 307.271 389.482 307.271 389.482L303.085 388.321C303.085 388.321 297.225 347.725 317.983 324.623C318.217 324.392 318.366 324.088 318.405 323.761C318.681 320.34 319.668 305.03 321.817 289.511C322.347 285.706 322.944 281.889 323.617 278.23C323.659 277.997 323.704 277.766 323.746 277.533C326.903 260.622 329.927 253.116 333.83 249.317L362.531 257.486L364.216 257.968Z" fill="#FF5292"/>
<path d="M302.601 395.335H305.74C306.787 395.171 307.564 394.864 308.642 394.725C310.275 394.512 311.028 395.182 311.178 395.335L311.206 395.367H324.517C324.866 394.889 324.517 393.779 324.213 392.967C324.108 392.693 323.941 392.448 323.725 392.25C323.509 392.052 323.25 391.907 322.968 391.826C321.573 391.418 318.782 391.055 316.226 388.746C314.792 387.452 309.305 383.985 309.305 383.985H309.274C309.155 383.985 308.576 384.162 306.085 386.269C304.795 387.358 302.597 384.735 302.597 384.735C302.295 385.01 302.049 385.341 301.875 385.711C301.564 386.345 301.464 387.061 301.589 387.755C301.788 388.955 301.146 391.184 300.637 392.691C300.326 393.605 300.065 394.254 300.065 394.254C300.065 394.254 299.904 394.997 302.601 395.335Z" fill="#171941"/>
<path d="M308.757 202.771C308.757 202.771 303.953 214.519 298.418 225.957C293.757 235.57 288.585 244.96 285.302 246.966C280.677 249.791 267.931 257.762 259.664 263.709C259.664 263.709 253.214 263.66 252.21 264.895C251.205 266.13 248.896 271.68 249.569 272.241C250.242 272.803 255.374 272.545 256.622 271.265C257.707 270.152 260.111 269.349 260.728 269.172L260.84 269.137H260.867C270.913 266.046 286.68 259.607 291.441 256.457C295.55 253.747 304.654 242.532 311.917 232.549C317.181 225.311 321.478 218.726 322.196 216.504C326.902 201.944 313.368 198.121 308.757 202.771Z" fill="#EEB5A9"/>
<path d="M333.868 156.702C333.339 155.929 332.765 155.187 332.149 154.481C332.87 154.519 333.591 154.411 334.27 154.163C335.954 153.465 336.711 148.115 336.471 146.527C336.23 144.94 333.875 140.35 330.987 139.9C328.099 139.45 325.117 142.649 325.117 142.649C325.65 140.336 330.537 139 330.537 139C320.474 140.856 320.987 147.567 321.056 148.184C311.844 144.905 306.438 162.249 306.438 162.249L330.297 176.309C330.297 176.309 330.359 172.472 332.637 172.727C336.185 173.104 339.143 164.387 333.868 156.702Z" fill="#2F337E"/>
<path d="M335.389 193.088C329.916 195.665 322.65 191.951 322.688 191.912C323.159 191.441 322.992 190.035 322.563 188.197C322.134 186.282 321.115 183.663 319.239 180.523C318.848 179.857 318.457 179.194 317.986 178.49L318.614 178.256L329.25 173.993C329.25 173.993 330.969 177.08 332.769 179.899C334.294 182.243 335.909 184.357 336.606 184.277C336.641 184.263 343.68 189.111 335.389 193.088Z" fill="#EEB5A9"/>
<path d="M329.25 175.071C328.978 178.866 327.688 185.71 322.563 188.211C322.134 186.296 321.116 183.676 319.239 180.537L329.25 175.071Z" fill="#E49C8C"/>
<path d="M318.618 184.866C318.618 184.866 332.466 179.407 328.932 170.836C325.399 162.266 324.809 155.788 315.82 158.91C306.831 162.032 306.468 166.005 306.953 169.155C307.438 172.305 314.924 186.062 318.618 184.866Z" fill="#EEB5A9"/>
<path d="M323.78 168.88C330.174 167.98 332.04 165.391 332.04 165.391C328.154 164.064 324.85 161.428 322.692 157.934C322.692 157.934 315.506 155.492 310.18 159.563C309.844 160.005 309.614 160.518 309.507 161.063C308.286 160.665 306.451 160.766 305.394 164.202C303.8 169.385 309.461 175.043 309.461 175.043C310.832 174.656 309.287 170.038 309.071 167.575C308.91 165.758 309.891 163.438 310.417 162.343C311.094 163.222 317.84 171.698 326.076 172.036C323.116 170.938 320.321 169.441 317.767 167.586C319.734 168.552 321.831 169.155 323.78 168.88Z" fill="#2F337E"/>
<path d="M361.753 210.759C361.638 210.347 361.512 209.918 361.379 209.478C363.129 206.214 364.309 202.675 364.868 199.014C365.806 192.679 364.201 188.769 364.201 188.769C364.201 188.769 354.598 183.676 350.357 183.028C350.34 183.025 350.322 183.025 350.305 183.028L350.134 183.01C345.854 182.421 336.582 184.311 336.582 184.311C336.582 184.311 338.372 189.073 333.328 192.243C328.284 195.414 322.894 191.431 322.894 191.431L322.382 191.779C322.382 191.779 309.109 200.538 307.916 202.537C306.723 204.536 301.62 214.449 301.62 214.449C301.62 214.449 303.239 222.765 321.171 223.462C322.643 227.038 323.774 230.523 324.14 233.432C325.563 244.723 323.91 253.632 325.57 260.221C327.23 266.81 357.145 263.053 362.562 261.787C367.979 260.521 366.748 254.734 367.177 249.114C367.707 242.034 363.518 216.988 361.753 210.759Z" fill="#E8ECFF"/>
<path d="M364.875 199.017C364.315 202.694 363.129 206.248 361.369 209.524C360.898 207.452 358.983 199.865 355.893 196.422C355.879 196.422 361.08 196.893 364.875 199.017Z" fill="#CFD8FF"/>
<path d="M243.067 273.008C243.067 273.008 248.648 266.252 249.841 265.456C251.034 264.661 256.305 263.255 256.608 263.538C256.912 263.82 256.922 264.236 256.26 264.804C255.597 265.373 253.12 266.834 253.469 266.998C253.818 267.162 261.335 263.423 262.416 264.679C263.498 265.934 261.806 271.128 258.928 273.619C256.05 276.109 247.396 277.166 246.852 277.515C242.241 280.463 243.067 273.008 243.067 273.008Z" fill="#E49C8C"/>
<path d="M144.945 257.413C144.945 257.413 152.968 266.911 163.15 262.938C163.15 262.938 165.341 257.633 165.372 253.722C165.372 253.241 165.372 252.774 165.389 252.327C165.445 247.922 165.592 245.452 165.592 245.452C165.128 245.26 150.007 239.051 150.017 239.567C150.268 251.476 144.945 257.413 144.945 257.413Z" fill="#EEB5A9"/>
<path d="M151.528 242.407C152.986 245.11 157.988 250.398 165.389 252.331C165.445 247.925 165.592 245.455 165.592 245.455C165.163 245.34 151.091 241.612 151.528 242.407Z" fill="#E49C8C"/>
<path d="M168.759 244.999C168.759 244.999 151.754 248.996 149.424 238.371C147.094 227.746 143.337 221.098 154.098 218.094C164.859 215.091 167.862 218.687 169.502 222.046C171.141 225.405 173.123 243.683 168.759 244.999Z" fill="#EEB5A9"/>
<path d="M150.007 241.263C149.776 241.413 146.117 242.536 139.193 228.73C138.105 226.563 137.362 221.875 139.891 217.731C142.42 213.587 151.402 210.333 158.891 208.913C166.38 207.494 168.156 211.704 169.914 215.925C171.762 220.361 177.096 224.01 177.096 224.01C170.653 227.61 162.895 222.465 160.206 223.312C157.517 224.16 156.568 228.395 156.369 229.755C156.17 231.116 155.86 232.242 152.476 231.028C149.093 229.814 150.948 235.818 151.489 236.958C151.486 236.962 151.946 240.021 150.007 241.263Z" fill="#624129"/>
<path d="M106.195 506.674H95.8982C93.739 506.674 91.3391 504.484 90.7392 500.472C90.1392 496.461 85.7022 494.27 84.7395 490.988C83.7768 487.705 88.7021 483.084 88.7021 483.084L89.5218 482.013L90.3799 480.896L98.5352 482.839C98.5352 482.839 98.7375 484.81 98.8631 487.315C98.9503 489.125 98.9992 491.221 98.898 493.056C98.6573 497.434 100.108 502.146 103.945 502.998C107.782 503.849 106.195 506.674 106.195 506.674Z" fill="#171941"/>
<path d="M177.891 506.782H150.593C150.394 506.749 150.199 506.691 150.014 506.611C148.193 505.669 148.761 498.487 148.967 496.265C149.009 495.854 149.04 495.613 149.04 495.613C149.04 495.613 158.636 487.709 159.958 493.761C160 493.953 160.049 494.137 160.101 494.319C161.765 499.98 169.216 502.554 173.517 503.27C176.817 503.824 177.668 505.798 177.891 506.782Z" fill="#171941"/>
<path d="M172.387 348.925C172.387 348.925 170.929 367.112 169.213 388.976C166.886 418.674 164.085 455.157 163.81 462.067C163.328 474.067 161.406 493.262 161.406 493.262C161.406 493.262 156.851 497.825 147.729 495.903C147.729 495.903 139.602 468.499 137.265 439.506C137.23 439.031 137.195 438.553 137.156 438.072C134.997 408.559 131.642 346.406 131.642 346.406L172.387 348.925Z" fill="#271C83"/>
<path d="M172.387 348.925C172.387 348.925 170.929 367.112 169.212 388.976L137.278 439.506C137.243 439.031 137.208 438.553 137.17 438.072C135.011 408.559 131.655 346.406 131.655 346.406L172.387 348.925Z" fill="#0D0551"/>
<path d="M165.728 351.102C165.728 351.102 139.451 416.972 122.174 447.93C104.898 478.887 99.5013 487.524 99.5013 487.524C99.5013 487.524 89.6019 483.561 88.688 480.865C88.688 480.865 95.2946 421.102 106.865 406.536C113.405 398.304 121.083 373.6 121.445 364.96C121.808 356.32 123.782 339.224 123.782 339.224L165.728 351.102Z" fill="#271C83"/>
<path d="M105.567 340.114C105.567 340.114 104.87 348.342 104.388 349.605C103.907 350.868 100.551 354.785 100.182 354.726C99.812 354.666 99.5678 354.377 99.7631 353.564C99.9585 352.751 101.103 350.306 100.74 350.369C100.377 350.432 96.575 357.37 95.0611 356.979C93.5472 356.588 92.0648 351.656 92.9682 348.175C93.8716 344.694 99.9829 339.221 100.217 338.659C102.198 333.901 105.567 340.114 105.567 340.114Z" fill="#EEB5A9"/>
<path d="M102.749 342.203C105.654 343.135 106.122 342.925 106.122 342.925C106.122 342.925 120.277 317.151 121.71 314.793C123.144 312.435 151.765 285.894 151.765 285.894L144.405 258.466C144.405 258.466 111.849 300.617 108.337 306.669C102.526 316.663 99.1211 339.88 99.1211 339.88C100.112 340.951 101.361 341.751 102.749 342.203V342.203Z" fill="#653D99"/>
<path d="M177.933 296.662C177.832 302.295 177.504 308.626 177.061 315.055C177.033 315.439 177.009 315.819 176.981 316.199C176.698 320.186 176.391 324.177 176.043 328.059C175.898 329.622 175.748 331.161 175.593 332.677L175.568 332.883C175.568 333.452 175.488 334.066 175.425 334.627C173.991 349.215 172.485 360.736 172.206 360.914C171.879 361.142 171.481 361.243 171.086 361.2C167.249 360.719 155.85 361.587 146.508 359.554C138.621 357.89 131.833 354.736 124.641 350.484C123.685 349.919 121.501 348.423 121.686 347.307C121.861 346.079 122.182 344.303 122.59 342.074C124.006 334.313 126.455 320.971 127.288 305.351C127.449 302.442 127.681 299.572 127.986 296.742C128.704 289.799 129.979 282.925 131.799 276.186C135.001 264.651 139.706 255.815 145.615 252.362C146.386 251.93 150.537 254.57 154.336 257.019C157.553 259.078 161.374 259.983 165.173 259.586L168.348 263.095C172.185 267.564 176.28 273.511 177.417 281.966C177.501 282.591 177.57 283.253 177.633 283.958C177.949 288.185 178.049 292.425 177.933 296.662V296.662Z" fill="#6D4B98"/>
<path d="M177.933 296.662C177.832 302.295 177.504 308.626 177.061 315.055C177.033 315.439 177.009 315.819 176.981 316.199C155.131 302.525 151.765 277.48 151.765 277.48C162.515 277.955 171.054 280.424 177.636 283.958C177.951 288.185 178.05 292.425 177.933 296.662V296.662Z" fill="#653D99"/>
<path d="M246.385 273.682C245.258 270.637 243.507 270.835 243.507 270.835C243.507 270.835 211.022 278.931 208.105 279.277C205.189 279.622 173.123 266.758 173.123 266.758C173.123 266.758 160.502 261.093 154.59 266.266C149.452 270.759 149.218 276.451 150.404 281.234C151.116 284.017 152.649 286.521 154.804 288.421C156.959 290.32 159.636 291.527 162.487 291.883C175.568 293.55 201.67 296.686 207.136 295.926C219.313 294.23 246.901 278.304 246.901 278.304C247.085 276.744 246.908 275.162 246.385 273.682V273.682Z" fill="#6D4B98"/>
<path d="M578.5 354.455H536.5V537.455H578.5V354.455Z" fill="#171941"/>
<path d="M536.5 354.455H402.5V537.455H536.5V354.455Z" fill="#2B478B"/>
<path d="M0.925354 536H650.075C650.586 536 651 536.457 651 537.021V537.979C651 538.543 650.586 539 650.075 539H0.925354C0.414307 539 0 538.543 0 537.979V537.021C0 536.457 0.414307 536 0.925354 536Z" fill="#171941"/>
<defs>
<linearGradient id="paint0_linear_765_5741" x1="758.586" y1="375.069" x2="-147.458" y2="452.101" gradientUnits="userSpaceOnUse">
<stop stop-color="#4D6CFA"/>
<stop offset="1" stop-color="#FF5292"/>
</linearGradient>
<clipPath id="clip0_765_5741">
<rect width="651" height="537" fill="white"/>
</clipPath>
</defs>
</svg>
